<svg xmlns="http://www.w3.org/2000/svg" width="1500" height="500" viewBox="0 0 1500 500"><defs><style>.cls-1{fill:#fff;}.cls-2{fill:none;}</style></defs><title>Asset 10</title><g id="Layer_2" data-name="Layer 2"><g id="Lag2"><g id="f1"><path class="cls-1" d="M1392.9,173.09s-23.78-83.24-107-41.62c0,0-50.55-86.21-121.9-11.89,0,0-59.46-14.86-80.27,53.51,0,0-83.24,71.36,11.89,130.82,0,0,35.68,86.22,116,29.73,0,0,17.84,5.94,50.54-8.92,0,0,83.25,50.54,110-35.68C1372.09,289,1470.2,235.53,1392.9,173.09Z"/><circle class="cls-1" cx="1409.49" cy="340.04" r="26.8"/><circle class="cls-1" cx="1436.6" cy="397.76" r="13.4"/><rect class="cls-2" x="1000" width="500" height="500"/></g><g id="f2"><circle class="cls-1" cx="909.49" cy="340.04" r="26.8"/><circle class="cls-1" cx="936.6" cy="397.76" r="13.4"/><rect class="cls-2" x="500" width="500" height="500"/></g><g id="f3"><circle class="cls-1" cx="436.6" cy="397.76" r="13.4"/><rect class="cls-2" width="500" height="500"/></g></g></g></svg>
