<svg xmlns="http://www.w3.org/2000/svg" width="2500" height="500" viewBox="0 0 2500 500"><defs><style>.cls-1{fill:none;}.cls-2{fill:#ed8218;}.cls-3{fill:#f7a72c;}.cls-4{fill:#fcd222;}</style></defs><title>Asset 2</title><g id="Layer_2" data-name="Layer 2"><g id="t01"><rect class="cls-1" width="500" height="500"/><path class="cls-2" d="M412.18,162c40,16.9,72,91.25-2.77,174.15,0,0-4.62,1.86-5.08-6,0,0-47.38,43.1-120.88,2.32-17.54-9.73-57.22,1.85-57.22,1.85L240.08,319s-21.23-8.8-27.69-12-16.61-3.7-30.91,1.39-36.45-.46-39.68-6,10.15-.92,25.84-19,31.83-18.52,36-17.6,12.57-6.36-15.69-3.7c-14.77,1.39-30.92,31.49-57.68,30.1S74,265.76,60.13,231c0,0,24,12.89,35.07,10.15s29.07-18,49.83-20.81,24-14.82,8.76-11.11-34.6-2.32-35.06-6.95,28.27-5.14,50.75-22.69c8.31-6.49,29.53,6,36.45,13s22.61,14.82,13.38,5.1-15.22-21.77-13.84-25.94,16.88,15.75,46.28,2.78S355,129.13,410.33,169.89C410.33,169.89,397.42,155.78,412.18,162Z"/><path class="cls-3" d="M439.86,244.92s7.89-86.37-107.5-65.3c-71.06,13-42.91,37.51-43.83,44s-3.23,12-16.15,17.56-22.61,19,0,25.05,33.22,6,31.83,17.6-13.84,15.74-8.3,19.91-.92,3.71,15.69,7.41S319,323.2,357.27,323.2,438.94,305.6,439.86,244.92Z"/><path class="cls-4" d="M431.1,245.38c-3-20.4-5.15-68.09-62.75-53.26-18,4.63-5.54,21.51-5.08,25.58s-3.69,11.47-12,13.33-23,19.8,0,32c8.76,4.64,21.22,5.1,17.07,10.66s-18,11.58-12.92,17.6,21.22,20.38,40.6,11.11S434,265.35,431.1,245.38Z"/></g><g id="t02"><rect class="cls-1" x="500" width="500" height="500"/><path class="cls-2" d="M907.63,343.58c-7.94,13.05-.12-3.87-4.53-1.54-34.39,18.13-70.62,11.07-104.05-11.31-6.52-4.36-29.73-5-39.64-.82-2.34,1-4.78-3.09-2.59-5.23a40.79,40.79,0,0,0,3.44-4.1c1.26-1.75,1.19-4.09-.85-5.09-6.49-3.19-12.88-6.79-19.47-10.06-9.15-4.54-21.37-2.3-30.46,1.73s-33,6.23-37.78,0S689.78,288.1,694,280.82s25.59-19.52,36-17.12-4.12-6.87-19.71-3.08c-8.15,2-33.94,28.75-55.3,24.58-19.1-3.72-52.71-16.68-68.54-24.12-1.91-.9-3-6.75,1.49-7.62,9.72-1.89,19-7,27.3-13.49,14.51-11.28,35.39-22.12,52.15-24s26.18-12.87,12.88-9.89-18-.09-18.93-6.91,26.18-16,34-23.13c2.87-2.63,29,6.81,32.74,13.46s19.55,15,14,6.9S722.26,179,729,170.63s12,16.61,45.32,1.54C805.72,158,864.18,138,903.1,162.25c1.38.86,8.22-1.13,6-2.88-11.11-9-2.1-3.77,6.73.78,71.6,36.87,40.31,137.21-8.25,183.43"/><path class="cls-3" d="M943.12,244.92s7.82-86.37-106.6-65.3c-70.46,13-40.29,30.87-32.73,43.6,3.34,5.62-3.64,11-16.45,16.63s-18.75,21,3.67,27,19,5.35,17.6,16.93-16.55,1.49-16.55,8.42c0,7.21,7.4,15.2,23.87,18.9s7.32,12.05,45.29,12.05S942.2,305.6,943.12,244.92Z"/><path class="cls-4" d="M934.43,245.38c-3-20.4-17.73-67.55-74.84-52.73-17.84,4.63,7.13,21,7.58,25s4.65,15.53-3.59,17.38-31.12,15.75-8.3,27.9c8.69,4.64,21,5.1,16.93,10.66s-17.85,11.58-12.82,17.6,21.05,20.38,40.27,11.11S937.33,265.35,934.43,245.38Z"/></g><g id="t03"><rect class="cls-1" x="1000" width="500" height="500"/><path class="cls-2" d="M1171,258.92c-14.19,13.32-49.11.27-65.41-6.11-14.69-5.76-11.88-23-12.09-26.06-.71-9.87,15,3.55,25.56,3.55,20.2,0,25-11.33,41.77-13.17s4.86-8.33-8.44-5.35-26.45,2.14-34.62-3c-3.13-2,49-16.43,58.88-12.83,13.48,4.9,17.57,24.61,36.35,34.69C1235.09,242.49,1206.85,225.33,1171,258.92Z"/><path class="cls-2" d="M1226.08,246.75c-9.66,4.61-14.13,18-18.37,25.28s-49.93,12.16-45.12,18.38,38.53,10.71,47.62,6.69,20.58,3.79,29.73,8.33c6.59,3.27,7.3-1.39,7.8,4.48.19,2.26-6.54-.67-11.23-1.18-5.94-.64-43,2.47-47.66,4.45-3.2,1.35,5.13,12,17.91,11.55,5.49-.18,85.77,1.64,92.29,6,33.43,22.38,93,20.12,132.31-5.81,4.16-2.75,4.4,26.46,10.41,12.42,58.23-136.07-25.89-177.19-25.89-177.19-8.83-4.55-17.84-9.74-6.73-.78,2.17,1.75-4.67,3.74-6.05,2.88-38.92-24.25-71.26-14.61-102.64-.42-33.34,15.07-56.76,11.58-63.52,20s39.63,3.42,30.92,8C1236.11,206.52,1242,239.17,1226.08,246.75Z"/><path class="cls-3" d="M1443.12,244.92s7.82-86.37-106.6-65.3c-70.46,13-53.28,25.47-39.92,34.25,5.46,3.59,3.55,20.39-9.26,26s-45,10.94-22.6,17,45.24,15.44,43.87,27-41.23-5.26-41.23,1.67c0,7.2,32.08,21.95,48.55,25.65s7.32,12.05,45.29,12.05S1442.2,305.6,1443.12,244.92Z"/><path class="cls-4" d="M1434.43,245.38c-3-20.4-31.88-63-89-48.21-17.84,4.63,21.29,16.46,21.74,20.53s-8.81,16.87-17.05,18.73-27.41,16.1-4.6,28.26c8.7,4.63,30.8,3.39,26.69,8.95S1336,285.9,1341,291.92s39.45,19.7,58.67,10.43S1437.33,265.35,1434.43,245.38Z"/></g><g id="t04"><rect class="cls-1" x="1500" width="500" height="500"/><path class="cls-2" d="M1656.58,233.49c-18.88,4.72-11.28,9.15-35,.31-3.56-1.32-8.25,1.59-17.34-6.89-7.24-6.75,1.13-5.57,11.66-5.57,20.2,0-6,2.62,10.67.19,4.71-.69,8.11-5.84,2.46-5.06-13.5,1.87-26.89,1.07-35.57-3.18-13.58-6.63,6.39-9.47,47.27-15.34,14.2-2,36,4.9,47.74,22.67C1694.15,229.19,1676.41,228.53,1656.58,233.49Z"/><path class="cls-2" d="M1708.42,213.17c13,11.9-3.2,36.39-7.44,43.66s-84,13.95-79.2,20.18,43.3,25.1,52.4,21.07,56.61,2.81,65.76,7.35c6.59,3.27,7.3-1.39,7.8,4.48.19,2.26-6.54-.67-11.23-1.18-5.94-.64-70-2.39-74.68-.41-3.2,1.36,8.9,9.15,21.68,8.73,5.49-.17,101.92,12.81,108.43,17.17,33.44,22.38,90.15,13,129.41-12.89,4.16-2.75,6.46,14.06,13.38.44,61.42-120.83-18.85-161.62-18.85-161.62-8.83-4.55-26.88-12.65-15.78-3.69,2.17,1.75,4.38,6.65,3,5.79-38.92-24.25-71.26-14.61-102.64-.42-33.34,15.07-38.23,8.92-45,17.31s21.09,6.09,12.38,10.68C1736.11,206.52,1695.43,201.29,1708.42,213.17Z"/><path class="cls-3" d="M1943.12,244.92s16-87.72-98.44-66.66c-70.46,13-48.36,27-35,35.75,5.46,3.59-10,12.3-22.77,17.89s-65.18,26.77-42.76,32.79,65.83,7.56,64.46,19.14-31.45-.32-31.45,6.61c0,7.2,22.3,17,38.77,20.71s7.32,12.05,45.29,12.05S1942.2,305.6,1943.12,244.92Z"/><path class="cls-4" d="M1934.43,245.38c-3-20.4-15.06-63-72.18-48.17-17.84,4.63,4.47,16.42,4.92,20.49s-8.81,16.87-17.05,18.73-27.41,16.1-4.6,28.26c8.7,4.63,30.8,3.39,26.69,8.95s-22,17.82-17,23.84,25.23,14.14,44.45,4.87S1937.33,265.35,1934.43,245.38Z"/></g><g id="t05"><rect class="cls-1" x="2000" width="500" height="500"/><path class="cls-2" d="M2166.51,205.6c13.57,15.22,34.57,13.38,17.27,33.28-29.53,34-86.34,0-97.48,15.21-4.65,6.34,24.65,28.58,53.46,24.12,47.16-7.29,52.14,8.1,61.29,12.64,6.6,3.27,12.15,3.22,12.65,9.09.19,2.26-2.62,6.61-29.92-2.4-38.74-12.79-58.82,4.7-63.5,6.68-3.2,1.36,50.45,13.25,63.23,12.83,5.49-.17,101.92,12.81,108.43,17.17,33.44,22.38,90.15,13,129.41-12.89,4.16-2.75,6.46,14.06,13.38.44,61.42-120.83-18.85-161.62-18.85-161.62-8.83-4.55-26.88-12.65-15.78-3.69,2.17,1.75,4.38,6.65,3,5.79-38.92-24.25-71.26-14.61-102.64-.42-33.34,15.07-38.23,8.92-45,17.31s19.89,4.31,12.38,10.68C2232.17,220.06,2146.43,183.06,2166.51,205.6Z"/><path class="cls-2" d="M2082.38,210.25a1.62,1.62,0,0,0-.64,2.89c9,6.08,35.55,21.08,59.06,3.76C2166,198.31,2099.29,207.65,2082.38,210.25Z"/><path class="cls-3" d="M2443.12,244.92s16-87.72-98.44-66.66c-70.46,13-48.36,27-35,35.75,5.46,3.59-10,12.3-22.77,17.89s-26.46,19.64-4,25.66,27.11,14.69,25.74,26.27-19.31,5.69-19.31,12.62c0,7.2,10.16,11,26.63,14.7s7.32,12.05,45.29,12.05S2442.2,305.6,2443.12,244.92Z"/><path class="cls-4" d="M2434.43,245.38c-3-20.4-26.1-61.86-83.21-47-17.84,4.63,15.5,15.29,16,19.36s-3.51,14.38-11.74,16.23-23.73,21.28-.92,33.44c8.69,4.63,21.81.71,17.7,6.27s-22,17.82-17,23.84,25.23,14.14,44.45,4.87S2437.33,265.35,2434.43,245.38Z"/></g></g></svg>
