<svg xmlns="http://www.w3.org/2000/svg" width="1999.33" height="487.63" viewBox="0 0 1999.33 487.63"><defs><style>.cls-1{fill:#59221b;}.cls-2{fill:#0f0d0d;}.cls-3{fill:#68281d;}.cls-4{fill:#191414;}.cls-5{fill:#4c1c15;}.cls-6{fill:#331615;}</style></defs><title>Asset 12</title><g id="Layer_2" data-name="Layer 2"><g id="forgrund"><path class="cls-1" d="M1097.67,383.19l176.21-143.07s-52.27-92.91,101-65.48,238.48,31.1,238.48,31.1l39.8,95.14L1639.61,396Z"/><polygon class="cls-2" points="0 343.68 0 139.81 212 66.63 439 154.63 555.49 261.37 541.95 356.52 0 343.68"/><path class="cls-3" d="M1421.51,387.48l73.67-190.88s99.07-96.31,252.34-68.88S1937.2,210,1937.2,210l39.8,95.14-13.55,95.15Z"/><polygon class="cls-4" points="324.49 474.79 398.16 283.91 650.5 215.03 904.69 261.56 879.98 392.48 866.43 487.63 324.49 474.79"/><path class="cls-5" d="M1590,336.19s28.14-208,54.29-272.37c16.68-41,57.31-88.33,170.25-49.18S1970,83,1970,83l29.33,135.78-10,135.77Z"/><polygon class="cls-6" points="749.97 444.78 823.64 231.28 1027.18 200.18 1195.87 256.85 1305.46 352.72 1291.92 459.14 749.97 444.78"/></g></g></svg>
