<svg xmlns="http://www.w3.org/2000/svg" xmlns:xlink="http://www.w3.org/1999/xlink" width="2500" height="2000" viewBox="0 0 2500 2000"><defs><style>.cls-1{fill:none;}.cls-2{fill:#4fbf4f;}.cls-3{fill:#50a050;}.cls-4{fill:#fff;}</style><symbol id="j1" data-name="j1" viewBox="0 0 200 200"><g id="t01_copy" data-name="t01 copy"><rect class="cls-1" width="200" height="200"/><g id="Karakterer"><path class="cls-2" d="M182.59,163.6C172,141.9,175,144.08,175,137.06,175,130.43,198,28,128,19,58.8,10.1,46.66,64.17,46.66,64.17s-8,43.41,19.24,61.8c15.45,10.43-24.36,30.52-24.36,30.52s-5.69,2.75,0,6.92-7.39,0-7.39,0-4.46,1.9-3.32,5.21H29.31c-7.2.47-14.41-2.18-14,2.65s8.53,1.8,8.53,1.8a6,6,0,0,1,5.5.47c1.14.85,3.22-.28,4.17-1.61a20.81,20.81,0,0,0,2.37,1.61c10.71,6.26,96.4,2.65,120.19-4.36C166.1,166.26,192.35,183.32,182.59,163.6Z"/><path class="cls-3" d="M149,104c-16.41,4.56-19.53-8.3-28-10-2.62-.53-7.44-2.29-7.44-3.62,0,0-.85-.57-.85-.85,0-1.33,12.61-4.17,16.11-4.17l28.63-2.46c3.41,0,13.8-.18,14.31,1,.13.31.74.73.85,1C173.09,86.31,167,99,149,104Z"/><path class="cls-4" d="M117.35,67.44c.38-6.07,4.83-10.33,10-8.34,5.69,2.18,10.71,5.69,10.24,11.75s-7,4.93-12.8,6.92S116.88,73.51,117.35,67.44Z"/><path class="cls-4" d="M143.42,65.92c1.23-6.64,6.54-10.71,11.94-7.87,6,3.13,11,7.58,9.76,14.12s-8.25,4.46-14.79,6S142.19,72.46,143.42,65.92Z"/><circle cx="160.49" cy="68.18" r="3.32" transform="translate(-7.07 19.92) rotate(-6.95)"/><circle cx="133.57" cy="68.71" r="2.84" transform="translate(-7.33 16.67) rotate(-6.95)"/><path class="cls-3" d="M121.35,53.21A11.25,11.25,0,0,0,114.25,65c-1.64.49-4,.68-4.44-1h0c-.49-1.64,3.31-10.42,7.53-13.76,1-.78,1.63-1.53,4.79-1.42,5.1.17,13.23.67,13.71,2.31l.83,1.14C137.25,53.86,122.93,52.55,121.35,53.21Z"/><path class="cls-3" d="M157.34,51.41c-7.34-2.41-7-1-11.39,1.6-1.29.76-4.19.19-3.31-1.28h0a12.74,12.74,0,0,1,12.57-4.85c1.55.32,4.11,2.37,5.48,3.16s6.67,8.09,5.89,9.57L166.29,61C165.41,62.49,158.77,51.88,157.34,51.41Z"/></g></g></symbol><symbol id="j2" data-name="j2" viewBox="0 0 200 200"><g id="t01_copy_2" data-name="t01 copy 2"><rect class="cls-1" width="200" height="200"/><g id="Karakterer-2" data-name="Karakterer"><path class="cls-2" d="M186.74,165.43c-11.15-18.7-8-16.82-8-22.87,0-5.72,24.15-94-49.37-101.71C56.74,33.19,44,79.76,44,79.76S35.62,117.17,64.19,133c16.23,9-25.58,26.3-25.58,26.3s-6,2.37,0,6-7.76,0-7.76,0-4.68,1.63-3.48,4.49H25.77c-7.57.41-15.13-1.88-14.73,2.29s9,1.55,9,1.55a7.44,7.44,0,0,1,5.77.41c1.19.73,3.38-.24,4.38-1.39A22.61,22.61,0,0,0,32.64,174c11.25,5.39,101.24,2.29,126.23-3.76C169.41,167.72,197,182.41,186.74,165.43Z"/><path class="cls-3" d="M151.46,117.64c-17.23,3.93-20.51-7.15-29.4-8.62-2.75-.45-7.81-2-7.81-3.12,0,0-.9-.49-.9-.73,0-1.14,13.24-3.59,16.92-3.59l30.06-2.12c3.58,0,14.49-.16,15,.9.14.27.78.63.9.9C176.76,102.41,170.36,113.34,151.46,117.64Z"/><path class="cls-4" d="M118.22,86.15A7.93,7.93,0,0,1,128.77,79c6,1.88,11.25,4.9,10.75,10.13s-7.37,4.25-13.44,6S117.72,91.37,118.22,86.15Z"/><path class="cls-4" d="M145.6,84.84c1.29-5.72,6.87-9.23,12.54-6.78,6.27,2.69,11.55,6.53,10.25,12.17s-8.66,3.84-15.53,5.14S144.3,90.47,145.6,84.84Z"/><path d="M162.05,88.29c1.91-.19,3.65.92,3.88,2.49s-1.13,3-3,3.18S159.25,93,159,91.47,160.14,88.48,162.05,88.29Z"/><path d="M132.79,87.39a2.92,2.92,0,0,1,3.33,2.14,2.6,2.6,0,0,1-2.6,2.73,2.92,2.92,0,0,1-3.33-2.14A2.6,2.6,0,0,1,132.79,87.39Z"/><path class="cls-3" d="M122.73,73.77c-9.18,1.94-9.09,9.11-9.09,9.11-1.77.21-4.21.08-4.47-1.38h0C108.9,80,114.12,73,119,70.72c1.13-.54,1.92-1.1,5.19-.61,5.27.79,13.65,2.25,13.92,3.71l.7,1.08C139.17,76.34,124.46,73.41,122.73,73.77Z"/><path class="cls-3" d="M160.12,72.21c-7.86-1.63-7.41-.41-11.82,2.06-1.3.73-4.38.41-3.56-.9h0c.82-1.31,5.55-5.71,12.83-4.92,1.64.18,4.47,1.79,6,2.39s7.55,6.55,6.82,7.88l-.2,1.21C169.32,81.24,161.64,72.53,160.12,72.21Z"/></g></g></symbol><symbol id="j3" data-name="j3" viewBox="0 0 200 200"><g id="t01_copy_2-2" data-name="t01 copy 2"><rect class="cls-1" width="200" height="200"/><g id="Karakterer-3" data-name="Karakterer"><path class="cls-2" d="M186.74,164.42c-11.15-20.36-8-18.32-8-24.9,0-6.22,24.15-102.3-49.37-110.74C56.74,20.43,44,71.15,44,71.15s-8.36,40.72,20.21,58c16.23,9.78-25.58,28.63-25.58,28.63s-6,2.58,0,6.49-7.76,0-7.76,0-4.68,1.78-3.48,4.89H25.77c-7.57.44-15.13-2-14.73,2.49s9,1.69,9,1.69a6.89,6.89,0,0,1,5.77.44c1.19.8,3.38-.27,4.38-1.51a22.16,22.16,0,0,0,2.49,1.51c11.25,5.87,101.24,2.49,126.23-4.09C169.41,166.91,197,182.92,186.74,164.42Z"/><path class="cls-3" d="M151.46,112.39c-17.23,4.27-20.51-7.78-29.4-9.38-2.75-.49-7.81-2.15-7.81-3.4,0,0-.9-.53-.9-.8,0-1.24,13.24-3.91,16.92-3.91l30.06-2.31c3.58,0,14.49-.17,15,1,.14.29.78.68.9,1C176.76,95.8,170.36,107.7,151.46,112.39Z"/><path class="cls-4" d="M118.22,78.1c.4-5.69,5.08-9.69,10.55-7.82,6,2,11.25,5.33,10.75,11s-7.37,4.62-13.44,6.49S117.72,83.79,118.22,78.1Z"/><path class="cls-4" d="M145.6,76.67c1.29-6.22,6.87-10,12.54-7.38,6.27,2.93,11.55,7.11,10.25,13.25s-8.66,4.18-15.53,5.6S144.3,82.81,145.6,76.67Z"/><path d="M162.05,80.43a3.42,3.42,0,0,1,3.88,2.71,3.21,3.21,0,0,1-3,3.47A3.42,3.42,0,0,1,159,83.89,3.21,3.21,0,0,1,162.05,80.43Z"/><path d="M132.79,79.45a2.93,2.93,0,0,1,3.33,2.33,2.75,2.75,0,0,1-2.6,3,2.93,2.93,0,0,1-3.33-2.33A2.75,2.75,0,0,1,132.79,79.45Z"/><path class="cls-3" d="M122.73,64.62c-9.18,2.12-9.09,9.91-9.09,9.91-1.77.23-4.21.09-4.47-1.5h0c-.27-1.59,4.95-9.22,9.82-11.74,1.13-.58,1.92-1.19,5.19-.66,5.27.86,13.65,2.45,13.92,4l.7,1.17C139.17,67.42,124.46,64.23,122.73,64.62Z"/><path class="cls-3" d="M160.12,62.92c-7.86-1.78-7.41-.44-11.82,2.24-1.3.79-4.38.45-3.56-1h0c.82-1.43,5.55-6.22,12.83-5.36,1.64.19,4.47,1.95,6,2.6s7.55,7.14,6.82,8.58l-.2,1.32C169.32,72.76,161.64,63.27,160.12,62.92Z"/></g></g></symbol><symbol id="j4" data-name="j4" viewBox="0 0 200 200"><g id="t01_copy_4" data-name="t01 copy 4"><rect class="cls-1" width="200" height="200"/><g id="Karakterer-4" data-name="Karakterer"><path class="cls-2" d="M178,163.85c-10-21.31-7.16-19.17-7.16-26.05,0-6.51,21.71-107.05-44.38-115.88-65.33-8.73-76.8,44.34-76.8,44.34s-7.52,42.61,18.17,60.66c14.59,10.23-23,30-23,30s-5.37,2.7,0,6.79-7,0-7,0-4.21,1.86-3.13,5.12H33.26c-6.8.47-13.6-2.14-13.25,2.61s8.05,1.77,8.05,1.77a5.43,5.43,0,0,1,5.19.47c1.07.84,3-.28,3.94-1.58a19.63,19.63,0,0,0,2.24,1.58c10.11,6.14,91,2.61,113.49-4.28C162.41,166.45,187.2,183.2,178,163.85Z"/><path class="cls-3" d="M149.21,103c-15.29,5.22-18.75-7.24-26.81-8.52-2.49-.39-7.11-1.91-7.16-3.21,0,0-.83-.52-.84-.8-.05-1.3,11.72-4.67,15-4.83l26.9-3.74c3.22-.16,13-.81,13.54.36.14.3.73.68.85,1C171.23,84.54,166,97.26,149.21,103Z"/><path class="cls-4" d="M117.89,68.6C118,62.63,122,58.24,127,60,132.49,61.83,137.37,65,137.16,71s-6.42,5.16-11.79,7.37S117.69,74.57,117.89,68.6Z"/><path class="cls-4" d="M142.42,65.91c.9-6.56,5.74-10.8,11-8.27,5.76,2.79,10.68,6.93,9.77,13.4s-7.6,4.75-13.71,6.54S141.52,72.38,142.42,65.91Z"/><path d="M157.2,65.12a3.13,3.13,0,0,1,3.6,2.67,3.26,3.26,0,0,1-2.58,3.76,3.13,3.13,0,0,1-3.6-2.67A3.26,3.26,0,0,1,157.2,65.12Z"/><path d="M131,67.38A2.68,2.68,0,0,1,134,69.66a2.8,2.8,0,0,1-2.21,3.22,2.68,2.68,0,0,1-3.09-2.28A2.8,2.8,0,0,1,131,67.38Z"/><path class="cls-3" d="M121.37,54.32c-8.16,2.62-7.74,10.76-7.74,10.76-1.58.31-3.77.27-4.08-1.37h0c-.31-1.65,4-9.85,8.32-12.7,1-.66,1.67-1.33,4.63-.92,4.77.67,12.37,2,12.68,3.61l.68,1.19C136.25,56.52,122.91,53.82,121.37,54.32Z"/><path class="cls-3" d="M154.88,50.9c-7.14-1.51-6.67-.14-10.52,2.86-1.14.89-3.92.66-3.24-.87h0c.68-1.53,4.72-6.75,11.3-6.16,1.49.13,4.1,1.84,5.46,2.46s7.08,7.13,6.49,8.67l-.13,1.39C163.56,60.78,156.26,51.19,154.88,50.9Z"/></g></g></symbol><symbol id="j5" data-name="j5" viewBox="0 0 200 200"><g id="t01_copy_5" data-name="t01 copy 5"><rect class="cls-1" width="200" height="200"/><g id="Karakterer-5" data-name="Karakterer"><path class="cls-2" d="M178,162.64c-10-23.29-7.16-21-7.16-28.48,0-7.12,21.71-117-44.38-126.67C61.1-2,49.64,56,49.64,56s-7.52,46.58,18.17,66.31c14.59,11.19-23,32.75-23,32.75s-5.37,2.95,0,7.42-7,0-7,0-4.21,2-3.13,5.59H33.26c-6.8.51-13.6-2.34-13.25,2.85s8.05,1.93,8.05,1.93a5,5,0,0,1,5.19.51c1.07.92,3-.31,3.94-1.73a19.74,19.74,0,0,0,2.24,1.73c10.11,6.71,91,2.85,113.49-4.68C162.41,165.49,187.2,183.8,178,162.64Z"/><path class="cls-3" d="M141.6,93.13c-16.95,4.89-20.17-8.9-28.92-10.73-2.7-.56-7.69-2.46-7.69-3.89,0,0-.88-.61-.88-.92,0-1.42,13-4.47,16.65-4.47l29.57-2.64c3.52,0,14.25-.19,14.79,1.12.13.33.76.78.88,1.12C166.49,74.16,160.2,87.77,141.6,93.13Z"/><path class="cls-4" d="M108.91,53.91c.39-6.51,5-11.09,10.38-8.95,5.87,2.34,11.06,6.1,10.57,12.61s-7.25,5.29-13.22,7.42S108.42,60.42,108.91,53.91Z"/><path class="cls-4" d="M135.84,52.28c1.27-7.12,6.76-11.49,12.34-8.44C154.34,47.2,159.53,52,158.26,59S149.74,63.77,143,65.4,134.56,59.3,135.84,52.28Z"/><path d="M152,50a3.46,3.46,0,0,1,3.82,3.1,3.53,3.53,0,0,1-3,4A3.46,3.46,0,0,1,149,54,3.53,3.53,0,0,1,152,50Z"/><path d="M123.24,50a3,3,0,0,1,3.27,2.66,3,3,0,0,1-2.56,3.4,3,3,0,0,1-3.27-2.66A3,3,0,0,1,123.24,50Z"/><path class="cls-3" d="M113.35,38.5c-9,2.42-8.94,11.34-8.94,11.34-1.74.26-4.14.1-4.4-1.72h0c-.26-1.81,4.86-10.54,9.66-13.42,1.11-.67,1.89-1.36,5.1-.75,5.19,1,13.43,2.8,13.69,4.62l.69,1.34C129.51,41.7,115,38,113.35,38.5Z"/><path class="cls-3" d="M150.12,36.55c-7.73-2-7.29-.51-11.63,2.57-1.28.91-4.31.52-3.5-1.12h0c.81-1.63,5.46-7.11,12.62-6.13,1.62.22,4.39,2.23,5.86,3s7.42,8.16,6.71,9.81l-.2,1.51C159.17,47.8,151.62,36.95,150.12,36.55Z"/></g></g></symbol><symbol id="b01" data-name="b01" viewBox="0 0 200 200"><g id="t01"><rect class="cls-1" width="200" height="200"/><g id="Karakterer-6" data-name="Karakterer"><path class="cls-2" d="M182.59,163.6C172,141.9,175,144.08,175,137.06c0-6.64,17.73-114.13-52-113.84S46.66,64.17,46.66,64.17s-8,43.41,19.24,61.8c15.45,10.43-24.36,30.52-24.36,30.52s-5.69,2.75,0,6.92-7.39,0-7.39,0-4.46,1.9-3.32,5.21H29.31c-7.2.47-14.41-2.18-14,2.65s8.53,1.8,8.53,1.8a6,6,0,0,1,5.5.47c1.14.85,3.22-.28,4.17-1.61a20.81,20.81,0,0,0,2.37,1.61c10.71,6.26,96.4,2.65,120.19-4.36C166.1,166.26,192.35,183.32,182.59,163.6Z"/><path class="cls-3" d="M151.5,95.35l-34.88,4.17c-3.51,0-8.06,2.18-8.06.85,0,0-.85-.57-.85-.85,0-1.33,12.61-4.17,16.11-4.17l28.63-2.46c3.41,0,14.31-.28,14.31,1l.85,1C167.61,96.4,154.91,95.35,151.5,95.35Z"/><path class="cls-4" d="M112.35,77.44c.38-6.07,4.83-10.33,10-8.34,5.69,2.18,10.71,5.69,10.24,11.75s-7,4.93-12.8,6.92S111.88,83.51,112.35,77.44Z"/><path class="cls-4" d="M138.42,75.92c1.23-6.64,6.54-10.71,11.94-7.87,6,3.13,11,7.58,9.76,14.12s-8.25,4.46-14.79,6S137.19,82.46,138.42,75.92Z"/><circle cx="155.49" cy="82.18" r="3.32" transform="translate(-8.8 19.42) rotate(-6.95)"/><circle cx="128.57" cy="81.71" r="2.84" transform="translate(-8.94 16.16) rotate(-6.95)"/><path class="cls-3" d="M126.1,66.92l-17.25,5.31c-1.71,0-4-.47-4-2.18h0c0-1.71,5.78-3.13,7.49-3.13l14.12-3.13c1.71,0,7-.38,7,1.33l.47,1.33C134.06,68.15,127.8,66.92,126.1,66.92Z"/><path class="cls-3" d="M156,66.92l-15.74.47c-1.42-.47-3.13-1.52-2.56-3.13h0c.57-1.61,5.69-1.42,7.11-.95l12.51.76c1.42.47,5.88,1.52,5.4,3.13v1.42C162.12,70.24,157.38,67.39,156,66.92Z"/></g><path class="cls-2" d="M7.79,173.14c-.26-.06-1.31,0-1,.36s1.18.17,1.18.17A.31.31,0,0,0,7.79,173.14Z"/></g></symbol><symbol id="b02" data-name="b02" viewBox="0 0 200 200"><g id="t01_copy_2-3" data-name="t01 copy 2"><rect class="cls-1" width="200" height="200"/><g id="Karakterer-7" data-name="Karakterer"><path class="cls-2" d="M182.59,163.6C172,141.9,175,144.08,175,137.06,175,130.43,197,28,126,25,56.3,22.05,46.66,64.17,46.66,64.17s-8,43.41,19.24,61.8c15.45,10.43-24.36,30.52-24.36,30.52s-5.69,2.75,0,6.92-7.39,0-7.39,0-4.46,1.9-3.32,5.21H29.31c-7.2.47-14.41-2.18-14,2.65s8.53,1.8,8.53,1.8a6,6,0,0,1,5.5.47c1.14.85,3.22-.28,4.17-1.61a20.81,20.81,0,0,0,2.37,1.61c10.71,6.26,96.4,2.65,120.19-4.36C166.1,166.26,192.35,183.32,182.59,163.6Z"/><path class="cls-3" d="M142,101c-7.76-.25-15.24-1.71-23-2-3.5-.13-8.44-.29-8.44-1.62,0,0-.85-.57-.85-.85,0-1.33,12.61-4.17,16.11-4.17l28.63-2.46c3.41,0,14.31-.28,14.31,1l.85,1C169.61,93.4,145.41,101.11,142,101Z"/><path class="cls-4" d="M114.35,74.44c.38-6.07,4.83-10.33,10-8.34,5.69,2.18,10.71,5.69,10.24,11.75s-7,4.93-12.8,6.92S113.88,80.51,114.35,74.44Z"/><path class="cls-4" d="M140.42,72.92c1.23-6.64,6.54-10.71,11.94-7.87,6,3.13,11,7.58,9.76,14.12s-8.25,4.46-14.79,6S139.19,79.46,140.42,72.92Z"/><circle cx="157.49" cy="79.18" r="3.32" transform="translate(-8.42 19.64) rotate(-6.95)"/><circle cx="130.57" cy="78.71" r="2.84" transform="translate(-8.56 16.38) rotate(-6.95)"/><path class="cls-3" d="M120,62c-2.72.86-9.77,5.91-9.77,5.91-1.7.12-4-.2-4.12-1.9h0c-.12-1.7,8-6.61,9.7-6.73l8.91-1.62c1.7-.12,9.49-.24,9.61,1.46l.56,1.29C135.06,62.14,121.59,61.51,120,62Z"/><path class="cls-3" d="M151.95,62c-2.43-.46-9.87.45-9.87.45-1.37-.61-3-1.81-2.25-3.36h0c.72-1.55,8.14-2,9.51-1.36l8.86,1.85c1.37.61,6.88,3.26,6.25,4.82l-.14,1.42C163.6,67.36,153.42,62.26,151.95,62Z"/></g><path class="cls-2" d="M7.79,173.14c-.26-.06-1.31,0-1,.36s1.18.17,1.18.17A.31.31,0,0,0,7.79,173.14Z"/></g></symbol><symbol id="b03" data-name="b03" viewBox="0 0 200 200"><rect class="cls-1" width="200" height="200"/><g id="Karakterer-8" data-name="Karakterer"><path class="cls-2" d="M182.59,163.6C172,141.9,175,144.08,175,137.06,175,130.43,200,25,131,19,61.5,13,46.66,64.17,46.66,64.17s-8,43.41,19.24,61.8c15.45,10.43-24.36,30.52-24.36,30.52s-5.69,2.75,0,6.92-7.39,0-7.39,0-4.46,1.9-3.32,5.21H29.31c-7.2.47-14.41-2.18-14,2.65s8.53,1.8,8.53,1.8a6,6,0,0,1,5.5.47c1.14.85,3.22-.28,4.17-1.61a20.81,20.81,0,0,0,2.37,1.61c10.71,6.26,96.4,2.65,120.19-4.36C166.1,166.26,192.35,183.32,182.59,163.6Z"/><path class="cls-3" d="M149,98c-16.41,4.56-22.53-.3-31-2-2.62-.53-7.44-2.29-7.44-3.62,0,0-.85-.57-.85-.85,0-1.33,12.61-4.17,16.11-4.17l28.63-2.46c3.41,0,13.8-.18,14.31,1,.13.31.74.73.85,1C170.09,88.31,167,93,149,98Z"/><path class="cls-4" d="M114.35,69.44c.38-6.07,4.83-10.33,10-8.34,5.69,2.18,10.71,5.69,10.24,11.75s-7,4.93-12.8,6.92S113.88,75.51,114.35,69.44Z"/><path class="cls-4" d="M140.42,67.92c1.23-6.64,6.54-10.71,11.94-7.87,6,3.13,11,7.58,9.76,14.12s-8.25,4.46-14.79,6S139.19,74.46,140.42,67.92Z"/><circle cx="157.49" cy="74.18" r="3.32" transform="translate(-7.82 19.6) rotate(-6.95)"/><circle cx="130.57" cy="73.71" r="2.84" transform="translate(-7.96 16.34) rotate(-6.95)"/><path class="cls-3" d="M119,58c-8.74,2.37-9,8.77-9,8.77-1.69.26-4,.14-4.27-1.54h0c-.26-1.69,3.61-7.48,8.24-10.23,1.08-.64,3.88-2.53,7-2,5,.85,11.74.31,12,2l1,2.19C134.32,58.86,120.65,57.55,119,58Z"/><path class="cls-3" d="M154,56c-7.52-1.77-7-2-11-.2-1.37.62-4.16.55-3.41-1h0C140.34,53.28,144,50.19,151,51a26.44,26.44,0,0,1,6,2c1.36.63,7.76,6.08,7.11,7.62L163.94,62C163.19,63.57,155.46,56.34,154,56Z"/></g><path class="cls-2" d="M7.79,173.14c-.26-.06-1.31,0-1,.36s1.18.17,1.18.17A.31.31,0,0,0,7.79,173.14Z"/></symbol><symbol id="b04" data-name="b04" viewBox="0 0 200 200"><g id="t01_copy-2" data-name="t01 copy"><rect class="cls-1" width="200" height="200"/><g id="Karakterer-9" data-name="Karakterer"><path class="cls-2" d="M182.59,163.6C172,141.9,175,144.08,175,137.06,175,130.43,198,28,128,19,58.8,10.1,46.66,64.17,46.66,64.17s-8,43.41,19.24,61.8c15.45,10.43-24.36,30.52-24.36,30.52s-5.69,2.75,0,6.92-7.39,0-7.39,0-4.46,1.9-3.32,5.21H29.31c-7.2.47-14.41-2.18-14,2.65s8.53,1.8,8.53,1.8a6,6,0,0,1,5.5.47c1.14.85,3.22-.28,4.17-1.61a20.81,20.81,0,0,0,2.37,1.61c10.71,6.26,96.4,2.65,120.19-4.36C166.1,166.26,192.35,183.32,182.59,163.6Z"/><path class="cls-3" d="M149,104c-16.41,4.56-19.53-8.3-28-10-2.62-.53-7.44-2.29-7.44-3.62,0,0-.85-.57-.85-.85,0-1.33,12.61-4.17,16.11-4.17l28.63-2.46c3.41,0,13.8-.18,14.31,1,.13.31.74.73.85,1C173.09,86.31,167,99,149,104Z"/><path class="cls-4" d="M117.35,67.44c.38-6.07,4.83-10.33,10-8.34,5.69,2.18,10.71,5.69,10.24,11.75s-7,4.93-12.8,6.92S116.88,73.51,117.35,67.44Z"/><path class="cls-4" d="M143.42,65.92c1.23-6.64,6.54-10.71,11.94-7.87,6,3.13,11,7.58,9.76,14.12s-8.25,4.46-14.79,6S142.19,72.46,143.42,65.92Z"/><circle cx="160.49" cy="72.18" r="3.32" transform="translate(-7.55 19.95) rotate(-6.95)"/><circle cx="133.57" cy="71.71" r="2.84" transform="translate(-7.69 16.69) rotate(-6.95)"/><path class="cls-3" d="M121.35,53.21A11.25,11.25,0,0,0,114.25,65c-1.64.49-4,.68-4.44-1h0c-.49-1.64,3.31-10.42,7.53-13.76,1-.78,1.63-1.53,4.79-1.42,5.1.17,13.23.67,13.71,2.31l.83,1.14C137.25,53.86,122.93,52.55,121.35,53.21Z"/><path class="cls-3" d="M157.34,51.41c-7.34-2.41-7-1-11.39,1.6-1.29.76-4.19.19-3.31-1.28h0a12.74,12.74,0,0,1,12.57-4.85c1.55.32,4.11,2.37,5.48,3.16s6.67,8.09,5.89,9.57L166.29,61C165.41,62.49,158.77,51.88,157.34,51.41Z"/></g><path class="cls-2" d="M7.79,173.14c-.26-.06-1.31,0-1,.36s1.18.17,1.18.17A.31.31,0,0,0,7.79,173.14Z"/></g></symbol><symbol id="t04" data-name="t04" viewBox="0 0 200 200"><rect class="cls-1" width="200" height="200"/><g id="Karakterer-17" data-name="Karakterer"><path class="cls-2" d="M13,177c-3.14,6.28,113.44-2.23,148.33-7.46,11.31-1.69,39.78,13.6,29.08-5.38-11.63-20.9-8.31-18.8-8.31-25.55,0-6.39,38.89-108.11-57-109.6C48.64,27.81,41.46,68.43,41.46,68.43S36,100.5,62.55,127.93C79.48,138,41,147.5,35.85,157.31,35,158.95,39,161.5,32,163.58c-1.65.49-.48-2.33-7,2.42-2,1.46-1.79.18-3,3-1,2.29-1.28,3.36-3,4C15.14,174.43,15,173,13,177Z"/><path class="cls-3" d="M163.63,101.37l-38.43-.64c-3.82-.47-9,1-8.86-.25,0,0-.86-.66-.83-.93.15-1.27,14.2-2.31,18-1.85l31.43,1.44c3.71.45,15.6,1.63,15.45,2.89l.81,1.11C181,104.51,167.34,101.82,163.63,101.37Z"/><path class="cls-4" d="M123.13,79.06c1.12-5.75,6.46-9.23,11.9-6.64C141,75.26,146,79.28,144.8,85s-8.2,3.78-14.73,4.92S121.91,84.79,123.13,79.06Z"/><path class="cls-4" d="M151.66,81.07c2.11-6.18,8.36-9.37,13.91-5.94,6.13,3.78,11.08,8.71,9,14.79s-9.49,3.16-16.78,3.75S149.56,87.15,151.66,81.07Z"/><path d="M164.84,87.49A3.05,3.05,0,0,1,168,90.27,2.83,2.83,0,0,1,164.93,93a3.05,3.05,0,0,1-3.15-2.78A2.83,2.83,0,0,1,164.84,87.49Z"/><path d="M134,83.8a3.06,3.06,0,0,1,3.16,2.79,2.84,2.84,0,0,1-3.07,2.7A3.06,3.06,0,0,1,131,86.5,2.84,2.84,0,0,1,134,83.8Z"/><path class="cls-3" d="M139.3,70.54,120,74.08c-1.86-.15-4.31-.81-4.18-2.45h0c.13-1.64,6.56-2.48,8.43-2.33L140,67.57c1.86.15,7.69.27,7.56,1.9l.41,1.32C147.89,72.44,141.16,70.69,139.3,70.54Z"/><path class="cls-3" d="M171.7,75.08l-17.07-2.46c-1.46-.71-3.13-2-2.26-3.44h0c.88-1.42,6.37-.3,7.83.42l13.39,3c1.46.71,6.1,2.53,5.33,4l-.23,1.35C177.82,79.37,173.16,75.8,171.7,75.08Z"/></g><path class="cls-2" d="M9.24,175.1c-1.28-.31-6.57-.1-4.92,1.76s5.92.82,5.92.82A1.51,1.51,0,0,0,9.24,175.1Z"/></symbol><symbol id="t05" data-name="t05" viewBox="0 0 200 200"><rect class="cls-1" width="200" height="200"/><g id="Karakterer-18" data-name="Karakterer"><path class="cls-2" d="M11,177c5.39,4.44,115.74-2.17,151-7.26,11.44-1.65,40.24,13.23,29.42-5.24C179.71,144.2,178,143.07,178,136.5c0-6.22,30-88.9-52.6-103.5C58,21.09,48,66.5,44.32,78.19c-.46,1.46-.59,3-1,4.48C41.27,90.07,49,114.5,62.15,129.28c17.12,9.77-27,28.6-27,28.6s-5,2.35-3.93,6.1c.6,2-3.52-1.29-10.09,3.33-2,1.42,2,2.92,0,3.89-4.87,2.34-7.36.35-9.1,1C8.14,173.57,7.85,174.42,11,177Z"/><path class="cls-3" d="M163,105l-38.85.62c-3.87-.33-9.68,3.44-9.58,2.2,0,0-.93-.82-.91-1.08.11-1.24,14.9-4.66,18.78-4.33l31.81.39c3.77.32,16.79,2.4,16.68,3.64l-.17,2C180.62,109.73,166.74,105.3,163,105Z"/><path class="cls-4" d="M121.16,84.58c.9-5.63,6.16-9.19,11.76-6.84C139,80.3,144.3,84,143.29,89.67s-8.14,3.94-14.68,5.26S120.16,90.2,121.16,84.58Z"/><path class="cls-4" d="M150.07,85.61c1.89-6.08,8.07-9.39,13.81-6.22,6.35,3.48,11.54,8.11,9.66,14.1s-9.46,3.39-16.8,4.19S148.19,91.6,150.07,85.61Z"/><path d="M163.13,90.51a3.54,3.54,0,0,1,3.79,3,3.25,3.25,0,0,1-3.44,3.18,3.54,3.54,0,0,1-3.79-3A3.25,3.25,0,0,1,163.13,90.51Z"/><path d="M133.51,88a3.08,3.08,0,0,1,3.3,2.61,2.8,2.8,0,0,1-3,2.72,3.08,3.08,0,0,1-3.3-2.61A2.8,2.8,0,0,1,133.51,88Z"/><path class="cls-3" d="M137.18,76,117.7,79.38c-1.88-.16-4.36-.82-4.22-2.41h0c.14-1.59,6.63-2.38,8.52-2.22l15.85-1.59c1.88.16,7.78.3,7.64,1.9l.42,1.28C145.87,77.94,139.06,76.2,137.18,76Z"/><path class="cls-3" d="M170.15,78.85l-17.41-1c-1.53-.58-3.33-1.71-2.58-3.16h0c.76-1.45,6.39-.79,7.93-.22l13.76,1.88c1.53.58,6.37,2,5.72,3.43l-.11,1.33C176.69,82.52,171.68,79.42,170.15,78.85Z"/></g><path class="cls-2" d="M3.9,176.34c-.71-.16-3.64-.05-2.73.94s3.28.44,3.28.44S5.31,176.67,3.9,176.34Z"/></symbol></defs><title>Asset 2</title><g id="Layer_2" data-name="Layer 2"><g id="Layer_1-2" data-name="Layer 1"><use width="200" height="200" transform="translate(0 1000) scale(2.5)" xlink:href="#j1"/><use id="j2-3" data-name="j2" width="200" height="200" transform="translate(499.85 1000) scale(2.5)" xlink:href="#j2"/><use id="j3-3" data-name="j3" width="200" height="200" transform="translate(999.85 1000) scale(2.5)" xlink:href="#j3"/><use id="j4-3" data-name="j4" width="200" height="200" transform="translate(1499.85 1000) scale(2.5)" xlink:href="#j4"/><use id="j5-3" data-name="j5" width="200" height="200" transform="translate(2000 1000) scale(2.5)" xlink:href="#j5"/><use width="200" height="200" transform="translate(0 500) scale(2.5)" xlink:href="#b01"/><use width="200" height="200" transform="translate(502.5 500) scale(2.5)" xlink:href="#b02"/><use width="200" height="200" transform="translate(1002.5 500) scale(2.5)" xlink:href="#b03"/><use width="200" height="200" transform="translate(1500 500) scale(2.5)" xlink:href="#b04"/><rect class="cls-1" y="1500" width="500" height="500"/><g id="Karakterer-10" data-name="Karakterer"><path class="cls-2" d="M456.48,1909c-26.54-54.27-19-48.82-19-66.35,0-16.59,44.31-285.32-130.1-284.61s-190.77,102.37-190.77,102.37S96.75,1769,164.76,1814.93c38.63,26.07-60.9,76.31-60.9,76.31s-14.22,6.87,0,17.3-18.48,0-18.48,0-11.14,4.74-8.29,13H73.29c-18,1.18-36-5.45-35.07,6.64s21.33,4.5,21.33,4.5a14.86,14.86,0,0,1,13.74,1.18c2.84,2.13,8.06-.71,10.43-4a52,52,0,0,0,5.92,4c26.78,15.64,241,6.64,300.49-10.9C415.24,1915.65,480.88,1958.3,456.48,1909Z"/><path class="cls-3" d="M378.75,1738.39l-87.21,10.43c-8.77,0-20.14,5.45-20.14,2.13,0,0-2.13-1.42-2.13-2.13,0-3.32,31.52-10.43,40.29-10.43l71.57-6.16c8.53,0,35.78-.71,35.78,2.61l2.13,2.61C419,1741,387.28,1738.39,378.75,1738.39Z"/><path class="cls-4" d="M280.88,1693.6c.95-15.17,12.09-25.83,25.12-20.85,14.22,5.45,26.78,14.22,25.59,29.39s-17.54,12.32-32,17.3S279.69,1708.76,280.88,1693.6Z"/><path class="cls-4" d="M346,1689.81c3.08-16.59,16.35-26.78,29.86-19.67,14.93,7.82,27.49,19,24.41,35.31s-20.62,11.14-37,14.93S343,1706.16,346,1689.81Z"/><circle cx="388.73" cy="1705.46" r="8.29" transform="translate(-203.49 59.56) rotate(-6.95)"/><circle cx="321.42" cy="1704.27" r="7.11" transform="translate(-203.85 51.41) rotate(-6.95)"/><path class="cls-3" d="M315.24,1667.29l-43.13,13.27c-4.27,0-10-1.18-10-5.45h0c0-4.27,14.46-7.82,18.72-7.82l35.31-7.82c4.27,0,17.54-.95,17.54,3.32l1.18,3.32C335.14,1670.37,319.5,1667.29,315.24,1667.29Z"/><path class="cls-3" d="M389.89,1667.29l-39.34,1.18c-3.55-1.18-7.82-3.79-6.4-7.82h0c1.42-4,14.22-3.55,17.77-2.37l31.28,1.9c3.55,1.18,14.69,3.79,13.51,7.82v3.55C405.29,1675.59,393.44,1668.48,389.89,1667.29Z"/></g><path class="cls-2" d="M19.49,1932.86c-.64-.16-3.28-.05-2.46.91s3,.43,3,.43A.79.79,0,0,0,19.49,1932.86Z"/><rect class="cls-1" x="500" y="1500" width="500" height="500"/><g id="Karakterer-11" data-name="Karakterer"><path class="cls-2" d="M956.48,1909c-26.54-54.27-19-48.82-19-66.35,0-16.59,44.31-285.32-130.1-284.61s-190.77,102.37-190.77,102.37S596.75,1769,664.76,1814.93c38.63,26.07-60.9,76.31-60.9,76.31s-14.22,6.87,0,17.3-18.48,0-18.48,0-11.14,4.74-8.29,13h-3.79c-18,1.18-36-5.45-35.07,6.64s21.33,4.5,21.33,4.5a14.86,14.86,0,0,1,13.74,1.18c2.84,2.13,8.06-.71,10.43-4a52,52,0,0,0,5.92,4c26.78,15.64,241,6.64,300.49-10.9C915.24,1915.65,980.88,1958.3,956.48,1909Z"/><path class="cls-3" d="M878.75,1738.39l-87.21,10.43c-8.77,0-20.14,5.45-20.14,2.13,0,0-2.13-1.42-2.13-2.13,0-3.32,31.52-10.43,40.29-10.43l71.57-6.16c8.53,0,35.78-.71,35.78,2.61l2.13,2.61C919,1741,887.28,1738.39,878.75,1738.39Z"/><path class="cls-4" d="M780.88,1693.6c.95-15.17,12.09-25.83,25.12-20.85,14.22,5.45,26.78,14.22,25.59,29.39s-17.54,12.32-32,17.3S779.69,1708.76,780.88,1693.6Z"/><path class="cls-4" d="M846,1689.81c3.08-16.59,16.35-26.78,29.86-19.67,14.93,7.82,27.49,19,24.41,35.31s-20.62,11.14-37,14.93S843,1706.16,846,1689.81Z"/><circle cx="888.73" cy="1705.46" r="8.29" transform="translate(-199.82 120.06) rotate(-6.95)"/><circle cx="821.42" cy="1704.27" r="7.11" transform="translate(-200.17 111.91) rotate(-6.95)"/><path class="cls-3" d="M815.24,1667.29l-43.13,13.27c-4.27,0-10-1.18-10-5.45h0c0-4.27,14.46-7.82,18.72-7.82l35.31-7.82c4.27,0,17.54-.95,17.54,3.32l1.18,3.32C835.14,1670.37,819.5,1667.29,815.24,1667.29Z"/><path class="cls-3" d="M889.89,1667.29l-39.34,1.18c-3.55-1.18-7.82-3.79-6.4-7.82h0c1.42-4,14.22-3.55,17.77-2.37l31.28,1.9c3.55,1.18,14.69,3.79,13.51,7.82v3.55C905.29,1675.59,893.44,1668.48,889.89,1667.29Z"/></g><path class="cls-2" d="M519.49,1932.86c-.64-.16-3.28-.05-2.46.91s3,.43,3,.43A.79.79,0,0,0,519.49,1932.86Z"/><rect class="cls-1" x="2000" y="1500" width="500" height="500"/><g id="Karakterer-12" data-name="Karakterer"><path class="cls-2" d="M2456.48,1909c-26.54-54.27-19-48.82-19-66.35,0-16.59,44.31-285.32-130.1-284.61s-190.77,102.37-190.77,102.37-19.91,108.54,48.11,154.51c38.63,26.07-60.9,76.31-60.9,76.31s-14.22,6.87,0,17.3-18.48,0-18.48,0-11.14,4.74-8.29,13h-3.79c-18,1.18-36-5.45-35.07,6.64s21.33,4.5,21.33,4.5a14.86,14.86,0,0,1,13.74,1.18c2.84,2.13,8.06-.71,10.43-4a52,52,0,0,0,5.92,4c26.78,15.64,241,6.64,300.49-10.9C2415.24,1915.65,2480.88,1958.3,2456.48,1909Z"/><path class="cls-3" d="M2341.13,1772.14c-8-.77-25.82-1-33.84-1.86-8.71-1-10.27-1.41-16-.81-4.63.49-27.7,3-17.58-12.93,9.35-14.75,34.49-19.65,43.21-20.53,9-.91,16.73-3.43,35.89-3,8.53.21,49.6,19.88,54,30.69,4.54,11.25-1.49,19.25-13.42,17C2345.16,1771.85,2349.62,1773,2341.13,1772.14Z"/><path class="cls-4" d="M2275.37,1693c1.15-19.26,14.72-32.8,30.59-26.48,17.31,6.92,32.61,18.06,31.16,37.31s-21.35,15.65-39,22S2273.92,1712.23,2275.37,1693Z"/><path class="cls-4" d="M2340.83,1688.76c3.68-20.39,19.52-32.91,35.65-24.17,17.82,9.61,32.82,23.3,29.14,43.4s-24.61,13.69-44.14,18.35S2337.15,1708.86,2340.83,1688.76Z"/><circle cx="2363.73" cy="1705.46" r="8.29" transform="translate(-188.98 298.53) rotate(-6.95)"/><circle cx="2296.42" cy="1704.27" r="7.11" transform="translate(-189.34 290.37) rotate(-6.95)"/><path class="cls-3" d="M2293.45,1654.82c-17.49,3.83-23.65,23.61-23.65,23.61-4.27,0-10-1.18-10-5.45h0c0-4.27,17-23.14,20.87-25,5-2.46,15.51-3.68,15.51-3.68,2.66-.65,9.91.69,12.41,1.79,8.38,3.7,22.78,11.16,22.78,14.57l1.18,3.32C2324.35,1667.84,2306.1,1652.05,2293.45,1654.82Z"/><path class="cls-3" d="M2378.23,1650.43a40.21,40.21,0,0,0-27.68,13.05c-3.55-1.18-7.82-3.79-6.4-7.82h0c1.42-4,27.48-15.51,31.18-14.92a59,59,0,0,0,7.5-.06,11.58,11.58,0,0,1,7.4,2.56c6.41,5.22,17.41,16.58,16.47,19.76v3.55C2399.42,1668.59,2390,1649.82,2378.23,1650.43Z"/></g><rect class="cls-1" x="1500" y="1500" width="500" height="500"/><g id="Karakterer-13" data-name="Karakterer"><path class="cls-2" d="M1956.48,1909c-26.54-54.27-19-48.82-19-66.35,0-16.59,44.31-285.32-130.1-284.61s-190.77,102.37-190.77,102.37-19.91,108.54,48.11,154.51c38.63,26.07-60.9,76.31-60.9,76.31s-14.22,6.87,0,17.3-18.48,0-18.48,0-11.14,4.74-8.29,13h-3.79c-18,1.18-36-5.45-35.07,6.64s21.33,4.5,21.33,4.5a14.86,14.86,0,0,1,13.74,1.18c2.84,2.13,8.06-.71,10.43-4a52,52,0,0,0,5.92,4c26.78,15.64,241,6.64,300.49-10.9C1915.24,1915.65,1980.88,1958.3,1956.48,1909Z"/><path class="cls-3" d="M1841.13,1758c-8-.49-25.82-.62-33.84-1.19-8.71-.62-10.27-.9-16-.52-4.63.31-27.7,1.95-17.58-8.25,9.35-9.42,34.49-12.55,43.21-13.11,9-.58,16.73-2.19,35.89-1.9,8.53.13,49.6,12.7,54,19.59,4.54,7.18-1.49,12.29-13.42,10.88C1845.16,1757.8,1849.62,1758.51,1841.13,1758Z"/><path class="cls-4" d="M1781.68,1693.1c1-17.4,13.29-29.63,27.63-23.92,15.64,6.25,29.46,16.31,28.15,33.71s-19.29,14.14-35.19,19.85S1780.37,1710.5,1781.68,1693.1Z"/><path class="cls-4" d="M1840.82,1689.3c3.32-18.42,17.64-29.73,32.2-21.84,16.1,8.68,29.65,21,26.33,39.21s-22.24,12.37-39.87,16.58S1837.49,1707.46,1840.82,1689.3Z"/><circle cx="1869.73" cy="1707.46" r="8.29" transform="translate(-192.86 238.77) rotate(-6.95)"/><circle cx="1805.42" cy="1706.27" r="7.11" transform="translate(-193.18 230.98) rotate(-6.95)"/><path class="cls-3" d="M1769.4,1672.65c7.74-3.13,6.55-14,24-17.83,12.65-2.77,30.91,13,39.15,9.15l-1.18-3.32c0-3.41-14.4-10.87-22.78-14.57-2.5-1.1-9.75-2.44-12.41-1.79,0,0-10.47,1.22-15.51,3.68-3.83,1.87-18.3,14.07-18.17,18C1762.64,1668.78,1766.77,1673.72,1769.4,1672.65Z"/><path class="cls-3" d="M1878.23,1653.7c-17.85.92-27.69,9.78-27.69,9.78-3.55-1.18-7.82-3.79-6.4-7.82h0c1.42-4,25.9-11.91,29.6-12.53a64.5,64.5,0,0,1,6.67-.72c2.69,0,5,1.28,8.69,2.32,8,2.22,18.54,15.1,17.6,18.28v3.55C1899.42,1668.59,1890,1653.09,1878.23,1653.7Z"/></g><rect class="cls-1" x="1000" y="1500" width="500" height="500"/><g id="Karakterer-14" data-name="Karakterer"><path class="cls-2" d="M1456.48,1909c-26.54-54.27-19-48.82-19-66.35,0-16.59,44.31-285.32-130.1-284.61s-190.77,102.37-190.77,102.37-19.91,108.54,48.11,154.51c38.63,26.07-60.9,76.31-60.9,76.31s-14.22,6.87,0,17.3-18.48,0-18.48,0-11.14,4.74-8.29,13h-3.79c-18,1.18-36-5.45-35.07,6.64s21.33,4.5,21.33,4.5a14.86,14.86,0,0,1,13.74,1.18c2.84,2.13,8.06-.71,10.43-4a52,52,0,0,0,5.92,4c26.78,15.64,241,6.64,300.49-10.9C1415.24,1915.65,1480.88,1958.3,1456.48,1909Z"/><path class="cls-3" d="M1341.13,1746.82c-8-.27-25.82-.34-33.84-.66-8.71-.34-10.27-.5-16-.29-4.63.17-27.7,1.08-17.58-4.57,9.35-5.21,34.49-6.94,43.21-7.25,9-.32,16.73-1.21,35.89-1,8.53.07,49.6,7,54,10.84,4.54,4-1.49,6.8-13.42,6C1345.16,1746.72,1349.62,1747.11,1341.13,1746.82Z"/><path class="cls-4" d="M1281.68,1693.1c1-17.4,13.29-29.63,27.63-23.92,15.64,6.25,29.46,16.31,28.15,33.71s-19.29,14.14-35.19,19.85S1280.37,1710.5,1281.68,1693.1Z"/><path class="cls-4" d="M1340.82,1689.3c3.32-18.42,17.64-29.73,32.2-21.84,16.1,8.68,29.65,21,26.33,39.21s-22.24,12.37-39.87,16.58S1337.49,1707.46,1340.82,1689.3Z"/><circle cx="1380.42" cy="1707.46" r="8.29" transform="translate(-196.45 179.57) rotate(-6.95)"/><circle cx="1317.11" cy="1706.27" r="7.11" transform="translate(-196.77 171.9) rotate(-6.95)"/><path class="cls-3" d="M1269.4,1672.65c7.74-3.13,8.09-8.68,25.58-12.5,12.65-2.77,28,11,34.48,4.62.81-.8,2-4.11,2-4.11,0-3.41-13.51-5-21.89-8.73-2.5-1.1-11.26-1.6-13.91-.95,0,0-11.79,3.4-16.82,5.85-3.83,1.87-16.37,5.21-16.24,9.11C1262.64,1668.78,1266.77,1673.72,1269.4,1672.65Z"/><path class="cls-3" d="M1377.24,1658.91c-17.85.92-26.7,4.57-26.7,4.57-3.55-1.18-7.82-3.79-6.4-7.82h0c1.42-4,15.49-3.62,19.19-4.24,3.41-.57,15.95-2.55,15.95-2.55a50.29,50.29,0,0,1,11.4,1.82c8,2.22,16.1,7,16.76,10.26.18.87.83,4-.74,5.61C1401.49,1672,1389.05,1658.3,1377.24,1658.91Z"/></g><path class="cls-2" d="M1519.49,1932.86c-.64-.16-3.28-.05-2.46.91s3,.43,3,.43A.79.79,0,0,0,1519.49,1932.86Z"/></g><g id="Lag_1" data-name="Lag 1"><g id="t01-2" data-name="t01"><rect class="cls-1" width="500" height="500"/><g id="Karakterer-15" data-name="Karakterer"><path class="cls-2" d="M456.48,409c-26.54-54.27-19-48.82-19-66.35,0-16.59,44.31-285.32-130.1-284.61S116.65,160.42,116.65,160.42,96.75,269,164.76,314.93c38.63,26.07-60.9,76.31-60.9,76.31s-14.22,6.87,0,17.3-18.48,0-18.48,0-11.14,4.74-8.29,13H73.29c-18,1.18-36-5.45-35.07,6.64s21.33,4.5,21.33,4.5a14.86,14.86,0,0,1,13.74,1.18c2.84,2.13,8.06-.71,10.43-4a52,52,0,0,0,5.92,4c26.78,15.64,241,6.64,300.49-10.9C415.24,415.65,480.88,458.3,456.48,409Z"/><path class="cls-3" d="M378.75,238.39l-87.21,10.43c-8.77,0-20.14,5.45-20.14,2.13,0,0-2.13-1.42-2.13-2.13,0-3.32,31.52-10.43,40.29-10.43l71.57-6.16c8.53,0,35.78-.71,35.78,2.61l2.13,2.61C419,241,387.28,238.39,378.75,238.39Z"/><path class="cls-4" d="M280.88,193.6c.95-15.17,12.09-25.83,25.12-20.85,14.22,5.45,26.78,14.22,25.59,29.39s-17.54,12.32-32,17.3S279.69,208.76,280.88,193.6Z"/><path class="cls-4" d="M346,189.81c3.08-16.59,16.35-26.78,29.86-19.67,14.93,7.82,27.49,19,24.41,35.31s-20.62,11.14-37,14.93S343,206.16,346,189.81Z"/><circle cx="388.73" cy="205.46" r="8.29" transform="translate(-22 48.54) rotate(-6.95)"/><circle cx="321.42" cy="204.27" r="7.11" transform="translate(-22.35 40.39) rotate(-6.95)"/><path class="cls-3" d="M315.24,167.29l-43.13,13.27c-4.27,0-10-1.18-10-5.45h0c0-4.27,14.46-7.82,18.72-7.82l35.31-7.82c4.27,0,17.54-.95,17.54,3.32l1.18,3.32C335.14,170.37,319.5,167.29,315.24,167.29Z"/><path class="cls-3" d="M389.89,167.29l-39.34,1.18c-3.55-1.18-7.82-3.79-6.4-7.82h0c1.42-4,14.22-3.55,17.77-2.37l31.28,1.9c3.55,1.18,14.69,3.79,13.51,7.82v3.55C405.29,175.59,393.44,168.48,389.89,167.29Z"/><path class="cls-2" d="M19.49,432.86c-.64-.16-3.28-.05-2.46.91s3,.43,3,.43A.79.79,0,0,0,19.49,432.86Z"/></g></g><g id="t02"><rect class="cls-1" x="500" width="500" height="500"/><g id="Karakterer-16" data-name="Karakterer"><path class="cls-2" d="M564.26,442.17c12.53,11.72,247.63-5.51,329.56-18.92,26.56-4.35,93.42,34.9,68.3-13.82-27.32-53.64-19.51-48.26-19.51-65.59,0-16.4,45.61-282-133.91-281.34S612.34,163.7,612.34,163.7,591.85,271,661.85,316.44c39.76,25.77-62.69,75.43-62.69,75.43s-11.69,6.19-9.11,16.08c1.4,5.36-9.91,1-9.91,1s-11.46,4.69-8.54,12.88C571.6,421.85,551.45,430.18,564.26,442.17Z"/><path class="cls-3" d="M882.12,240.77l-89.76,10.31c-9,0-20.73,5.39-20.73,2.11,0,0-2.2-1.41-2.2-2.11,0-3.28,32.44-10.31,41.47-10.31l73.67-6.09c8.78,0,36.83-.7,36.83,2.58l2.2,2.58C923.58,243.35,890.9,240.77,882.12,240.77Z"/><path class="cls-4" d="M775.2,196.5c1.21-15,15.39-25.53,32-20.61,18.1,5.39,34.1,14.06,32.59,29S817.44,217.11,799,222,773.69,211.49,775.2,196.5Z"/><path class="cls-4" d="M845.84,192.75c3.47-16.4,18.42-26.47,33.63-19.44,16.82,7.73,31,18.74,27.49,34.9s-23.22,11-41.64,14.76S842.37,208.91,845.84,192.75Z"/><path d="M891.36,200.08a8.47,8.47,0,0,1,9.51,7.15,8.28,8.28,0,0,1-7.44,9.13,8.47,8.47,0,0,1-9.51-7.15A8.28,8.28,0,0,1,891.36,200.08Z"/><path d="M822.22,200.07a7.26,7.26,0,0,1,8.15,6.13A7.09,7.09,0,0,1,824,214a7.26,7.26,0,0,1-8.15-6.13A7.09,7.09,0,0,1,822.22,200.07Z"/><path class="cls-3" d="M816.68,170.09,772.6,184.25c-4.39.1-10.27-.93-10.37-5.15h0c-.1-4.22,14.69-8.08,19.08-8.18l36.15-8.58c4.39-.1,18-1.36,18.12,2.86l1.3,3.25C837.23,172.66,821.07,170,816.68,170.09Z"/><path class="cls-3" d="M893.49,171.06,853,170.7c-3.61-1.31-7.9-4.05-6.29-8h0c1.61-3.92,14.76-3,18.37-1.65l32.1,3.09c3.61,1.31,15,4.32,13.6,8.25l-.13,3.51C909,179.85,897.1,172.37,893.49,171.06Z"/><path class="cls-2" d="M559.82,434c-12.7,7.13-20.82-4.46-27.91,7-3.44,5.55,13.41,4.72,23.18,3.81a9.7,9.7,0,0,0,8.9-9C564.11,433.57,563.22,432.14,559.82,434Z"/></g></g><g id="t03"><path class="cls-2" d="M1039.36,442.55c13,11.57,275.17-5.76,360.44-19,27.64-4.29,97.23,34.45,71.08-13.64-28.43-52.95-25.43-48.41-20.31-64.74,16.92-53.93,47.47-278.37-139.37-277.68s-204.36,99.88-204.36,99.88-21.32,105.89,51.54,150.75c41.38,25.43-48.46,56.27-65.24,74.45-3.21,3.48-3.14,8.56-3.14,18.67,0,2.5-6.63-9.54-22.5,2.5-4.88,3.7-10,2.15-10.71,2.63-6.79,4.87-2,8.39-6.2,10C1041.16,430,1031.69,435.74,1039.36,442.55Z"/><path class="cls-3" d="M1390.57,250.63l-92.91,2.67c-9.38-.52-22.64,2-22.47-1.24,0,0-2.4-1.94-2.36-2.63.18-3.23,34.34-3.41,43.72-2.89l76.88-1.77c9.13.51,38.31,1.43,38.13,4.66l2.14,2.67C1433.52,255.56,1399.69,251.14,1390.57,250.63Z"/><path class="cls-4" d="M1288.29,201.21c1.83-14.72,14.32-24.45,28-18.83,14.91,6.15,27.88,15.44,25.79,30.14s-19.42,11-35.15,15S1286.21,215.91,1288.29,201.21Z"/><path class="cls-4" d="M1358.2,201.37c4.19-16,18.93-25.12,33-17.39,15.55,8.5,28.38,20.1,24.2,35.84s-22.65,9.63-40.35,12.36S1354,217.12,1358.2,201.37Z"/><path d="M1398.81,216.39c4-.22,7.56,2.55,7.85,6.18s-2.75,6.75-6.8,7-7.56-2.55-7.85-6.18S1394.76,216.6,1398.81,216.39Z"/><path d="M1327.91,209.43c4.19-.23,7.84,2.68,8.13,6.51s-2.86,7.11-7.06,7.35-7.84-2.68-8.13-6.51S1323.71,209.67,1327.91,209.43Z"/><path class="cls-3" d="M1326.21,175.82l-45.57,15c-4.56.21-10.7-.67-10.89-4.83h0c-.19-4.16,15.13-8.32,19.69-8.53l37.44-9.33c4.56-.21,18.73-1.77,18.91,2.39l1.41,3.18C1347.65,177.86,1330.78,175.61,1326.21,175.82Z"/><path class="cls-3" d="M1405.93,183.58l-41.81-5.43c-3.58-1.74-7.7-5-5.58-8.61h0c2.12-3.64,15.59-1,19.17.69l32.81,7.06c3.58,1.74,15,6.11,13.1,9.79l-.54,3.43C1421,194.15,1409.51,185.32,1405.93,183.58Z"/><path class="cls-2" d="M1036.28,434.53c-4.58-1.13-23.56-.38-17.65,6.53s21.21,3.06,21.21,3.06S1045.35,436.78,1036.28,434.53Z"/><rect class="cls-1" x="1000" width="500" height="500"/></g><use id="t04-3" data-name="t04" width="200" height="200" transform="translate(1500) scale(2.5)" xlink:href="#t04"/><use id="t05-3" data-name="t05" width="200" height="200" transform="translate(2000) scale(2.5)" xlink:href="#t05"/></g></g></svg>
