<svg xmlns="http://www.w3.org/2000/svg" width="1500" height="500" viewBox="0 0 1500 500"><defs><style>.cls-1{fill:#f28d16;}.cls-2{fill:#dd7212;}.cls-3{fill:#f7b279;}.cls-4{fill:none;}</style></defs><title>Asset 2</title><g id="Layer_2" data-name="Layer 2"><g id="sprites"><path class="cls-1" d="M1058.21,115s118.27,20.31,178.05,1.59c81.74-25.59,132.74-16.59,196,9C1487.45,148,1444,268.48,1444,268.48L1251.12,372.11l-208.24-32.77Z"/><path class="cls-2" d="M1125,156.86s-83,3.84-41,4.58,32-2.51,72-2.22S1156,155.23,1125,156.86Z"/><path class="cls-3" d="M1140.47,166.86s-46.06,3.84-22.75,4.58,17.76-2.51,40-2.22S1157.68,165.23,1140.47,166.86Z"/><path class="cls-3" d="M1325.62,130.86s-51,3.84-25.2,4.58,19.67-2.51,44.25-2.22S1344.67,129.23,1325.62,130.86Z"/><path class="cls-2" d="M1307,118.86s-83,3.84-41,4.58,32-2.51,72-2.22S1338,117.23,1307,118.86Z"/><path class="cls-2" d="M1261.69,189s30.46,12.12,42.07,2.3c7.4-6.26-30-5.47-68.73-15.59S1230.63,185.59,1261.69,189Z"/><rect class="cls-4" x="1000" width="500" height="500"/><path class="cls-1" d="M558.21,115s117.86-15.79,178.05,1.59c63.74,18.41,145.89-23.06,196,9S944,268.48,944,268.48L751.12,372.11,542.88,339.34Z"/><path class="cls-2" d="M631,120.86s-83,3.84-41,4.58,32-2.51,72-2.22S662,119.23,631,120.86Z"/><path class="cls-3" d="M640.47,127.86s-46.06,3.84-22.75,4.58,17.76-2.51,40-2.22S657.68,126.23,640.47,127.86Z"/><path class="cls-3" d="M849.62,130.71s-51,2.63-25.2,3.14,19.67-1.72,44.25-1.52S868.67,129.59,849.62,130.71Z"/><path class="cls-2" d="M836,123.86s-83,3.84-41,4.58,32-2.51,72-2.22S867,122.23,836,123.86Z"/><path class="cls-2" d="M706.12,173.07s91,.62,101.88-3.07c7-2.35-88.94,2.14-135.17-3.25S670.1,170.67,706.12,173.07Z"/><rect class="cls-4" x="500" width="500" height="500"/><path class="cls-1" d="M58.21,115s115.49,4.87,178.05,1.59c125.74-6.59,145.89-23.06,196,9S444,268.48,444,268.48L251.12,372.11,42.88,339.34Z"/><path class="cls-2" d="M151,126.86s-83,3.84-41,4.58,32-2.51,72-2.22S182,125.23,151,126.86Z"/><path class="cls-3" d="M180.47,132.86s-46.06,3.84-22.75,4.58,17.76-2.51,40-2.22S197.68,131.23,180.47,132.86Z"/><path class="cls-3" d="M389.62,130.71s-51,2.63-25.2,3.14,19.67-1.72,44.25-1.52S408.67,129.59,389.62,130.71Z"/><path class="cls-2" d="M356,123.86s-83,3.84-41,4.58,32-2.51,72-2.22S387,122.23,356,123.86Z"/><path class="cls-2" d="M256.12,173.07s91,.62,101.88-3.07c7-2.35-88.94,2.14-135.17-3.25S220.1,170.67,256.12,173.07Z"/><rect class="cls-4" width="500" height="500"/></g></g></svg>
