<svg xmlns="http://www.w3.org/2000/svg" width="137.41" height="328.02" viewBox="0 0 137.41 328.02"><defs><style>.cls-1{fill:#fff;stroke:#fff;stroke-miterlimit:10;}</style></defs><title>Asset 1</title><g id="Layer_2" data-name="Layer 2"><g id="Layer_1-2" data-name="Layer 1"><g id="_1Qp2U8" data-name="1Qp2U8"><path class="cls-1" d="M105.69,327.14c.41-2.4.67-9.45.1-11.75-2-8.11-6.47-15.45-7.52-23.89a8.85,8.85,0,0,0-2.36-4.3c-4.11-4.63-5.62-10.26-6.66-16.13a19.29,19.29,0,0,0-1.15-4.43c-3.94-8.91-6.2-18.33-8.53-27.72-.64-2.59,0-5,.91-7.56,2.51-7,6.42-14.12,5.49-21.37a135.83,135.83,0,0,1-1.42-24.76c0-.23-.1-.47-.1-.7-.07-8.23-.44-16.4,5-23.63a12.3,12.3,0,0,0-1.11-16c-5-5.36-8.41-11.81-12.83-17.56S68.09,115.07,65,108.56c-2.16-4.57-4.35-9.5-8.15-12.72-7.42-6.28-10.49-15-14.38-23.24-2-4.31-4.71-7.57-8.86-9.66a20.07,20.07,0,0,1-5.23-4.12c-4-4.09-6.34-9.42-10.12-13.61-2.17-2.41-2.57-4.3-1.14-7.18,2.74-5.52,3.77-11.29.19-16.88-1.73-2.7-3.15-5.53-4.6-8.36C10.63,8.7,9.19,4.25,6.19.65L1.05,3.83C3.51,5,4.6,7.11,5.69,9.39A39,39,0,0,1,9.36,20.06a7.12,7.12,0,0,0,2.47,4.42c1.94,1.75,3,4.82,1.5,7.11C11.7,34,11.18,37.06,9,39.15A8.2,8.2,0,0,0,6.79,45.3c0,1.54-.25,2.46,2.06,2.43,3.47-.05,6,1.94,8,4.91C21.13,58.78,24.63,65.66,32,69a7.31,7.31,0,0,1,3.16,3.28c1.83,3.3,4.41,6.43,5.28,10,2.11,8.61,7.27,14.69,13.84,20.19,4.06,3.41,5.15,8.91,7.64,13.44a213.29,213.29,0,0,0,21.36,32.38c2.34,2.87,3,5.82,1,9.12a42.36,42.36,0,0,0-5.82,25.77,52.79,52.79,0,0,1-.26,9.89,25.39,25.39,0,0,0,.42,10.19c2.7,9.11.13,17.52-3.38,25.73a16,16,0,0,0-1.31,9.26c1.7,10.41,5.89,20.17,8.21,30.34,2.89,12.67,11.28,23.06,13.43,35.87.3,1.79,1.58,3.41,2.34,5.14a27.35,27.35,0,0,1,2.56,11.66l1.72,3.33Z"/></g><g id="_1Qp2U8-2" data-name="1Qp2U8"><path class="cls-1" d="M136.68,174.42a17.79,17.79,0,0,0-2.06-3.92c-2.12-2.33-4.9-4-6.75-6.6a3.34,3.34,0,0,0-1.55-1,11.8,11.8,0,0,1-5.09-4.17,7.27,7.27,0,0,0-1.17-1.27,62.92,62.92,0,0,1-7.77-7.69,4.79,4.79,0,0,1-1-2.67c-.41-2.76-.38-5.83-2-8.08a51.2,51.2,0,0,1-4.88-8c0-.08-.12-.14-.16-.21-1.49-2.72-3.07-5.37-2.56-8.73A4.64,4.64,0,0,0,98.45,117c-2.61-.89-4.9-2.42-7.39-3.55a38.07,38.07,0,0,1-6.83-4.38,13.75,13.75,0,0,0-5-2.77c-3.58-.77-6.16-3.12-8.91-5.16a7.27,7.27,0,0,0-4.66-1.63,7.57,7.57,0,0,1-2.47-.44c-2.06-.64-3.79-2-5.79-2.72a2.09,2.09,0,0,1-1.66-2.18c-.07-2.32-.76-4.42-2.94-5.64-1.06-.59-2-1.28-3-2a23.37,23.37,0,0,0-4.33-2.87l-1.14,2a3.82,3.82,0,0,1,2.53,1A14.7,14.7,0,0,1,50,89.57a2.68,2.68,0,0,0,1.61,1,2.14,2.14,0,0,1,1.77,2.09c-.11,1.1.26,2.2-.09,3.28a3.09,3.09,0,0,0,.35,2.44c.27.52.35.86,1.12.44a3.59,3.59,0,0,1,3.54.2c2.5,1.28,4.89,2.95,7.92,2.75a2.76,2.76,0,0,1,1.63.53,16.76,16.76,0,0,1,3.53,2.37,14.25,14.25,0,0,0,8.19,4.24c2,.41,3.3,2,4.93,3.11a80.39,80.39,0,0,0,12.86,7,2.74,2.74,0,0,1,2,2.85,16,16,0,0,0,2.66,9.6,19.9,19.9,0,0,1,1.68,3.33,9.57,9.57,0,0,0,2,3.31c2.52,2.55,3.16,5.79,3.46,9.15a6,6,0,0,0,1.21,3.31c2.42,3.16,5.55,5.65,8.13,8.62,3.22,3.69,7.85,5.65,10.85,9.52a9.08,9.08,0,0,0,1.69,1.29,10.31,10.31,0,0,1,2.93,3.42l1.17.8Z"/></g><g id="_1Qp2U8-3" data-name="1Qp2U8"><path class="cls-1" d="M122.88,212.79a7.42,7.42,0,0,0-.86-1.63,31.74,31.74,0,0,1-2.82-2.75,1.39,1.39,0,0,0-.65-.42,4.92,4.92,0,0,1-2.12-1.74,3,3,0,0,0-.49-.53,26.24,26.24,0,0,1-3.24-3.21,2,2,0,0,1-.44-1.11,7.6,7.6,0,0,0-.83-3.37,21.35,21.35,0,0,1-2-3.32s0-.06-.07-.09a5.66,5.66,0,0,1-1.07-3.64,1.93,1.93,0,0,0-1.34-2.13c-1.09-.37-2-1-3.08-1.48a15.87,15.87,0,0,1-2.85-1.83,5.74,5.74,0,0,0-2.07-1.16,9.83,9.83,0,0,1-3.72-2.15,3,3,0,0,0-1.94-.68,3.16,3.16,0,0,1-1-.18c-.86-.27-1.58-.83-2.41-1.13a.87.87,0,0,1-.69-.91A2.55,2.55,0,0,0,87.91,177c-.44-.25-.85-.53-1.26-.82A9.75,9.75,0,0,0,84.85,175l-.48.82a1.59,1.59,0,0,1,1.06.43,6.13,6.13,0,0,1,1.3,1.21,1.12,1.12,0,0,0,.67.43.89.89,0,0,1,.74.87,6.27,6.27,0,0,1,0,1.37,1.29,1.29,0,0,0,.15,1c.11.22.15.36.47.18a1.5,1.5,0,0,1,1.48.08,6.31,6.31,0,0,0,3.3,1.14,1.15,1.15,0,0,1,.68.22,7,7,0,0,1,1.47,1,5.94,5.94,0,0,0,3.42,1.77,6.54,6.54,0,0,1,2.06,1.29,33.52,33.52,0,0,0,5.36,2.9,1.14,1.14,0,0,1,.81,1.19,6.66,6.66,0,0,0,1.11,4,8.3,8.3,0,0,1,.7,1.39,4,4,0,0,0,.82,1.38,5.81,5.81,0,0,1,1.44,3.82,2.52,2.52,0,0,0,.51,1.38c1,1.32,2.31,2.36,3.39,3.59,1.34,1.54,3.27,2.36,4.52,4a3.79,3.79,0,0,0,.71.54,4.3,4.3,0,0,1,1.22,1.43l.49.33Z"/></g><g id="_1Qp2U8-4" data-name="1Qp2U8"><path class="cls-1" d="M58.61,293.48A7.42,7.42,0,0,0,59.74,292a31.74,31.74,0,0,1,1.34-3.7,1.39,1.39,0,0,0,.12-.76,4.92,4.92,0,0,1,.71-2.65,3,3,0,0,0,.28-.66A26.24,26.24,0,0,1,63.76,280a2,2,0,0,1,.83-.86A7.6,7.6,0,0,0,67.32,277a21.35,21.35,0,0,1,2.18-3.23s0-.07.05-.1a5.66,5.66,0,0,1,2.87-2.48,1.93,1.93,0,0,0,1.38-2.1c-.11-1.15.08-2.28.07-3.42a15.87,15.87,0,0,1,.49-3.35,5.74,5.74,0,0,0,.19-2.37,9.83,9.83,0,0,1,.42-4.27,3,3,0,0,0-.19-2.05,3.16,3.16,0,0,1-.26-1c-.11-.89.11-1.78,0-2.67a.87.87,0,0,1,.54-1,2.55,2.55,0,0,0,1.63-2.09c0-.5.13-1,.22-1.48a9.75,9.75,0,0,0,.34-2.14l-.95-.09a1.59,1.59,0,0,1,0,1.14,6.13,6.13,0,0,1-.56,1.68,1.12,1.12,0,0,0-.11.79.89.89,0,0,1-.49,1,6.27,6.27,0,0,1-1.26.53,1.29,1.29,0,0,0-.86.56c-.15.19-.27.28,0,.5a1.5,1.5,0,0,1,.54,1.38A6.31,6.31,0,0,0,74,254.2a1.15,1.15,0,0,1,.08.71,7,7,0,0,1-.29,1.75,5.94,5.94,0,0,0-.2,3.84,6.54,6.54,0,0,1-.33,2.41,33.52,33.52,0,0,0-.42,6.08,1.14,1.14,0,0,1-.75,1.23,6.66,6.66,0,0,0-3.18,2.66,8.3,8.3,0,0,1-1,1.21,4,4,0,0,0-.92,1.31,5.81,5.81,0,0,1-2.88,2.89,2.52,2.52,0,0,0-1,1c-.78,1.46-1.19,3.08-1.87,4.57-.85,1.86-.79,4-1.74,5.76a3.79,3.79,0,0,0-.2.87,4.3,4.3,0,0,1-.79,1.7l-.1.58Z"/></g><g id="_1Qp2U8-5" data-name="1Qp2U8"><path class="cls-1" d="M21.7,144.9a10,10,0,0,0,1-3.23c-.08-2.46-1.13-5-.82-7.43a2.46,2.46,0,0,0-.52-1.45,8,8,0,0,1-1.15-5.2,4.43,4.43,0,0,0-.06-1.35,39.39,39.39,0,0,1-.88-8.6,2.8,2.8,0,0,1,1-2c1.52-1.64,3.58-3.17,3.83-5.27a29,29,0,0,1,1.53-7c0-.06,0-.14,0-.2.66-2.28,1.2-4.57,3.82-6,1.79-.94,2.11-2.8.91-4.53-1.42-2-2.16-4.2-3.34-6.29a28.15,28.15,0,0,1-2.35-6.37,10.77,10.77,0,0,0-2-4.43c-2.25-2.57-2.67-5.32-3.44-8a6.65,6.65,0,0,0-2.51-3.66,8,8,0,0,1-1.61-1.73c-1.16-1.58-1.59-3.31-2.65-4.89-.61-.91-.6-1.48.17-2.11C14.12,54,15,52.53,14.11,50.59a27.23,27.23,0,0,1-1-2.82,17.07,17.07,0,0,0-1.43-4.08L9.47,44A3.35,3.35,0,0,1,10.74,46a9.43,9.43,0,0,1,.48,3.36,2,2,0,0,0,.56,1.5c.58.7.73,1.67,0,2.13s-1.26,1.26-2.24,1.6a2,2,0,0,0-1.35,1.44c-.14.42-.3.65.57.9a4.06,4.06,0,0,1,2.6,2.26c1.07,2.17,1.81,4.46,4.28,6.21a2.58,2.58,0,0,1,.91,1.26A12.16,12.16,0,0,1,17.66,70c.07,2.61,1.5,4.87,3.5,7.13,1.24,1.4,1.19,3,1.74,4.57a63.63,63.63,0,0,0,5.29,11.34c.63,1.06.63,1.94-.39,2.62a9.7,9.7,0,0,0-4.32,6.44,11.23,11.23,0,0,1-.92,2.7,5.44,5.44,0,0,0-.69,2.86c.25,2.82-1.41,4.84-3.41,6.71a3.54,3.54,0,0,0-1.26,2.4c-.23,3.06.52,6.22.55,9.29,0,3.82,2.3,7.63,2,11.4a6.26,6.26,0,0,0,.45,1.68,6.19,6.19,0,0,1,0,3.5l.37,1.11Z"/></g></g></g></svg>
