<svg xmlns="http://www.w3.org/2000/svg" width="1640.18" height="859" viewBox="0 0 1640.18 859"><defs><style>.cls-1{fill:#848484;}.cls-2{fill:#7c7c7c;}.cls-3{fill:#f0af87;}.cls-4{fill:#d39979;}.cls-5{fill:#3a3a3a;}.cls-6{fill:#232323;}.cls-7{fill:#666;}.cls-8{fill:#515151;}.cls-9{fill:#762a1c;}.cls-10{fill:#fff7c8;}.cls-11{fill:#c6c29d;}.cls-12{fill:#e6da64;}</style></defs><title>Asset 9</title><g id="Layer_2" data-name="Layer 2"><g id="mellemgrund_objekter"><polygon class="cls-1" points="276.93 239 228.77 310.81 287.4 369.44 276.93 239"/><polygon class="cls-1" points="97.82 36.97 66.18 90.09 100.62 127.98 97.82 36.97"/><polygon class="cls-1" points="172.93 142.15 143.5 192.22 176.93 212.21 172.93 142.15"/><polygon class="cls-1" points="221.93 202.06 180.11 241.35 228.93 264 221.93 202.06"/><path class="cls-2" d="M48.93,0S236.78,615.62,1131,856l-1098.15.5Z"/><path class="cls-2" d="M97.82,37S285.67,626,1179.93,856H97.82Z"/><path class="cls-2" d="M172.79,142.15S305.54,648.82,937.53,846.61H172.79Z"/><path class="cls-2" d="M276.93,238.87s144.61,437.25,833,608h-833Z"/><path class="cls-2" d="M221.93,202.31S366.54,674.62,1055,859h-833Z"/><path class="cls-3" d="M1513,313.38s59,9.62,66,67.62l7,58-46,58Z"/><path class="cls-3" d="M1162.93,842s148.5-333.47,140.25-392.46,54.45-119.18,92.4-122.79,117.15-31.3,143.55,0,28,226.32,61,278.09,23.09,174.56,39.59,195S1162.93,842,1162.93,842Z"/><path class="cls-4" d="M1347.35,351.77s36.93,4.86,88.55-4l51.62-8.89,7.2-26.85S1366.61,315.26,1347.35,351.77Z"/></g><g id="grotte"><polygon class="cls-5" points="226.37 450.54 217.84 374.38 200.03 354.06 184.69 350.39 168.34 347.27 149.76 361.11 142.98 383.18 150.85 457.75 226.37 450.54"/><polygon class="cls-6" points="209.62 459.61 202.43 386.58 188.15 362.65 172.81 358.99 156.47 355.87 137.89 369.71 131.1 391.78 138.97 466.35 209.62 459.61"/><polygon class="cls-7" points="3.23 461.17 319.41 437.09 313.25 485 313.05 520.77 355.04 577 523.35 696.91 11.4 719.46 3.23 461.17"/><polygon class="cls-8" points="3.23 461.17 324.17 428.23 320.43 443.49 295.51 440.79 174.28 452.92 61.13 466.35 0 483.17 3.23 461.17"/></g><g id="tree"><path class="cls-9" d="M1435.58,311.12l-2.3-3c-2.06,6.74-10.57,8.77-13.61,9.29.19-1.9.41-3.42.53-4.17a.43.43,0,0,0-.43-.49H1412a.44.44,0,0,0-.32.13,16.72,16.72,0,0,0-2.66,5.92c-12.68-1.84-8.55-8.58-8.55-8.58s-2.3-5.28-4.82.92c-2,4.9,8.18,9.22,12.55,10.82-.82,3.5-1.4,7.06-1.69,9a4.24,4.24,0,0,0,2.5,4.52c3.76,1.6,10.4.7,14,0a.43.43,0,0,0,.09-.82c-3.57-1.68-3.9-8.88-3.56-14.58C1427.65,320.46,1435.58,311.12,1435.58,311.12Z"/><path class="cls-10" d="M1448,234.27a40.93,40.93,0,0,0-6.93-8.41c-5.61,7-28,21.84-60.15,12a68.24,68.24,0,0,0-4.71,7.36C1392.47,249,1426.88,253.85,1448,234.27Z"/><path class="cls-10" d="M1432.47,228.19a47.6,47.6,0,0,1,6-4.32c-6-4-12.83-4.19-23.66-5.54,0,0-16.46-.85-30.94,15.81C1399.08,239,1417.55,240.45,1432.47,228.19Z"/><path class="cls-10" d="M1455.18,247.27c-1.88-3.79-3.62-7-5.27-9.83-14.12,11.67-38.91,22.06-76.18,12.56q-1.27,2.73-2.45,5.79C1380,259.37,1428.76,277.59,1455.18,247.27Z"/><path class="cls-10" d="M1457.12,251.28c-14.71,14.09-43.61,28.12-87.72,9.81a131.28,131.28,0,0,0-4.44,18.49c3.74,6.3,11.07,12.78,25,9.07,0,0,16.47,22.51,35.59,3.14,0,0,17.92,13.56,29.29-1.93,0,0,7.51-.14,13.44-4.1.09-5.8-1.37-12.81-5.09-21.26C1461,259.55,1459,255.17,1457.12,251.28Z"/><path class="cls-11" d="M1425.5,291.79c-19.12,19.37-35.59-3.14-35.59-3.14-13.88,3.71-21.21-2.77-25-9.07-.59,3.5-1.09,7.19-1.5,11.1-3.21,31,73.5,23,73.5,23s30.88-2.14,31.27-27.88c-5.93,4-13.44,4.1-13.44,4.1C1443.42,305.35,1425.5,291.79,1425.5,291.79Z"/><path class="cls-12" d="M1457.12,251.28c-.66-1.4-1.31-2.73-1.94-4-26.42,30.32-75.22,12.1-83.9,8.52-.66,1.69-1.28,3.45-1.88,5.3C1413.51,279.4,1442.41,265.37,1457.12,251.28Z"/><path class="cls-12" d="M1449.91,237.44c-.66-1.13-1.31-2.18-2-3.17-21.08,19.58-55.49,14.74-71.79,10.94q-1.26,2.26-2.44,4.79C1411,259.5,1435.79,249.11,1449.91,237.44Z"/><path class="cls-12" d="M1441,225.86a24.12,24.12,0,0,0-2.58-2,47.6,47.6,0,0,0-6,4.32c-14.92,12.26-33.39,10.81-48.62,5.95-1,1.15-2,2.38-3,3.71C1413.07,247.7,1435.42,232.82,1441,225.86Z"/></g></g></svg>
