<svg xmlns="http://www.w3.org/2000/svg" width="1956.52" height="979" viewBox="0 0 1956.52 979"><defs><style>.cls-1{fill:#494949;}.cls-2{fill:#383838;}.cls-3{fill:#a03b27;}.cls-4{fill:#c66671;}.cls-5{fill:#f08d94;}.cls-6{fill:#cb5959;}.cls-7{fill:#fff7c9;}.cls-8{fill:#eb8964;}.cls-9{fill:#f3ed8f;}.cls-10{fill:#d2cc80;}.cls-11{fill:#eadf5f;}</style></defs><title>Asset 7</title><g id="Layer_2" data-name="Layer 2"><g id="mellemgrund"><path class="cls-1" d="M1025.85,557.14s-8.77,117.93-13.28,157.19c-4.71,41.07-23.84,164-23.84,164l-883.5,49.71L89.79,653.73l936.06-96.59"/><polygon class="cls-2" points="1036 562.82 1031 665 1011 695 964 664 911 677 871.57 661.93 781.79 651.92 762.63 672.94 702.1 672.94 644.6 653.92 578.02 672.94 530.61 672.94 503.37 672.94 480.17 672.94 460 691.96 410.57 678.95 364 673 324.82 682.95 297.58 724 247.15 705.98 0 689.96 90.79 672.94 1036 562.82"/><path class="cls-1" d="M83.59,530.35,788.4,491,1036,520.77v42.05S703.73,644.63,91.69,673.15Z"/><path class="cls-3" d="M1301,487.29s25,373.27,38.81,414.58S1364.57,979,1364.57,979h471.05V447.39L1301,487.29"/><path class="cls-4" d="M1294,487.29l5.75,80.28s28,50.59,55.89,25.8,56.43,17,84.34,22.56,24.91-39.08,100.25-22.56,40.28,15.61,101.67,29.38,68.14-23.87,118.37-7.34,75.35,0,75.35,0V525.24Z"/><path class="cls-5" d="M1835.62,593.37s-364.3-35.81-518.62-90.9,518.62-129,518.62-129"/><path class="cls-6" d="M1495.27,478s142.51-300.75,134.59-353.95,52.26-107.49,88.68-110.75,112.42-28.23,137.75,0,26.92,204.12,58.59,250.81,22.17,157.43,38,175.89S1495.27,478,1495.27,478Z"/><path class="cls-7" d="M1719.94,92.36c-10.44-3.07,0,0-9.48-5.39-14.27-8.1-51.6-28.09-50.55,19.75,1.63,74.08,27.63,45.19,26,153.47s-73.57,89.65-40.43,167.24,86.76,1.19,86.76,1.19,41.42,101.17,36.55-51.92,26-146.51,11.37-225.53C1768.28,86.94,1748.18,100.64,1719.94,92.36Z"/><path class="cls-8" d="M1500.86,462.22s67.42-228.12,63.67-268.48,24.72-81.53,42-84,53.18-21.41,65.16,0,12.74,154.83,27.72,190.24,10.48,119.42,18,133.42S1500.86,462.22,1500.86,462.22Z"/><path class="cls-8" d="M1761.36,483.26S1766,307,1752.18,281.39s2.24-63.23,17.69-71S1814.06,177,1830.72,187s51.47,98.72,74.51,117,40.32,75.9,50.9,82.56S1761.36,483.26,1761.36,483.26Z"/><path class="cls-7" d="M1777.11,425.46s-182.92-32.28-269.61,15.29,20.82,32.71,52.52,55.71,70.39,18,161.32,10.63,139.38-29,139.38-29Z"/><path class="cls-3" d="M1538.45,467.22S1499.59,477,1526.3,491s24.39-8,24.39-8S1554.09,470.44,1538.45,467.22Z"/><path class="cls-6" d="M1538.45,467.22S1501,476.35,1524,490.35s21.86-1.66,23-7.35C1547.83,478.71,1551.92,470.44,1538.45,467.22Z"/><path class="cls-3" d="M1564.91,489.22s-15.08-1.61-8.91,8.71,9.84.19,9.84.19S1569.53,493.06,1564.91,489.22Z"/><path class="cls-6" d="M1563.9,488.77s-13.26-.79-8.34,9,8.7-.33,8.7-.33S1567.79,492.27,1563.9,488.77Z"/><path class="cls-9" d="M1711.58,259.7s4,83.8,15.14,106.08c7.09,14.21-8.26-78.26-16.89-181.22S1701.56,180.21,1711.58,259.7Z"/><path class="cls-9" d="M1668.62,485.3s85.29-5.94,108.69-14.44c14.93-5.43-27.44,10.88-130.71,7.71S1588.5,486.19,1668.62,485.3Z"/><path class="cls-10" d="M1704,473.55s65.6-2.65,83.57-7c11.45-2.8-21.06,5.63-100.57,3.32S1642.29,473.53,1704,473.55Z"/><path class="cls-9" d="M1742.92,146.22s-5.17,21.73-1.94,28.5c2,4.32,2.76-20.74,7.44-47.8S1745,125,1742.92,146.22Z"/><path class="cls-11" d="M1750.13,166.34s-1.82,22.27,2.39,28.47c2.69,3.95-.41-20.92.11-48.38S1749,145.05,1750.13,166.34Z"/><path class="cls-11" d="M1713.32,196.08s3.27,53.86,8.63,68.35c3.41,9.25-5.07-50.37-10.72-116.61S1707.45,144.88,1713.32,196.08Z"/></g></g></svg>
