<svg xmlns="http://www.w3.org/2000/svg" width="3500" height="1000" viewBox="0 0 3500 1000"><defs><style>.cls-1{fill:#ed8218;}.cls-2{fill:#ff9e03;}.cls-3{fill:#ff7a0e;}.cls-4{fill:#232323;}.cls-5{fill:#303030;}.cls-6{fill:#3f3f3f;}.cls-7{fill:#f7a72c;}.cls-8{fill:#353535;}.cls-9{fill:none;}</style></defs><title>Asset 6</title><g id="Layer_2" data-name="Layer 2"><g id="Lag2"><g id="t01"><path class="cls-1" d="M203.92,601.45c3-2.71,1.68-1,16.28,3.45s14.8-6.65,17.76,1.48,4.48.48,17.76-.87,12.39,7.89,16.28-1.35c5.94-14.05,34.63-1.16,19-14.16-8.88-7.37-7.14.94-13.06-1.37C261.51,582.22,271,576,270,575c-13.32-13.32-.94,10.29-14.26,6.23s.14-3.46-8.74-10.23,5.78,12.9-7.54,7.45S234,574,229,572c-16.61-6.64-2.83,9.35-14.67,10.7s.08-17.79-5.92-12.37,4.41,12.18-3,16.24S189.48,574.23,188,581s8.53,16.26-6.27,13.55S171,604,175.81,600.47c19.21-14.12,14.8,8.88,14.8,8.88C189.74,613.73,201,604.16,203.92,601.45Z"/><path class="cls-2" d="M260.77,610.4c1.43-10.12,5.71-3.38,8.57-15.18s-4.29,1.69-8.57,1.69,1.44-6.75-4.28-6.75-15.72,10.12-11.43,1.69-4.29-11.8-7.14-8.43-10,0-12.85-5.06-1.43,5.06-2.86,13.49-14.28-16.86-14.28-5.06-7.15,1.68-11.43,3.37,10,15.18,10,15.18S259.34,620.52,260.77,610.4Z"/><path class="cls-3" d="M305.86,608.81c.77.94,3.11,1.32,4.11-1.32,3.5-9-11.31-10.57-11.31-10.57C303.8,602.21,303.73,606.23,305.86,608.81Z"/><path class="cls-3" d="M290.31,564.57a3.88,3.88,0,0,0,.66-5.1c-4.78-7.34-11.44,8.66-11.44,8.66C285,564.37,287.75,566,290.31,564.57Z"/><path class="cls-3" d="M193.23,569.56c-1.13-.34-3-2.8-2.13-5.56,2.83-9.42,14.23,6.84,14.23,6.84C198.58,568,196.26,570.48,193.23,569.56Z"/><path class="cls-3" d="M174.58,613.34a3.13,3.13,0,0,1-3.78-.93c-4-5,9-5.07,9-5.07C175.76,609.91,176.23,612.07,174.58,613.34Z"/><path class="cls-4" d="M244.45,862.69a421,421,0,0,1,126.42-5.2c-.79-.5,39.59-29,30.74-43.23-9.81-14.5-11.13-22.83-16.65-33.85s-1.81-48.29-15.21-62.29c-23.27-24.17-40.8-43.91-47.2-60s-15-38.07-29-52-30.22-3.57-30.2-3.6S251,599.1,249,599.22s-.07-.12-8,2.44-12.19-1.25-32.93-2.94c-21-1.54-32.37,18.39-32.86,26.39-1.07,8.08-11.52,55.81-16.44,65-5.65,9.16-15.23,35.75-15.07,35.75A612.68,612.68,0,0,1,244.45,862.69Z"/><path class="cls-1" d="M197.29,621c-3.94,16.24-11.24,30.85-13.65,45.85-4,24.86-3.12,24.71-8.11,42.47S169.33,736.57,170,749s-5.65,37.6-5.65,37.6l-8.59,42.24-31.31,41.41s7.94-28.44,14.46-47.48,6.92-33,6.39-37.24.83-17.72,8.83-42.12,11.7-40.74,12.55-48.4,4-27.35,17.55-61.15c6-14.81,2.93-14.24,4.74-19.81,3.52-10.8,13.46-21.07,12.6-13.71A207.38,207.38,0,0,1,197.29,621Z"/><path class="cls-5" d="M43.3,895.71c13.84-11.93,20-19,22.84-22.8a16.26,16.26,0,0,0,2.75-6.54c1.55-8.1,7-32.49,18-46.77,13.21-17.13,35.74-35.31,43.6-62.79,9.25-32.35,21.14-49.47,23.78-55.18s6.61-11.41,19.82-5.71,13.21,0,23.78-3.81S223,734,232.22,762.51s25.11,47.57,30.39,49.47,14.53,22.78,13.87,23.78c-.48.73,5.68,3.17,8.52,4.24a10.93,10.93,0,0,1,2.7,1.52c8.61,6.43,15.24,8.15,19,8.54a9.42,9.42,0,0,0,6.5-1.82c4.94-3.55,15.19-13.39,24.74-38.16,13.21-34.24,22.46-13.32,23.78-9.51s4,13.32,13.21,5.71c4.89-4,7.94-5.39,9.72-5.78a10.34,10.34,0,0,0,4.14-1.84c5.07-3.88,6.9,3.67,9.26,10.47,2.65,7.59,41,60.88,52.85,66.59,6.9,3.31,13.36,18.8,17.56,31.22,2.9,8.56-1,18.37-8.21,20.37C417,939.22,372.83,938.65,367,938.52a8.89,8.89,0,0,1-1.28-.12C254,919.58,258,944.21,221,938.51S154,924,121,924c-21.84,0-70.14,5.38-84-.82-7.2-3.22-8.52-15.46-2.26-21C37.46,899.78,40.25,898.36,43.3,895.71Z"/><path class="cls-6" d="M310.23,727.45c-4.31,3.19-32.66-4-35.07-22-2.4-18.25,20.13-19.52,28.6-21.52C324.46,679,314.54,724.26,310.23,727.45Z"/><path class="cls-6" d="M288.05,650.43c-1.37.91-.78-5.48,5.27-13.82s7.89-6.23,9.11-6.13C305.41,630.73,289.42,649.52,288.05,650.43Z"/><path class="cls-6" d="M254.88,647.3c-3.39-1.28-15.08-10.74-9.47-12.28s17.51,5.78,22.51,8.46C280.23,650,258.27,648.58,254.88,647.3Z"/><path class="cls-1" d="M317.57,704.47c5.53,13.54-3.09,28.25,6.43,39.9,15.8,19.35,18.94,18.61,22.5,33.91s10.91,22.42,28.4,30.3,25.31,29,25.31,29l20.42,34.07-63.19,48.8s-5.9-24.4-5.47-41.54-15.1-26.73-22.28-29.25S311,837.22,310.28,815.5s-7.25-35.17-13.56-40.87-19-21-11-52.77c3.51-13.94-6.78-11.46-7-16.46-.45-9.61,23.12-23.17,29-17.66C311.68,691.45,315,698.1,317.57,704.47Z"/><path class="cls-7" d="M298.66,729.22c1.48,20.72,4.35,38.31,11.84,42.92,19.24,11.87,19.24,77,19.24,77l-6.27.5s7.75-50.82-11.49-70.07-16.28-37-16.86-51.4-9.78-18.72-9.78-25.57C285.34,699.64,297.18,708.5,298.66,729.22Z"/><path class="cls-1" d="M307.89,630.95c1.12-1.25,2.89-.38,3.12,1.52,5.49,46-13,43.78-20.51,41.14a1.94,1.94,0,0,1-.36-3.12c3-2.51,7.48-7.85,7.31-17.38h0l10.22,13.33-3.41-19.09-4-5.18A46.78,46.78,0,0,1,307.89,630.95Z"/><path class="cls-1" d="M238.94,644.44c-1.37-.32-2.46,1.36-2,3,13.81,49.09,30.93,33.91,37,26.26.88-1.14.32-3-.91-3.14-3.91-.33-10.51-2.37-14.32-11.75h0l-4.33,19.8-4.6-20.7,1.72-7.72A36.29,36.29,0,0,0,238.94,644.44Z"/><path class="cls-8" d="M368.66,940.45c-16,7.29-77.43-5.56-87.7-11.43-13.32-7.61.93-36.38-5.92-62.79-4.44-17.08.49-36.08,7.72-41.08,7.51-5.23,23,8.65,27.9,13.37a3,3,0,0,0,3.56.57c4.92-2.7,17.86-12.32,28-42.62,12.77-38.24,21.72-14.87,23-10.62S369,800.72,378,792.22c5.86-5.61,9-6.61,10.44-6.61a3.21,3.21,0,0,0,2.22-1.15c5.49-5.93,7.33,2.94,9.73,10.94,2.56,8.49,39.66,68,51.17,74.35,5.87,3.25,13.31,24.42,17.31,37.11,4,12.49-3.08,20.68-13.32,23.68-38.38,11.07-76.56,9.5-84.38,9.35A5.88,5.88,0,0,0,368.66,940.45Z"/><rect class="cls-9" y="500" width="500" height="500"/></g><g id="t02"><path class="cls-1" d="M703.92,601.45c3-2.71,1.68-1,16.28,3.45s14.8-6.65,17.76,1.48,4.48.48,17.76-.87,12.39,7.89,16.28-1.35c5.94-14.05,34.63-1.16,19-14.16-8.88-7.37-7.14.94-13.06-1.37-15.61-6.09-.13-11.1-6.71-13.3a22.91,22.91,0,0,1-2.38-1.45c-8.25-3.94-.2,11.29-13.11,7.35-13.32-4.06,2.35-11.52-8.74-10.23-5.29.62,5.78,12.9-7.54,7.45s-6-5-10.46-6.45c-17-5.56-2.83,9.35-14.67,10.7s1-11.86-5.92-12.37c-8.06-.6,4.41,12.18-3,16.24S689.48,574.23,688,581s8.5,10.66-6.27,13.55c-16.88,3.3-2.87,8.16,1.94,4.63,19.21-14.12,6.94,10.17,6.94,10.17C689.74,613.73,701,604.16,703.92,601.45Z"/><path class="cls-2" d="M760.77,610.4c1.43-10.12,5.71-3.38,8.57-15.18s-4.29,1.69-8.57,1.69,1.44-6.75-4.28-6.75-15.72,10.12-11.43,1.69-4.29-11.8-7.14-8.43-10,0-12.85-5.06-1.43,5.06-2.86,13.49-14.28-16.86-14.28-5.06-7.15,1.68-11.43,3.37,10,15.18,10,15.18S759.34,620.52,760.77,610.4Z"/><path class="cls-3" d="M808.82,602.51c.77.94,3.11,1.32,4.11-1.32,3.5-9-11.31-10.57-11.31-10.57C806.76,595.91,806.69,599.93,808.82,602.51Z"/><path class="cls-3" d="M790.07,572.57a3.88,3.88,0,0,0,.66-5.1c-4.78-7.34-11.44,8.66-11.44,8.66C784.81,572.37,787.51,574,790.07,572.57Z"/><path class="cls-3" d="M686,566.44c-1.13-.34-3-2.8-2.13-5.56,2.83-9.42,14.23,6.84,14.23,6.84C691.36,564.88,689,567.36,686,566.44Z"/><path class="cls-3" d="M674.58,613.34a3.13,3.13,0,0,1-3.78-.93c-4-5,9-5.07,9-5.07C675.76,609.91,676.23,612.07,674.58,613.34Z"/><path class="cls-4" d="M744.45,862.69a421,421,0,0,1,126.42-5.2c-.79-.5,39.59-29,30.74-43.23-9.81-14.5-11.13-22.83-16.65-33.85s-1.81-48.29-15.21-62.29c-23.27-24.17-40.8-43.91-47.2-60s-15-38.07-29-52-30.22-3.57-30.2-3.6S751,599.1,749,599.22s-.07-.12-8,2.44-12.19-1.25-32.93-2.94c-21-1.54-32.37,18.39-32.86,26.39-1.07,8.08-11.52,55.81-16.44,65-5.65,9.16-15.23,35.75-15.07,35.75A612.68,612.68,0,0,1,744.45,862.69Z"/><path class="cls-1" d="M697.29,621c-3.94,16.24-11.24,30.85-13.65,45.85-4,24.86-3.12,24.71-8.11,42.47S669.33,736.57,670,749s-5.65,37.6-5.65,37.6l-8.59,42.24-31.31,41.41s7.94-28.44,14.46-47.48,6.92-33,6.39-37.24.83-17.72,8.83-42.12,11.7-40.74,12.55-48.4,4-27.35,17.55-61.15c6-14.81,2.93-14.24,4.74-19.81,3.52-10.8,13.46-21.07,12.6-13.71A207.38,207.38,0,0,1,697.29,621Z"/><path class="cls-5" d="M543.3,895.71c13.84-11.93,20-19,22.84-22.8a16.26,16.26,0,0,0,2.75-6.54c1.55-8.1,7-32.49,18-46.77,13.21-17.13,35.74-35.31,43.6-62.79,9.25-32.35,21.14-49.47,23.78-55.18s6.61-11.41,19.82-5.71,13.21,0,23.78-3.81S723,734,732.22,762.51s25.11,47.57,30.39,49.47,14.53,22.78,13.87,23.78c-.48.73,5.68,3.17,8.52,4.24a10.93,10.93,0,0,1,2.7,1.52c8.61,6.43,15.24,8.15,19,8.54a9.42,9.42,0,0,0,6.5-1.82c4.94-3.55,15.19-13.39,24.74-38.16,13.21-34.24,22.46-13.32,23.78-9.51s4,13.32,13.21,5.71c4.89-4,7.94-5.39,9.72-5.78a10.34,10.34,0,0,0,4.14-1.84c5.07-3.88,6.9,3.67,9.26,10.47,2.65,7.59,41,60.88,52.85,66.59,6.9,3.31,13.36,18.8,17.56,31.22,2.9,8.56-1,18.37-8.21,20.37C917,939.22,872.83,938.65,867,938.52a8.89,8.89,0,0,1-1.28-.12C754,919.58,758,944.21,721,938.51S654,924,621,924c-21.84,0-70.14,5.38-84-.82-7.2-3.22-8.52-15.46-2.26-21C537.46,899.78,540.25,898.36,543.3,895.71Z"/><path class="cls-6" d="M810.23,727.45c-4.31,3.19-32.66-4-35.07-22-2.4-18.25,20.13-19.52,28.6-21.52C824.46,679,814.54,724.26,810.23,727.45Z"/><path class="cls-6" d="M788.05,650.43c-1.37.91-.78-5.48,5.27-13.82s7.89-6.23,9.11-6.13C805.41,630.73,789.42,649.52,788.05,650.43Z"/><path class="cls-6" d="M754.88,647.3c-3.39-1.28-15.08-10.74-9.47-12.28s17.51,5.78,22.51,8.46C780.23,650,758.27,648.58,754.88,647.3Z"/><path class="cls-1" d="M810.28,815.5c-20.27-7.84-7.25-35.17-13.56-40.87s-19-21-11-52.77c3.51-13.94-6.78-11.46-7-16.46-.45-9.61,23.12-23.17,29-17.66,4,3.71,7.28,10.36,9.85,16.73,5.53,13.54-3.09,28.25,6.43,39.9,15.8,19.35,24.8,18.37,22.5,33.91C844.6,791.12,822.39,820.18,810.28,815.5Z"/><path class="cls-7" d="M812,779.57c-11.07-3.47-16.28-37-16.86-51.4s-9.78-18.72-9.78-25.57c0-3,11.84,5.9,13.32,26.62.54,7.49,1.25,14.57,2.3,20.78,1.86,11,6.33,17.53,9.54,22.14C811.58,773.69,813.79,780.14,812,779.57Z"/><path class="cls-1" d="M807.89,630.95c1.12-1.25,2.89-.38,3.12,1.52,5.49,46-13,43.78-20.51,41.14a1.94,1.94,0,0,1-.36-3.12c3-2.51,7.48-7.85,7.31-17.38h0l10.22,13.33-3.41-19.09-4-5.18A46.78,46.78,0,0,1,807.89,630.95Z"/><path class="cls-1" d="M738.94,644.44c-1.37-.32-2.46,1.36-2,3,13.81,49.09,30.93,33.91,37,26.26.88-1.14.32-3-.91-3.14-3.91-.33-10.51-2.37-14.32-11.75h0l-4.33,19.8-4.6-20.7,1.72-7.72A36.29,36.29,0,0,0,738.94,644.44Z"/><path class="cls-8" d="M868.66,940.45c-16,7.29-77.43-5.56-87.7-11.43-13.32-7.61.93-36.38-5.92-62.79-4.44-17.08.49-36.08,7.72-41.08,7.51-5.23,23,8.65,27.9,13.37a3,3,0,0,0,3.56.57c4.92-2.7,17.86-12.32,28-42.62,12.77-38.24,21.72-14.87,23-10.62S869,800.72,878,792.22c5.86-5.61,9-6.61,10.44-6.61a3.21,3.21,0,0,0,2.22-1.15c5.49-5.93,7.33,2.94,9.73,10.94,2.56,8.49,39.66,68,51.17,74.35,5.87,3.25,13.31,24.42,17.31,37.11,4,12.49-3.08,20.68-13.32,23.68-38.38,11.07-76.56,9.5-84.38,9.35A5.88,5.88,0,0,0,868.66,940.45Z"/><rect class="cls-9" x="500" y="500" width="500" height="500"/></g><g id="t03"><path class="cls-1" d="M1203.92,601.45c3-2.71,1.68-1,16.28,3.45s14.8-6.65,17.76,1.48,4.48.48,17.76-.87,12.39,7.89,16.28-1.35c5.94-14.05,34.63-1.16,19-14.16-8.88-7.37-7.14.94-13.06-1.37C1261.51,582.22,1271,576,1270,575c-13.32-13.32-.94,10.29-14.26,6.23s.14-3.46-8.74-10.23,5.78,12.9-7.54,7.45S1234,574,1229,572c-16.61-6.64-2.83,9.35-14.67,10.7s.08-17.79-5.92-12.37,4.41,12.18-3,16.24S1189.48,574.23,1188,581s8.53,16.26-6.27,13.55-10.73,9.45-5.92,5.92c19.21-14.12,14.8,8.88,14.8,8.88C1189.74,613.73,1201,604.16,1203.92,601.45Z"/><path class="cls-2" d="M1260.77,610.4c1.43-10.12,5.71-3.38,8.57-15.18s-4.29,1.69-8.57,1.69,1.44-6.75-4.28-6.75-15.72,10.12-11.43,1.69-4.29-11.8-7.14-8.43-10,0-12.85-5.06-1.43,5.06-2.86,13.49-14.28-16.86-14.28-5.06-7.15,1.68-11.43,3.37,10,15.18,10,15.18S1259.34,620.52,1260.77,610.4Z"/><path class="cls-3" d="M1305.86,608.81c.77.94,3.11,1.32,4.11-1.32,3.5-9-11.31-10.57-11.31-10.57C1303.8,602.21,1303.73,606.23,1305.86,608.81Z"/><path class="cls-3" d="M1290.31,564.57a3.88,3.88,0,0,0,.66-5.1c-4.78-7.34-11.44,8.66-11.44,8.66C1285,564.37,1287.75,566,1290.31,564.57Z"/><path class="cls-3" d="M1193.23,569.56c-1.13-.34-3-2.8-2.13-5.56,2.83-9.42,14.23,6.84,14.23,6.84C1198.58,568,1196.26,570.48,1193.23,569.56Z"/><path class="cls-3" d="M1174.58,613.34a3.13,3.13,0,0,1-3.78-.93c-4-5,9-5.07,9-5.07C1175.76,609.91,1176.23,612.07,1174.58,613.34Z"/><path class="cls-4" d="M1244.45,862.69a421,421,0,0,1,126.42-5.2c-.79-.5,39.59-29,30.74-43.23-9.81-14.5-11.13-22.83-16.65-33.85s-1.81-48.29-15.21-62.29c-23.27-24.17-40.8-43.91-47.2-60s-15-38.07-29-52-30.22-3.57-30.2-3.6-12.32-3.42-14.32-3.3-.07-.12-8,2.44-12.19-1.25-32.93-2.94c-21-1.54-32.37,18.39-32.86,26.39-1.07,8.08-11.52,55.81-16.44,65-5.65,9.16-15.23,35.75-15.07,35.75A612.68,612.68,0,0,1,1244.45,862.69Z"/><path class="cls-1" d="M1197.29,621c-3.94,16.24-11.24,30.85-13.65,45.85-4,24.86-3.12,24.71-8.11,42.47s-6.2,27.24-5.53,39.67-5.65,37.6-5.65,37.6l-8.59,42.24-31.31,41.41s7.94-28.44,14.46-47.48,6.92-33,6.39-37.24.83-17.72,8.83-42.12,11.7-40.74,12.55-48.4,4-27.35,17.55-61.15c6-14.81,2.93-14.24,4.74-19.81,3.52-10.8,13.46-21.07,12.6-13.71A207.38,207.38,0,0,1,1197.29,621Z"/><path class="cls-5" d="M1043.3,895.71c13.84-11.93,20-19,22.84-22.8a16.26,16.26,0,0,0,2.75-6.54c1.55-8.1,7-32.49,18-46.77,13.21-17.13,35.74-35.31,43.6-62.79,9.25-32.35,21.14-49.47,23.78-55.18s6.61-11.41,19.82-5.71,13.21,0,23.78-3.81,25.1,41.86,34.35,70.4,25.11,47.57,30.39,49.47,14.53,22.78,13.87,23.78c-.48.73,5.68,3.17,8.52,4.24a10.93,10.93,0,0,1,2.7,1.52c8.61,6.43,15.24,8.15,19,8.54a9.42,9.42,0,0,0,6.5-1.82c4.94-3.55,15.19-13.39,24.74-38.16,13.21-34.24,22.46-13.32,23.78-9.51s4,13.32,13.21,5.71c4.89-4,7.94-5.39,9.72-5.78a10.34,10.34,0,0,0,4.14-1.84c5.07-3.88,6.9,3.67,9.26,10.47,2.65,7.59,41,60.88,52.85,66.59,6.9,3.31,13.36,18.8,17.56,31.22,2.9,8.56-1,18.37-8.21,20.37-43.25,11.91-87.42,11.34-93.25,11.21a8.89,8.89,0,0,1-1.28-.12c-111.7-18.82-107.7,5.81-144.7.11S1154,924,1121,924c-21.84,0-70.14,5.38-84-.82-7.2-3.22-8.52-15.46-2.26-21C1037.46,899.78,1040.25,898.36,1043.3,895.71Z"/><path class="cls-6" d="M1310.23,727.45c-4.31,3.19-32.66-4-35.07-22-2.4-18.25,20.13-19.52,28.6-21.52C1324.46,679,1314.54,724.26,1310.23,727.45Z"/><path class="cls-6" d="M1288.05,650.43c-1.37.91-.78-5.48,5.27-13.82s7.89-6.23,9.11-6.13C1305.41,630.73,1289.42,649.52,1288.05,650.43Z"/><path class="cls-6" d="M1254.88,647.3c-3.39-1.28-15.08-10.74-9.47-12.28s17.51,5.78,22.51,8.46C1280.23,650,1258.27,648.58,1254.88,647.3Z"/><path class="cls-1" d="M1295.12,782.91c-12.56-8.37-17.4-29.28-9.4-61,3.51-13.94-6.78-11.46-7-16.46-.45-9.61,23.12-23.17,29-17.66,4,3.71,7.28,10.36,9.85,16.73,5.53,13.54-12.23,34.41,4.07,53.22C1340.61,779.58,1309,792.13,1295.12,782.91Z"/><path class="cls-7" d="M1296.33,761.52c-8.44-6.44-2.94-20.2-3.32-34.59s-4.49-18.73-4.49-25.58c0-3,7.83-3,8.78,17.76.35,7.49,2.47,10.73,1.2,16.86C1295.7,749.56,1297.93,762.74,1296.33,761.52Z"/><path class="cls-1" d="M1307.89,630.95c1.12-1.25,2.89-.38,3.12,1.52,5.49,46-13,43.78-20.51,41.14a1.94,1.94,0,0,1-.36-3.12c3-2.51,7.48-7.85,7.31-17.38h0l10.22,13.33-3.41-19.09-4-5.18A46.78,46.78,0,0,1,1307.89,630.95Z"/><path class="cls-1" d="M1238.94,644.44c-1.37-.32-2.46,1.36-2,3,13.81,49.09,30.93,33.91,37,26.26.88-1.14.32-3-.91-3.14-3.91-.33-10.51-2.37-14.32-11.75h0l-4.33,19.8-4.6-20.7,1.72-7.72A36.29,36.29,0,0,0,1238.94,644.44Z"/><path class="cls-8" d="M1368.66,940.45c-16,7.29-77.43-5.56-87.7-11.43-13.32-7.61.93-36.38-5.92-62.79-4.44-17.08.49-36.08,7.72-41.08,7.51-5.23,23,8.65,27.9,13.37a3,3,0,0,0,3.56.57c4.92-2.7,17.86-12.32,28-42.62,12.77-38.24,21.72-14.87,23-10.62s3.79,14.87,12.79,6.37c5.86-5.61,9-6.61,10.44-6.61a3.21,3.21,0,0,0,2.22-1.15c5.49-5.93,7.33,2.94,9.73,10.94,2.56,8.49,39.66,68,51.17,74.35,5.87,3.25,13.31,24.42,17.31,37.11,4,12.49-3.08,20.68-13.32,23.68-38.38,11.07-76.56,9.5-84.38,9.35A5.88,5.88,0,0,0,1368.66,940.45Z"/><rect class="cls-9" x="1000" y="500" width="500" height="500"/></g><g id="t04"><path class="cls-1" d="M1703.92,601.45c3-2.71,1.68-1,16.28,3.45s14.8-6.65,17.76,1.48,4.48.48,17.76-.87,12.39,7.89,16.28-1.35c5.94-14.05,34.63-1.16,19-14.16-8.88-7.37-7.14.94-13.06-1.37C1761.51,582.22,1771,576,1770,575c-13.32-13.32-.94,10.29-14.26,6.23s.14-3.46-8.74-10.23,5.78,12.9-7.54,7.45S1734,574,1729,572c-16.61-6.64-2.83,9.35-14.67,10.7s.08-17.79-5.92-12.37,4.41,12.18-3,16.24S1689.48,574.23,1688,581s8.53,16.26-6.27,13.55-10.73,9.45-5.92,5.92c19.21-14.12,14.8,8.88,14.8,8.88C1689.74,613.73,1701,604.16,1703.92,601.45Z"/><path class="cls-2" d="M1760.77,610.4c1.43-10.12,5.71-3.38,8.57-15.18s-4.29,1.69-8.57,1.69,1.44-6.75-4.28-6.75-15.72,10.12-11.43,1.69-4.29-11.8-7.14-8.43-10,0-12.85-5.06-1.43,5.06-2.86,13.49-14.28-16.86-14.28-5.06-7.15,1.68-11.43,3.37,10,15.18,10,15.18S1759.34,620.52,1760.77,610.4Z"/><path class="cls-3" d="M1805.86,608.81c.77.94,3.11,1.32,4.11-1.32,3.5-9-11.31-10.57-11.31-10.57C1803.8,602.21,1803.73,606.23,1805.86,608.81Z"/><path class="cls-3" d="M1790.31,564.57a3.88,3.88,0,0,0,.66-5.1c-4.78-7.34-11.44,8.66-11.44,8.66C1785,564.37,1787.75,566,1790.31,564.57Z"/><path class="cls-3" d="M1693.23,569.56c-1.13-.34-3-2.8-2.13-5.56,2.83-9.42,14.23,6.84,14.23,6.84C1698.58,568,1696.26,570.48,1693.23,569.56Z"/><path class="cls-3" d="M1674.58,613.34a3.13,3.13,0,0,1-3.78-.93c-4-5,9-5.07,9-5.07C1675.76,609.91,1676.23,612.07,1674.58,613.34Z"/><path class="cls-4" d="M1744.45,862.69a421,421,0,0,1,126.42-5.2c-.79-.5,39.59-29,30.74-43.23-9.81-14.5-11.13-22.83-16.65-33.85s-1.81-48.29-15.21-62.29c-23.27-24.17-40.8-43.91-47.2-60s-15-38.07-29-52-30.22-3.57-30.2-3.6-12.32-3.42-14.32-3.3-.07-.12-8,2.44-12.19-1.25-32.93-2.94c-21-1.54-32.37,18.39-32.86,26.39-1.07,8.08-11.52,55.81-16.44,65-5.65,9.16-15.23,35.75-15.07,35.75A612.68,612.68,0,0,1,1744.45,862.69Z"/><path class="cls-1" d="M1697.29,621c-3.94,16.24-11.24,30.85-13.65,45.85-4,24.86-3.12,24.71-8.11,42.47s-6.2,27.24-5.53,39.67-5.65,37.6-5.65,37.6l-8.59,42.24-31.31,41.41s7.94-28.44,14.46-47.48,6.92-33,6.39-37.24.83-17.72,8.83-42.12,11.7-40.74,12.55-48.4,4-27.35,17.55-61.15c6-14.81,2.93-14.24,4.74-19.81,3.52-10.8,13.46-21.07,12.6-13.71A207.38,207.38,0,0,1,1697.29,621Z"/><path class="cls-5" d="M1543.3,895.71c13.84-11.93,20-19,22.84-22.8a16.26,16.26,0,0,0,2.75-6.54c1.35-7.07,12.71-20.84,16.75-38.7,1.41-6.22,6-10.95,8.54-16.79,14-31.87,29.76-31.19,36.3-54.07,9.25-32.35,21.14-49.47,23.78-55.18s6.61-11.41,19.82-5.71,13.21,0,23.78-3.81,25.1,41.86,34.35,70.4,25.11,47.57,30.39,49.47,14.53,22.78,13.87,23.78c-.48.73,5.68,3.17,8.52,4.24a10.93,10.93,0,0,1,2.7,1.52c8.61,6.43,15.24,8.15,19,8.54a9.42,9.42,0,0,0,6.5-1.82c4.94-3.55,15.19-13.39,24.74-38.16,13.21-34.24,22.46-13.32,23.78-9.51s4,13.32,13.21,5.71c4.89-4,7.94-5.39,9.72-5.78a10.34,10.34,0,0,0,4.14-1.84c5.07-3.88,6.9,3.67,9.26,10.47,2.65,7.59,41,60.88,52.85,66.59,6.9,3.31,13.36,18.8,17.56,31.22,2.9,8.56-1,18.37-8.21,20.37-43.25,11.91-87.42,11.34-93.25,11.21a8.89,8.89,0,0,1-1.28-.12c-111.7-18.82-95.72-11-144.7.11-36.52,8.25-67-14.51-100-14.51-21.84,0-70.14,5.38-84-.82-7.2-3.22-8.52-15.46-2.26-21C1537.46,899.78,1540.25,898.36,1543.3,895.71Z"/><path class="cls-6" d="M1810.23,727.45c-4.31,3.19-32.66-4-35.07-22-2.4-18.25,20.13-19.52,28.6-21.52C1824.46,679,1814.54,724.26,1810.23,727.45Z"/><path class="cls-6" d="M1788.05,650.43c-1.37.91-.78-5.48,5.27-13.82s7.89-6.23,9.11-6.13C1805.41,630.73,1789.42,649.52,1788.05,650.43Z"/><path class="cls-6" d="M1754.88,647.3c-3.39-1.28-15.08-10.74-9.47-12.28s17.51,5.78,22.51,8.46C1780.23,650,1758.27,648.58,1754.88,647.3Z"/><path class="cls-1" d="M1797.43,754c-8.34-1.64-19.71-.35-11.71-32.12,3.51-13.94-6.78-11.46-7-16.46-.45-9.61,23.12-23.17,29-17.66,4,3.71,7.28,10.36,9.85,16.73,5.53,13.54,4.91,22.78,2.1,37.56C1818.35,749,1804.36,755.34,1797.43,754Z"/><path class="cls-7" d="M1795.24,746.29c-7,4-1.85-5-2.22-19.35s-4.49-18.73-4.49-25.58c0-3,7.83-3,8.78,17.76.35,7.49,1.79,10.63,1.2,16.86C1798.25,738.81,1797,745.29,1795.24,746.29Z"/><path class="cls-1" d="M1807.89,630.95c1.12-1.25,2.89-.38,3.12,1.52,5.49,46-13,43.78-20.51,41.14a1.94,1.94,0,0,1-.36-3.12c3-2.51,7.48-7.85,7.31-17.38h0l10.22,13.33-3.41-19.09-4-5.18A46.78,46.78,0,0,1,1807.89,630.95Z"/><path class="cls-1" d="M1738.94,644.44c-1.37-.32-2.46,1.36-2,3,13.81,49.09,30.93,33.91,37,26.26.88-1.14.32-3-.91-3.14-3.91-.33-10.51-2.37-14.32-11.75h0l-4.33,19.8-4.6-20.7,1.72-7.72A36.29,36.29,0,0,0,1738.94,644.44Z"/><path class="cls-8" d="M1868.66,940.45c-16,7.29-77.43-5.56-87.7-11.43-13.32-7.61.93-36.38-5.92-62.79-4.44-17.08.49-36.08,7.72-41.08,7.51-5.23,23,8.65,27.9,13.37a3,3,0,0,0,3.56.57c4.92-2.7,17.86-12.32,28-42.62,12.77-38.24,21.72-14.87,23-10.62s3.79,14.87,12.79,6.37c5.86-5.61,9-6.61,10.44-6.61a3.21,3.21,0,0,0,2.22-1.15c5.49-5.93,7.33,2.94,9.73,10.94,2.56,8.49,39.66,68,51.17,74.35,5.87,3.25,13.31,24.42,17.31,37.11,4,12.49-3.08,20.68-13.32,23.68-38.38,11.07-76.56,9.5-84.38,9.35A5.88,5.88,0,0,0,1868.66,940.45Z"/><rect class="cls-9" x="1500" y="500" width="500" height="500"/></g><g id="t05"><path class="cls-1" d="M2198.39,603.34c2.86-2.82,1.64-1.09,16.4,2.84s14.54-7.2,17.8.81,4.49.31,17.71-1.54,12.68,7.42,16.22-2c5.41-14.26,34.56-2.46,18.46-14.86-9.15-7-7.1,1.21-13.1-.88-16.66-5.79-7.41-12.36-8.45-13.32-13.81-12.81-.55,10.32-14,6.76s0-3.46-9.12-9.89S2246.56,584,2233,579s-5.62-4.24-10.69-6.05c-16.85-6-2.48,9.45-14.26,11.24s-.59-17.78-6.38-12.14,4.86,12-2.39,16.34-16.38-11.73-17.61-4.91,9.13,15.93-5.76,13.78-10.37,9.85-5.69,6.14c18.67-14.83,15.12,8.32,15.12,8.32C2184.69,616.14,2195.54,606.16,2198.39,603.34Z"/><path class="cls-2" d="M2255.54,610.15c1-10.17,5.58-3.59,8-15.49s-4.22,1.85-8.5,2,1.19-6.8-4.53-6.58-15.33,10.7-11.36,2.12-4.73-11.63-7.45-8.16-10,.37-13-4.57-1.24,5.11-2.35,13.59-14.9-16.31-14.46-4.52-7.08,1.95-11.3,3.8,10.56,14.79,10.56,14.79S2254.49,620.32,2255.54,610.15Z"/><path class="cls-3" d="M2300.54,606.87c.8.91,3.16,1.2,4.06-1.47,3.16-9.12-11.7-10.14-11.7-10.14C2298.23,600.35,2298.31,604.37,2300.54,606.87Z"/><path class="cls-3" d="M2283.34,563.25a3.88,3.88,0,0,0,.47-5.12c-5.05-7.16-11.11,9.08-11.11,9.08C2278.08,563.24,2280.84,564.77,2283.34,563.25Z"/><path class="cls-3" d="M2186.52,571.87c-1.14-.3-3.06-2.69-2.34-5.48,2.47-9.52,14.48,6.3,14.48,6.3C2191.8,570.12,2189.58,572.68,2186.52,571.87Z"/><path class="cls-3" d="M2169.52,616.32a3.13,3.13,0,0,1-3.81-.79c-4.19-4.86,8.8-5.4,8.8-5.4C2170.57,612.85,2171.12,615,2169.52,616.32Z"/><path class="cls-4" d="M2248.7,862.88a421,421,0,0,1,126.14-9.94c-.81-.47,38.47-30.49,29.1-44.35-10.35-14.12-12-22.4-17.91-33.2s-1.23-35.73-15.14-49.21c-24.16-23.28-44.81-54.81-51.81-70.65s-16.38-37.48-30.93-50.88-30.33-2.43-30.31-2.46-12.44-3-14.43-2.76-.07-.12-7.9,2.74-12.23-.79-33-1.7c-21-.75-31.66,19.59-31.85,27.6-.77,8.11-16.88,55.85-21.45,65.22-5.3,9.37-6.41,36.64-6.25,36.64A612.68,612.68,0,0,1,2248.7,862.88Z"/><path class="cls-1" d="M2192.5,623.14c-3.33,16.38-10.07,31.25-11.92,46.33-3.07,25-2.19,24.81-6.51,42.74s-5.17,27.45-4,39.85-4.24,37.79-4.24,37.79l-7,42.53-29.73,42.56s6.87-28.72,12.67-48,5.68-33.2,5-37.45.16-17.74,7.24-42.42,10.16-41.15,10.73-48.84,2.94-27.48,15.24-61.77c5.4-15,2.39-14.34,4-20,3.11-10.92,12.66-21.56,12.08-14.17A207.38,207.38,0,0,1,2192.5,623.14Z"/><path class="cls-5" d="M2048.93,903.42c13.38-12.44,19.31-19.72,22-23.64a16.26,16.26,0,0,0,2.5-6.64c1.24-8.15,5.78-32.73,16.23-47.41,12.56-17.61,34.39-36.63,41.21-64.38,8-32.67,7-51.82,8.07-58,3.7-21.08,19.8-9.67,33.22-4.47s13.2-.51,23.62-4.7,26.65,40.89,37,69.06,26.88,46.59,32.22,48.29,15.37,22.22,14.75,23.24c-.45.75,5.79,3,8.67,3.92a10.93,10.93,0,0,1,2.76,1.42c8.85,6.1,15.54,7.57,19.31,7.82a9.42,9.42,0,0,0,6.43-2.06c4.8-3.73,14.68-14,23.29-39.06,11.92-34.71,21.94-14.15,23.41-10.4s4.46,13.16,13.41,5.21c4.74-4.21,7.73-5.68,9.5-6.14a10.34,10.34,0,0,0,4.07-2c4.92-4.07,7,3.41,9.65,10.12,2.93,7.49,43.22,59.3,55.31,64.56,7,3,14.06,18.29,18.72,30.54,3.22,8.45-.35,18.4-7.44,20.66C2424,932.88,2379.84,934,2374,934.06a8.89,8.89,0,0,1-1.28-.07c-112.33-14.62-107.41,9.85-144.59,5.54s-67.5-12-100.47-10.75c-21.82.82-69.89,8-84,2.33-7.32-2.95-9.09-15.13-3-20.9C2043.24,907.71,2046,906.18,2048.93,903.42Z"/><path class="cls-6" d="M2309.36,725.26c-4.19,3.35-32.79-2.77-35.87-20.67-3.08-18.15,19.38-20.26,27.77-22.58C2321.76,676.31,2313.54,721.91,2309.36,725.26Z"/><path class="cls-6" d="M2284.3,649.13c-1.33,1-1-5.45,4.75-14s7.65-6.52,8.87-6.47C2300.91,628.79,2285.64,648.17,2284.3,649.13Z"/><path class="cls-6" d="M2251,647.25c-3.44-1.15-15.47-10.17-9.92-11.92s17.71,5.12,22.81,7.61C2276.47,649,2254.47,648.4,2251,647.25Z"/><path class="cls-1" d="M2303.4,628.92c1.07-1.29,2.87-.49,3.17,1.4,7.21,45.72-11.38,44.24-19,41.88a1.94,1.94,0,0,1-.48-3.1c2.91-2.62,7.18-8.13,6.65-17.64h0l10.71,12.94-4.12-18.95-4.19-5A46.78,46.78,0,0,1,2303.4,628.92Z"/><path class="cls-1" d="M2235,645c-1.38-.27-2.41,1.45-1.89,3.07,15.64,48.54,32.18,32.73,38,24.85.84-1.17.21-3-1-3.1-3.92-.18-10.59-2-14.75-11.2h0l-3.58,19.95L2246.34,658l1.43-7.78A36.29,36.29,0,0,0,2235,645Z"/><path class="cls-8" d="M2375.74,935.92c-15.75,7.89-77.58-2.65-88.07-8.13-13.6-7.1-.44-36.39-8.27-62.52-5.08-16.9-.86-36.07,6.17-41.34,7.31-5.51,23.31,7.78,28.38,12.31a3,3,0,0,0,3.58.44c4.82-2.88,17.39-13,26.38-43.64,11.33-38.69,21.15-15.67,22.59-11.48s4.35,14.72,13,5.89c5.65-5.83,8.73-6.94,10.18-7a3.21,3.21,0,0,0,2.18-1.23c5.26-6.13,7.44,2.66,10.13,10.57,2.88,8.39,42.18,66.44,53.92,72.38,6,3,14.22,23.9,18.69,36.43,4.43,12.33-2.3,20.78-12.42,24.16-37.94,12.5-76.15,12.37-84,12.51A5.88,5.88,0,0,0,2375.74,935.92Z"/><path class="cls-1" d="M2308.58,717.22c-1.26,3.7-16.73,7.05-25.82-2.57-9.19-9.78-2.74-18.48,1.42-23.27C2294.33,679.65,2318.05,689.35,2308.58,717.22Z"/><rect class="cls-9" x="2000" y="500" width="500" height="500"/></g><g id="t06"><path class="cls-1" d="M2696.52,604.07c2.82-2.86,1.63-1.11,16.43,2.63s14.45-7.39,17.81.59,4.5.25,17.69-1.76,12.77,7.26,16.19-2.17c5.23-14.33,34.53-2.9,18.26-15.1-9.24-6.91-7.08,1.3-13.11-.71-16.73-5.58-4.55-18.06-5.6-19-14-12.63-3.44,16.12-16.94,12.74s5.36-3.89-3.85-10.21,1,13-12.55,8.25-5.68-4.17-10.77-5.92c-16.92-5.8-2.36,9.48-14.11,11.42s-3.34-12.82-11.28-11.27,9.77,11.16,2.57,15.59-14.16-6.42-15.29.42,7,10.7-8,8.74-6.22,10.41-1.6,6.65c18.48-15.07,11.21,7.69,11.21,7.69C2683,617,2693.7,606.92,2696.52,604.07Z"/><path class="cls-2" d="M2753.75,610.15c.92-10.18,5.53-3.66,7.8-15.59s-4.2,1.9-8.47,2.12,1.1-6.81-4.61-6.53-15.19,10.9-11.33,2.26-4.88-11.57-7.55-8.06-8,5.52-11.14.61-3.12.1-4.12,8.6-15.11-16.12-14.52-4.34-7.06,2-11.25,3.94,10.75,14.66,10.75,14.66S2752.83,620.33,2753.75,610.15Z"/><path class="cls-3" d="M2799.61,606.39c.66.73,2.56.94,3.25-1.23,2.45-7.38-9.53-8-9.53-8C2797.69,601.16,2797.79,604.4,2799.61,606.39Z"/><path class="cls-3" d="M2785.23,561.62a2.66,2.66,0,0,0,.28-3.52c-3.53-4.86-7.54,6.33-7.54,6.33C2781.62,561.66,2783.53,562.68,2785.23,561.62Z"/><path class="cls-3" d="M2680.21,568.39a3.53,3.53,0,0,1-1.79-4c1.75-7.1,10.82,4.55,10.82,4.55C2684.12,567,2682.49,569,2680.21,568.39Z"/><path class="cls-3" d="M2667.81,617.42a3.13,3.13,0,0,1-3.82-.74c-4.25-4.8,8.73-5.52,8.73-5.52C2668.82,613.93,2669.4,616.07,2667.81,617.42Z"/><path class="cls-4" d="M2750.12,862.94a421,421,0,0,1,126-11.54c-.81-.46,38.08-31,28.53-44.72-10.53-14-12.26-22.24-18.33-33s-7.13-52.29-21.21-65.6c-24.45-23-31.42-36.86-38.62-52.61s-25.5-38.07-40.22-51.28-30.36-2-30.34-2.08-12.48-2.8-14.47-2.58-.08-.12-7.87,2.84-12.24-.64-33-1.28c-21-.48-31.41,20-31.49,28-.66,8.12-8.7,56.32-13.15,65.74-5.18,9.43-13.41,36.47-13.25,36.46A612.68,612.68,0,0,1,2750.12,862.94Z"/><path class="cls-1" d="M2690.88,623.94c-3.12,16.42-9.68,31.38-11.33,46.48-2.76,25-1.87,24.84-6,42.82s-4.82,27.52-3.53,39.9S2666.3,791,2666.3,791l-6.46,42.62-29.19,42.93s6.5-28.8,12.06-48.15,5.26-33.27,4.51-37.51-.06-17.74,6.7-42.51,9.64-41.28,10.1-49,2.59-27.51,14.46-62c5.21-15.09,2.21-14.37,3.74-20,3-11,12.38-21.72,11.9-14.33A207.38,207.38,0,0,1,2690.88,623.94Z"/><path class="cls-5" d="M2550.89,906c13.22-12.61,19.06-20,21.67-23.92a16.26,16.26,0,0,0,2.42-6.67c1.14-8.17-3-36.35,7.32-51.16,12.33-17.77,29.52-30.16,36-58,7.61-32.77,31.34-53.82,33.69-59.66s6-11.73,19.51-6.7,13.19-.67,23.56-5,27.17,40.55,37.84,68.59,27.47,46.25,32.84,47.88,15.66,22,15,23.05c-.44.75,5.83,2.88,8.72,3.81a10.93,10.93,0,0,1,2.77,1.38c8.92,6,15.63,7.37,19.41,7.57a9.42,9.42,0,0,0,6.4-2.14c4.76-3.79,14.5-14.14,22.79-39.35,11.47-34.86,21.76-14.43,23.27-10.69s4.62,13.1,13.48,5c4.68-4.27,7.66-5.78,9.42-6.26a10.34,10.34,0,0,0,4-2c4.87-4.13,7.08,3.32,9.77,10,3,7.45,44,58.75,56.13,63.85,7.06,3,14.29,18.11,19.11,30.3,3.33,8.4-.12,18.4-7.18,20.76-42.6,14.07-86.74,15.72-92.57,15.88a8.89,8.89,0,0,1-1.28-.06c-112.5-13.18-107.27,11.21-144.51,7.38s-67.64-11.13-100.6-9.47c-21.81,1.1-69.78,8.9-83.94,3.4-7.35-2.85-9.29-15-3.31-20.86C2545.26,910.38,2548,908.82,2550.89,906Z"/><path class="cls-6" d="M2814.35,730c-5.6,4.32-44.2-2.83-48.59-25.37-4.39-22.86,25.85-26,37.12-29.08C2830.43,667.91,2820,725.66,2814.35,730Z"/><path class="cls-6" d="M2779.25,641.73c-1.53.6.41-5.52,8.1-12.38s9-4.4,10.21-4C2800.41,626.19,2780.78,641.14,2779.25,641.73Z"/><path class="cls-6" d="M2748.14,641.68c-3.56-.69-16.68-8-11.41-10.5s18.24,2.74,23.62,4.53C2773.58,640,2751.69,642.36,2748.14,641.68Z"/><path class="cls-1" d="M2801.84,628.31c1.06-1.3,2.87-.52,3.19,1.36,7.79,45.63-10.81,44.38-18.42,42.12a1.94,1.94,0,0,1-.52-3.1c2.88-2.66,7.08-8.22,6.43-17.73h0l10.88,12.8L2799,644.87l-4.26-5A46.78,46.78,0,0,1,2801.84,628.31Z"/><path class="cls-1" d="M2733.66,645.24c-1.38-.25-2.39,1.48-1.85,3.1,16.26,48.33,32.59,32.31,38.27,24.37.82-1.18.17-3.05-1.07-3.09-3.92-.13-10.62-1.84-14.89-11h0l-3.33,20-5.63-20.44,1.33-7.8A36.29,36.29,0,0,0,2733.66,645.24Z"/><path class="cls-8" d="M2878.08,934.36c-15.64,8.09-77.61-1.66-88.16-7-13.69-6.93-.9-36.38-9.07-62.41-5.29-16.84-1.32-36.06,5.65-41.42,7.24-5.6,23.41,7.48,28.54,12a3,3,0,0,0,3.58.39c4.78-2.94,17.22-13.2,25.82-44,10.83-38.83,20.95-15.94,22.44-11.76s4.53,14.66,13.09,5.72c5.57-5.9,8.64-7.05,10.09-7.13a3.21,3.21,0,0,0,2.16-1.26c5.19-6.2,7.47,2.57,10.27,10.44,3,8.35,43,65.9,54.84,71.69,6,3,14.52,23.72,19.15,36.19,4.58,12.28-2,20.81-12.11,24.32-37.78,13-76,13.33-83.8,13.58A5.88,5.88,0,0,0,2878.08,934.36Z"/><path class="cls-1" d="M2811.53,719.68c-1.52,4.68-20.93,9.14-32.52-2.82-11.72-12.15-3.74-23.21,1.41-29.3C2793,672.64,2823,684.46,2811.53,719.68Z"/><rect class="cls-9" x="2500" y="500" width="500" height="500"/></g><g id="t07"><path class="cls-1" d="M3203.92,601.45c3-2.71,1.68-1,16.28,3.45s14.8-6.65,17.76,1.48,4.48.48,17.76-.87,12.39,7.89,16.28-1.35c5.94-14.05,34.63-1.16,19-14.16-8.88-7.37-7.14.94-13.06-1.37C3261.51,582.22,3271,576,3270,575c-13.32-13.32-.94,10.29-14.26,6.23s.14-3.46-8.74-10.23,5.78,12.9-7.54,7.45S3234,574,3229,572c-16.61-6.64-2.83,9.35-14.67,10.7s.08-17.79-5.92-12.37,4.41,12.18-3,16.24S3189.48,574.23,3188,581s8.53,16.26-6.27,13.55-10.73,9.45-5.92,5.92c19.21-14.12,14.8,8.88,14.8,8.88C3189.74,613.73,3201,604.16,3203.92,601.45Z"/><path class="cls-2" d="M3260.77,610.4c1.43-10.12,5.71-3.38,8.57-15.18s-4.29,1.69-8.57,1.69,1.44-6.75-4.28-6.75-15.72,10.12-11.43,1.69-4.29-11.8-7.14-8.43-10,0-12.85-5.06-1.43,5.06-2.86,13.49-14.28-16.86-14.28-5.06-7.15,1.68-11.43,3.37,10,15.18,10,15.18S3259.34,620.52,3260.77,610.4Z"/><path class="cls-3" d="M3305.86,608.81c.77.94,3.11,1.32,4.11-1.32,3.5-9-11.31-10.57-11.31-10.57C3303.8,602.21,3303.73,606.23,3305.86,608.81Z"/><path class="cls-3" d="M3290.31,564.57a3.88,3.88,0,0,0,.66-5.1c-4.78-7.34-11.44,8.66-11.44,8.66C3285,564.37,3287.75,566,3290.31,564.57Z"/><path class="cls-3" d="M3193.23,569.56c-1.13-.34-3-2.8-2.13-5.56,2.83-9.42,14.23,6.84,14.23,6.84C3198.58,568,3196.26,570.48,3193.23,569.56Z"/><path class="cls-3" d="M3174.58,613.34a3.13,3.13,0,0,1-3.78-.93c-4-5,9-5.07,9-5.07C3175.76,609.91,3176.23,612.07,3174.58,613.34Z"/><path class="cls-4" d="M3244.45,862.69a421,421,0,0,1,126.42-5.2c-.79-.5,39.59-29,30.74-43.23-9.81-14.5-11.13-22.83-16.65-33.85s-11.51-43.69-24.91-57.69c-23.27-24.17-31.1-48.51-37.5-64.6s-15-38.07-29-52-30.22-3.57-30.2-3.6-12.32-3.42-14.32-3.3-.07-.12-8,2.44-12.19-1.25-32.93-2.94c-21-1.54-32.37,18.39-32.86,26.39-1.07,8.08-11.52,55.81-16.44,65-5.65,9.16-15.23,35.75-15.07,35.75A612.68,612.68,0,0,1,3244.45,862.69Z"/><path class="cls-1" d="M3197.29,621c-3.94,16.24-11.24,30.85-13.65,45.85-4,24.86-3.12,24.71-8.11,42.47s-6.2,27.24-5.53,39.67-5.65,37.6-5.65,37.6l-8.59,42.24-31.31,41.41s7.94-28.44,14.46-47.48,6.92-33,6.39-37.24.83-17.72,8.83-42.12,11.7-40.74,12.55-48.4,4-27.35,17.55-61.15c6-14.81,2.93-14.24,4.74-19.81,3.52-10.8,13.46-21.07,12.6-13.71A207.38,207.38,0,0,1,3197.29,621Z"/><path class="cls-5" d="M3043.3,895.71c13.84-11.93,20-19,22.84-22.8a16.26,16.26,0,0,0,2.75-6.54c1.55-8.1-1.12-36.45,9.88-50.73,13.21-17.13,31-28.64,38.86-56.12,9.25-32.35,34-52.18,36.64-57.89s6.61-11.41,19.82-5.71,13.21,0,23.78-3.81,25.1,41.86,34.35,70.4,25.11,47.57,30.39,49.47,14.53,22.78,13.87,23.78c-.48.73,5.68,3.17,8.52,4.24a10.93,10.93,0,0,1,2.7,1.52c8.61,6.43,15.24,8.15,19,8.54a9.42,9.42,0,0,0,6.5-1.82c4.94-3.55,15.19-13.39,24.74-38.16,13.21-34.24,22.46-13.32,23.78-9.51s4,13.32,13.21,5.71c4.89-4,7.94-5.39,9.72-5.78a10.34,10.34,0,0,0,4.14-1.84c5.07-3.88,6.9,3.67,9.26,10.47,2.65,7.59,41,60.88,52.85,66.59,6.9,3.31,13.36,18.8,17.56,31.22,2.9,8.56-1,18.37-8.21,20.37-43.25,11.91-87.42,11.34-93.25,11.21a8.89,8.89,0,0,1-1.28-.12c-111.7-18.82-107.7,5.81-144.7.11S3154,924,3121,924c-21.84,0-70.14,5.38-84-.82-7.2-3.22-8.52-15.46-2.26-21C3037.46,899.78,3040.25,898.36,3043.3,895.71Z"/><path class="cls-6" d="M3317.85,736.71c-6.57,4.56-49.79-5.72-53.46-31.44-3.66-26.08,30.69-27.89,43.6-30.75C3339.54,667.48,3324.42,732.15,3317.85,736.71Z"/><path class="cls-6" d="M3287.66,645.83c-1.31,1-1.1-5.42,4.44-14.11s7.51-6.69,8.73-6.66C3303.82,625.13,3289,644.84,3287.66,645.83Z"/><path class="cls-6" d="M3251.4,640.26c-2.89-2.18-11.46-14.54-5.64-14.44s15.18,10.46,19.23,14.44C3275,650,3254.29,642.44,3251.4,640.26Z"/><path class="cls-1" d="M3314.33,634.29c1.46-.83,2.86.55,2.48,2.42-9.26,45.35-26.15,37.45-32.42,32.59a1.94,1.94,0,0,1,.64-3.07c3.65-1.43,9.57-5.1,12.41-14.19h0l5.5,15.87,2.77-19.19-2.17-6.18A46.78,46.78,0,0,1,3314.33,634.29Z"/><path class="cls-1" d="M3235,648.85c-1.41,0-2.07,1.9-1.24,3.38,24.89,44.51,38,25.75,42.11,16.9.59-1.31-.4-3-1.62-2.84-3.88.59-10.77.15-16.67-8.08h0l.41,20.26-9.3-19.05-.13-7.91A36.29,36.29,0,0,0,3235,648.85Z"/><path class="cls-8" d="M3368.66,940.45c-16,7.29-77.43-5.56-87.7-11.43-13.32-7.61.93-36.38-5.92-62.79-4.44-17.08.49-36.08,7.72-41.08,7.51-5.23,23,8.65,27.9,13.37a3,3,0,0,0,3.56.57c4.92-2.7,17.86-12.32,28-42.62,12.77-38.24,21.72-14.87,23-10.62s3.79,14.87,12.79,6.37c5.86-5.61,9-6.61,10.44-6.61a3.21,3.21,0,0,0,2.22-1.15c5.49-5.93,7.33,2.94,9.73,10.94,2.56,8.49,39.66,68,51.17,74.35,5.87,3.25,13.31,24.42,17.31,37.11,4,12.49-3.08,20.68-13.32,23.68-38.38,11.07-76.56,9.5-84.38,9.35A5.88,5.88,0,0,0,3368.66,940.45Z"/><path class="cls-1" d="M3315.25,724.9c-2,5.2-24.18,9.14-36.59-5-12.55-14.4-2.91-26.44,3.26-33C3297,670.7,3330.21,685.76,3315.25,724.9Z"/><rect class="cls-9" x="3000" y="500" width="500" height="500"/></g></g><g id="Lag1"><g id="t01-2" data-name="t01"><path class="cls-1" d="M203.92,101.45c3-2.71,1.68-1,16.28,3.45S235,98.25,238,106.38s4.48.48,17.76-.87,12.39,7.89,16.28-1.35C277.94,90.11,306.63,103,291,90c-8.88-7.37-7.14.94-13.06-1.37C261.51,82.22,271,76,270,75c-13.32-13.32-.94,10.29-14.26,6.23S255.88,77.77,247,71s5.78,12.9-7.54,7.45S234,74,229,72c-16.61-6.64-2.83,9.35-14.67,10.7s.08-17.79-5.92-12.37,4.41,12.18-3,16.24S189.48,74.23,188,81s8.53,16.26-6.27,13.55S171,104,175.81,100.47c19.21-14.12,14.8,8.88,14.8,8.88C189.74,113.73,201,104.16,203.92,101.45Z"/><path class="cls-2" d="M260.77,110.4c1.43-10.12,5.71-3.38,8.57-15.18s-4.29,1.69-8.57,1.69,1.44-6.75-4.28-6.75-15.72,10.12-11.43,1.69-4.29-11.8-7.14-8.43-10,0-12.85-5.06-1.43,5.06-2.86,13.49S207.93,75,207.93,86.79s-7.15,1.68-11.43,3.37,10,15.18,10,15.18S259.34,120.52,260.77,110.4Z"/><path class="cls-3" d="M305.86,108.81c.77.94,3.11,1.32,4.11-1.32,3.5-9-11.31-10.57-11.31-10.57C303.8,102.21,303.73,106.23,305.86,108.81Z"/><path class="cls-3" d="M290.31,64.57a3.88,3.88,0,0,0,.66-5.1c-4.78-7.34-11.44,8.66-11.44,8.66C285,64.37,287.75,66,290.31,64.57Z"/><path class="cls-3" d="M193.23,69.56c-1.13-.34-3-2.8-2.13-5.56,2.83-9.42,14.23,6.84,14.23,6.84C198.58,68,196.26,70.48,193.23,69.56Z"/><path class="cls-3" d="M174.58,113.34a3.13,3.13,0,0,1-3.78-.93c-4-5,9-5.07,9-5.07C175.76,109.91,176.23,112.07,174.58,113.34Z"/><path class="cls-4" d="M244.45,362.69a421,421,0,0,1,126.42-5.2c-.79-.5,39.59-29,30.74-43.23-9.81-14.5-11.13-22.83-16.65-33.85s-1.81-48.29-15.21-62.29c-23.27-24.17-40.8-43.91-47.2-60s-15-38.07-29-52-30.22-3.57-30.2-3.6S251,99.1,249,99.22s-.07-.12-8,2.44-12.19-1.25-32.93-2.94c-21-1.54-32.37,18.39-32.86,26.39-1.07,8.08-11.52,55.81-16.44,65-5.65,9.16-15.23,35.75-15.07,35.75A612.68,612.68,0,0,1,244.45,362.69Z"/><path class="cls-1" d="M197.29,121c-3.94,16.24-11.24,30.85-13.65,45.85-4,24.86-3.12,24.71-8.11,42.47S169.33,236.57,170,249s-5.65,37.6-5.65,37.6l-8.59,42.24-31.31,41.41s7.94-28.44,14.46-47.48,6.92-33,6.39-37.24.83-17.72,8.83-42.12,11.7-40.74,12.55-48.4,4-27.35,17.55-61.15c6-14.81,2.93-14.24,4.74-19.81,3.52-10.8,13.46-21.07,12.6-13.71A207.38,207.38,0,0,1,197.29,121Z"/><path class="cls-5" d="M43.3,395.71c13.84-11.93,20-19,22.84-22.8a16.26,16.26,0,0,0,2.75-6.54c1.55-8.1,7-32.49,18-46.77,13.21-17.13,35.74-35.31,43.6-62.79,9.25-32.35,21.14-49.47,23.78-55.18s6.61-11.41,19.82-5.71,13.21,0,23.78-3.81S223,234,232.22,262.51s25.11,47.57,30.39,49.47,14.53,22.78,13.87,23.78c-.48.73,5.68,3.17,8.52,4.24a10.93,10.93,0,0,1,2.7,1.52c8.61,6.43,15.24,8.15,19,8.54a9.42,9.42,0,0,0,6.5-1.82c4.94-3.55,15.19-13.39,24.74-38.16,13.21-34.24,22.46-13.32,23.78-9.51s4,13.32,13.21,5.71c4.89-4,7.94-5.39,9.72-5.78a10.34,10.34,0,0,0,4.14-1.84c5.07-3.88,6.9,3.67,9.26,10.47,2.65,7.59,41,60.88,52.85,66.59,6.9,3.31,13.36,18.8,17.56,31.22,2.9,8.56-1,18.37-8.21,20.37C417,439.22,372.83,438.65,367,438.52a8.89,8.89,0,0,1-1.28-.12C254,419.58,258,444.21,221,438.51S154,424,121,424c-21.84,0-70.14,5.38-84-.82-7.2-3.22-8.52-15.46-2.26-21C37.46,399.78,40.25,398.36,43.3,395.71Z"/><path class="cls-6" d="M310.23,227.45c-4.31,3.19-32.66-4-35.07-22-2.4-18.25,20.13-19.52,28.6-21.52C324.46,179,314.54,224.26,310.23,227.45Z"/><path class="cls-6" d="M288.05,150.43c-1.37.91-.78-5.48,5.27-13.82s7.89-6.23,9.11-6.13C305.41,130.73,289.42,149.52,288.05,150.43Z"/><path class="cls-6" d="M254.88,147.3c-3.39-1.28-15.08-10.74-9.47-12.28s17.51,5.78,22.51,8.46C280.23,150,258.27,148.58,254.88,147.3Z"/><path class="cls-1" d="M317.57,204.47c5.53,13.54-3.09,28.25,6.43,39.9,15.8,19.35,18.94,18.61,22.5,33.91s10.91,22.42,28.4,30.3,25.31,29,25.31,29l20.42,34.07-63.19,48.8s-5.9-24.4-5.47-41.54-15.1-26.73-22.28-29.25S311,337.22,310.28,315.5s-7.25-35.17-13.56-40.87-19-21-11-52.77c3.51-13.94-6.78-11.46-7-16.46-.45-9.61,23.12-23.17,29-17.66C311.68,191.45,315,198.1,317.57,204.47Z"/><path class="cls-7" d="M298.66,229.22c1.48,20.72,4.35,38.31,11.84,42.92,19.24,11.87,19.24,77,19.24,77l-6.27.5s7.75-50.82-11.49-70.07-16.28-37-16.86-51.4-9.78-18.72-9.78-25.57C285.34,199.64,297.18,208.5,298.66,229.22Z"/><path class="cls-1" d="M307.89,130.95c1.12-1.25,2.89-.38,3.12,1.52,5.49,46-13,43.78-20.51,41.14a1.94,1.94,0,0,1-.36-3.12c3-2.51,7.48-7.85,7.31-17.38h0l10.22,13.33-3.41-19.09-4-5.18A46.78,46.78,0,0,1,307.89,130.95Z"/><path class="cls-1" d="M238.94,144.44c-1.37-.32-2.46,1.36-2,3,13.81,49.09,30.93,33.91,37,26.26.88-1.14.32-3-.91-3.14-3.91-.33-10.51-2.37-14.32-11.75h0l-4.33,19.8-4.6-20.7,1.72-7.72A36.29,36.29,0,0,0,238.94,144.44Z"/><path class="cls-8" d="M368.66,440.45c-16,7.29-77.43-5.56-87.7-11.43-13.32-7.61.93-36.38-5.92-62.79-4.44-17.08.49-36.08,7.72-41.08,7.51-5.23,23,8.65,27.9,13.37a3,3,0,0,0,3.56.57c4.92-2.7,17.86-12.32,28-42.62,12.77-38.24,21.72-14.87,23-10.62S369,300.72,378,292.22c5.86-5.61,9-6.61,10.44-6.61a3.21,3.21,0,0,0,2.22-1.15c5.49-5.93,7.33,2.94,9.73,10.94,2.56,8.49,39.66,68,51.17,74.35,5.87,3.25,13.31,24.42,17.31,37.11,4,12.49-3.08,20.68-13.32,23.68-38.38,11.07-76.56,9.5-84.38,9.35A5.88,5.88,0,0,0,368.66,440.45Z"/><rect class="cls-9" width="500" height="500"/></g><g id="t02-2" data-name="t02"><path class="cls-3" d="M701,97.1s-9.35-12.27-11.66-5.17a3.51,3.51,0,0,0,1.75,4.19C693.59,96.82,695.49,95,701,97.1Z"/><path class="cls-3" d="M676.82,134.89s-10.29,0-7.12,3.7a2.63,2.63,0,0,0,3,.68C674,138.34,673.62,136.76,676.82,134.89Z"/><path class="cls-1" d="M690.61,133.49S693,117.85,678,123.85c-5.39,2.16-11.07-6.46,3.73-4s7.79-3.81,9.27-10,7,6.43,14.41,2.7-5.33-7.72.59-12.7-3.55,10.39,8.29,9.14-5-12.14,12.71-12.14c7,0-.86,3.25,12.46,8.23S738.12,92,747,98.23s-4.58,5.67,8.74,9.4.94-18,14.26-5.73c1,.92-11.43,4.05,5,9.94,5.92,2.12,3.12-6.81,12,0,15.63,12-9.06,3.95-15,16.88-3.89,8.5-3,0-16.28,1.24s-14.8,8.27-17.76.8-3.16,2.74-17.76-1.36-13.32-5.66-16.28-3.17S689.74,137.53,690.61,133.49Z"/><path class="cls-2" d="M706.5,129.81s-14.28-12.41-10-14,11.43,7.76,11.43-3.1,12.85,12.41,14.28,4.65,0-17.06,2.86-12.41,10,7.76,12.85,4.65,11.43,0,7.14,7.76,5.71-1.55,11.43-1.55,0,6.2,4.28,6.2,11.43-12.41,8.57-1.55-7.14,4.65-8.57,14S706.5,129.81,706.5,129.81Z"/><path class="cls-4" d="M646.78,240.65c-.15,0,9.54-24.68,15.13-33.18,4.92-8.54,15.51-52.62,16.6-60,.55-7.38,11.72-25.83,32-24.53,20.07,1.45,24.17,4.95,31.88,2.56s5.78-2.15,7.73-2.27,13.89,3,13.87,3,15.67-9.53,29.28,3.3,22,33.06,28.3,47.86,18.17,40.64,40.89,62.82c13.13,12.83,15.56,40,21.08,50.28s7,17.93,16.88,31.48c9,13.27-30.47,38.94-29.74,39.42a420.87,420.87,0,0,0-126.23,4.28A579.07,579.07,0,0,0,646.78,240.65Z"/><path class="cls-1" d="M701.57,125.21c.86-6.77-9.08,2.68-12.6,12.61-1.81,5.13,1.22,4.59-4.74,18.22-13.58,31.08-16.7,49.2-17.55,56.24s-4.55,22.09-12.55,44.51-9.36,34.8-8.83,38.74.13,16.74-6.39,34.25-14.46,43.67-14.46,43.67l31.31-38.08,8.59-38.85S670.67,273.37,670,262s.54-20.16,5.53-36.49,4.1-16.2,8.11-39.06c2.41-13.76,9.71-27.23,13.65-42.17A177.35,177.35,0,0,0,701.57,125.21Z"/><path class="cls-5" d="M534.76,402.81c-6.26,5.09-4.94,16.36,2.26,19.32,13.86,5.7,68.16,8.72,90,8.72,33,0,50-6.25,87-1s36.35-8.32,148,9c.43.07,6.57,1,7,1,5.83.12,48-3,91.26-13.91,7.17-1.81,11.11-10.86,8.21-18.74-4.2-11.42-10.66-25.67-17.56-28.71-11.89-5.25-50.2-54.25-52.85-61.25-2.36-6.25-4.19-13.2-9.26-9.63a10.8,10.8,0,0,1-4.14,1.69c-1.78.36-4.83,1.61-9.72,5.32-9.25,7-11.89-1.75-13.21-5.25s-10.57-22.75-23.78,8.75c-9.55,22.78-19.8,31.83-24.74,35.1a10,10,0,0,1-6.5,1.67c-3.76-.35-10.39-1.94-19-7.86a11.23,11.23,0,0,0-2.68-1.38c-2.84-1-9-3.23-8.52-3.9.66-.87-8.59-20.12-13.87-21.87s-21.14-19.25-30.39-45.5-23.78-68.25-34.35-64.75-10.57,8.75-23.78,3.5-17.18,0-19.82,5.25S631.25,243.1,622,272.85c-7.86,25.28-21.86,38.27-35.07,54-11,13.14-16.45,35.56-18,43a14.35,14.35,0,0,1-2.75,6c-2.8,3.51-9,10-22.84,21C540.25,399.31,537.46,400.61,534.76,402.81Z"/><path class="cls-6" d="M803.76,202.09c-8.47,1.86-31,3-28.6,19.79,2.41,16.56,30.76,23.17,35.07,20.21S824.46,197.54,803.76,202.09Z"/><path class="cls-6" d="M802.43,152.93c-1.22-.09-3.06-2-9.11,5.63s-6.64,13.55-5.27,12.71S805.41,153.16,802.43,152.93Z"/><path class="cls-6" d="M767.92,164.89c-5-2.46-16.9-9.17-22.51-7.78s6.08,10.12,9.47,11.3S780.23,170.9,767.92,164.89Z"/><path class="cls-1" d="M807.72,205.59c-5.88-5.06-29.45,7.41-29,16.24.22,4.55,3.72,2.25,7,15.14,8.32,32.87,9,39.63,15.32,44.87s6,21,9.21,41.24c3.13,19.74,12.23,29.1,19.41,31.42s22.71,11.14,22.28,26.91,5.47,38.2,5.47,38.2l63.19-44.88L900.15,343.4s-7.82-19.43-25.31-26.67-24.84-13.84-28.4-27.87-4.05-19.13-13.43-41c-6-14-9.91-14.42-15.44-26.88C815,215.12,811.68,209,807.72,205.59Z"/><path class="cls-7" d="M785.34,219.26c0,6.3,9.2,10.28,9.78,23.52S792.74,272.35,812,290s11.49,64.45,11.49,64.45l6.27-.46s0-59.9-19.24-70.79c-7.49-4.24-10.36-20.42-11.84-39.48S785.34,216.54,785.34,219.26Z"/><path class="cls-3" d="M799.66,123.07s12.5,1.22,9.55,8.21a2.13,2.13,0,0,1-3.47,1C803.94,130.3,804,127.17,799.66,123.07Z"/><path class="cls-3" d="M780.53,96.58s5.69-12.55,9.77-6.8a2.88,2.88,0,0,1-.56,4C787.55,94.89,785.25,93.63,780.53,96.58Z"/><path class="cls-1" d="M800.26,163.68l4,4.77,1.74,17.4-8.54-12.1h0c.17,8.77-4.3,13.68-7.31,16a1.71,1.71,0,0,0,.36,2.87c7.48,2.43,26,4.43,20.51-37.83-.23-1.75-2-2.55-3.12-1.4A43.11,43.11,0,0,0,800.26,163.68Z"/><path class="cls-1" d="M751.5,171.06l-1.72,7.1L757,194.85,758.72,179h0c3.81,8.63,10.41,10.5,14.32,10.81,1.23.1,1.79,1.86.91,2.88-6.07,7-23.19,21-37-24.15-.46-1.51.63-3.05,2-2.75A37.91,37.91,0,0,1,751.5,171.06Z"/><path class="cls-8" d="M871.18,437.5c7.82.14,46,1.58,84.38-8.6,10.24-2.72,17.28-10.29,13.32-21.78-4-11.67-23-30.29-28.88-33.27-11.51-5.86-37-61.43-39.6-69.24-2.4-7.33-4.24-15.52-9.73-10.06a3.31,3.31,0,0,1-2.22,1.05c-1.46,0-4.58,1-10.44,6.08-9,7.82-11.51-2-12.79-5.86s-10.23-25.4-23,9.77c-10.14,27.86-23.08,36.72-28,39.19a3.14,3.14,0,0,1-3.56-.52c-4.9-4.34-20.39-17.1-27.9-12.29-7.23,4.63-12.16,22-7.72,37.78,6.85,24.29-7.4,50.75,5.92,57.75,10.27,5.4,71.67,17.21,87.7,10.51A6.32,6.32,0,0,1,871.18,437.5Z"/><rect class="cls-9" x="500" width="500" height="500"/></g><g id="t03-2" data-name="t03"><path class="cls-1" d="M1186.26,129.36s6.32-19.49-15.88-8.36-9.53-8.12,6.35-5.57,4.76-10.35,6.35-16.72,11.12,13,19.06,9.21-3.18-10.19,3.18-15.28-6.35,12.92,6.35,11.64S1208.49,82,1226,89c10.9,4.35-1.59,6.23,12.7,11.32s1.59-16.3,11.12-9.93-7.94,8.72,6.35,12.54,6.35-15.34,23.82-6.43-17.62,7.37,0,13.39c6.35,2.17,9.53-7,19.06,0,16.77,12.26-19.06,1.39-25.41,14.62-4.18,8.7-3.18,0-17.47,1.27s-15.88,8.46-19.06.82-3.4,2.8-19.06-1.39-14.29-5.8-17.47-3.25S1185.33,133.49,1186.26,129.36Z"/><path class="cls-2" d="M1203.31,125.59s-15.32-12.7-10.73-14.29,12.26,7.94,12.26-3.17,13.79,12.7,15.32,4.76,0-17.46,3.06-12.7S1234,108.13,1237,105s12.26,0,7.66,7.94,6.13-1.59,12.26-1.59,0,6.35,4.6,6.35,12.26-12.7,9.19-1.59-7.66,4.76-9.19,14.29S1203.31,125.59,1203.31,125.59Z"/><path class="cls-4" d="M1141,239c-.16,0,10.31-25.39,16.27-34.14,5.27-8.79,16.73-54,17.9-61.61.62-7.56,12.48-26.51,33.86-25.25,21.16,1.41,25.47,5,33.61,2.53s6.1-2.21,8.16-2.33,14.64,3,14.62,3.06,16.52-9.77,30.89,3.36,23.23,33.85,29.94,49,24.86,33.85,49.32,57c14.08,13.39,10.91,48.55,16.91,59.08s7.57,18.44,18.24,32.43c9.77,13.71-32.08,39.63-31.34,40.14A451.43,451.43,0,0,0,1244,366.37,602.65,602.65,0,0,0,1141,239Z"/><path class="cls-1" d="M1198,120.89c.92-6.92-7.24,2.94-11,13.11-1.94,5.24,1.39,3-5,17-14.57,31.81-20.51,51.78-21.42,59s-4.88,22.6-13.46,45.55-10,35.61-9.47,39.64.14,17.13-6.86,35.05-15.52,44.68-15.52,44.68l33.59-39,9.21-39.75s6.78-23.7,6.09-35.38-1.53-21.11,3.83-37.82,4.7-19.61,9-43c2.59-14.09,13.77-23.71,18-39C1197,133.81,1197.39,125.55,1198,120.89Z"/><path class="cls-5" d="M1019.05,404.95c-6.72,5.21-5.3,16.74,2.42,19.76,14.87,5.83,57.11-6.71,80.52-6.71,35.44,0,52.31,11.63,92,17s56.21-22.72,176-5c.46.07,8.54,1,9,1,6.26.13,50.09,8.82,96.55-2.39,7.69-1.86,11.92-11.12,8.81-19.17-4.51-11.69-11.44-26.26-18.84-29.38-12.76-5.37-53.86-55.51-56.7-62.67-2.53-6.4-4.5-13.5-9.93-9.86a11.91,11.91,0,0,1-4.44,1.73c-1.91.37-5.18,1.65-10.43,5.44-9.92,7.16-12.76-1.79-14.17-5.37s-11.34-23.28-25.51,9c-10.25,23.31-21.24,32.57-26.54,35.91a11.16,11.16,0,0,1-7,1.71c-4-.36-11.14-2-20.38-8a12.27,12.27,0,0,0-2.87-1.41c-3.05-1-9.69-3.3-9.15-4,.71-.9-9.21-20.59-14.88-22.38s-22.68-19.7-32.6-46.56-25.51-69.84-36.85-66.25-11.34,9-25.51,3.58-18.43,0-21.26,5.37-15.59,21.49-25.51,51.93c-8.43,25.86-32.6,43-46.77,59.09-11.82,13.44-17.64,36.39-19.32,44a14.38,14.38,0,0,1-2.95,6.15c-3,3.59-9.69,10.23-24.51,21.46C1024.95,401.36,1022,402.7,1019.05,404.95Z"/><path class="cls-6" d="M1307.65,199.56c-9.09,1.91-33.3,3.08-30.68,20.25,2.59,16.95,33,23.71,37.63,20.68S1329.86,194.89,1307.65,199.56Z"/><path class="cls-6" d="M1307.47,147.51c-1.31-.14-3.22-2.18-9.94,5.47s-7.53,13.65-6,12.83S1310.66,147.84,1307.47,147.51Z"/><path class="cls-6" d="M1269.33,159.34c-5.79-1.44-19.6-5.73-25.22-3.18s8.39,8.91,12.19,9.4S1283.47,162.84,1269.33,159.34Z"/><path class="cls-1" d="M1282.65,219.24c.8-8.12,27.71-17,33.77-10.27,3.13,3.46-6.3,9.65,5.66,16.26,27.24,15,27.76,34.88,26.8,43.44s3,22.47,16.91,37.48,11.78,30.34,8,37.46-9.17,25.29,2.56,36.37,23.49,31.79,23.49,31.79l-80.41,15.47-7.18-38.17s-8.13-20-.1-38.5,8.83-28.85,1.38-41.71-4.66-14.72-5.54-39.59c-.53-15-16.86-18.23-21.67-31.43C1284,231.63,1282.11,224.71,1282.65,219.24Z"/><path class="cls-7" d="M1291.51,217.16c4.56,4.56.46,14.42,9.6,24.44s23.2,19.59,21.41,47,37.92,55.35,37.92,55.35l-5.09,4.42S1312,305,1318.72,282.54c2.62-8.75-6.91-22.64-19.58-37.55S1289.54,215.19,1291.51,217.16Z"/><path class="cls-3" d="M1308.18,122.3s11,1,8.42,6.9a1.91,1.91,0,0,1-3.06.86C1312,128.38,1312,125.75,1308.18,122.3Z"/><path class="cls-3" d="M1287,87s4.46-9.39,7.66-5.09a2.09,2.09,0,0,1-.44,3C1292.53,85.77,1290.72,84.83,1287,87Z"/><path class="cls-3" d="M1195.92,89.56s-7.35-9.2-9.17-3.88a2.6,2.6,0,0,0,1.37,3.14C1190.08,89.36,1191.57,88,1195.92,89.56Z"/><path class="cls-3" d="M1169.78,130.64s-8.47,0-5.87,2.91a2.25,2.25,0,0,0,2.47.53C1167.45,133.34,1167.14,132.1,1169.78,130.64Z"/><path class="cls-1" d="M1304.74,160.2l3.94,5.17,2.36,18.19-10-13.3h0a19,19,0,0,1-9,15.75,1.71,1.71,0,0,0,.18,3c7.83,3.05,27.45,6.52,24.72-37a2,2,0,0,0-3.23-1.66A44.35,44.35,0,0,0,1304.74,160.2Z"/><path class="cls-1" d="M1250.67,168.17l-1.29,7.39,6.39,19.06,3.23-18.93h0c4.74,8.5,11.95,9.88,16.16,9.87a1.77,1.77,0,0,1,1.19,2.87c-6,7.67-23.18,23.3-41.48-21.64-.61-1.5.43-3.16,1.89-3A41.79,41.79,0,0,1,1250.67,168.17Z"/><path class="cls-8" d="M1390,429c8.39.14,39.32,13.07,80.51,2.64,11-2.78,18.54-10.53,14.29-22.29-4.31-11.94-12.27-31.87-18.57-34.92-12.35-6-52.16-62-54.9-70-2.57-7.5-4.55-15.88-10.44-10.3a3.62,3.62,0,0,1-2.38,1.08c-1.56,0-4.91,1-11.2,6.22-9.61,8-12.35-2-13.73-6s-11-26-24.71,10C1338,334,1324.12,343,1318.82,345.56A3.5,3.5,0,0,1,1315,345c-5.26-4.44-21.87-17.5-29.94-12.58-7.75,4.73-13.05,22.54-8.29,38.66,7.35,24.86-7.94,51.93,6.35,59.09,11,5.52,56.68,7.66,73.87.81C1357.89,430.64,1389.05,429,1390,429Z"/><rect class="cls-9" x="1000" width="500" height="500"/></g><g id="t04-2" data-name="t04"><path class="cls-1" d="M1687.26,124.36s6.32-19.49-15.88-8.36-9.53-8.12,6.35-5.57,4.76-10.35,6.35-16.72,11.12,13,19.06,9.21-3.18-10.19,3.18-15.28-6.35,12.92,6.35,11.64S1709.49,77,1727,84c10.9,4.35-1.59,6.23,12.7,11.32s1.59-16.3,11.12-9.93-7.94,8.72,6.35,12.54,6.35-15.34,23.82-6.43-17.62,7.37,0,13.39c6.35,2.17,9.53-7,19.06,0,16.77,12.26-19.06,1.39-25.41,14.62-4.18,8.7-3.18,0-17.47,1.27s-15.88,8.46-19.06.82-3.4,2.8-19.06-1.39-14.29-5.8-17.47-3.25S1686.33,128.49,1687.26,124.36Z"/><path class="cls-2" d="M1704.31,120.59s-15.32-12.7-10.73-14.29,12.26,7.94,12.26-3.17,13.79,12.7,15.32,4.76,0-17.46,3.06-12.7S1735,103.13,1738,100s12.26,0,7.66,7.94,6.13-1.59,12.26-1.59,0,6.35,4.6,6.35,12.26-12.7,9.19-1.59-7.66,4.76-9.19,14.29S1704.31,120.59,1704.31,120.59Z"/><path class="cls-4" d="M1642,234c-.16,0,10.31-25.39,16.27-34.14,5.27-8.79,16.73-54,17.9-61.61.62-7.56,12.48-26.51,33.86-25.25,21.16,1.41,25.47,5,33.61,2.53s6.1-2.21,8.16-2.33,14.64,3,14.62,3.06,16.52-9.77,30.89,3.36,23.23,33.85,29.94,49,24.86,33.85,49.32,57c14.08,13.39,10.91,48.55,16.91,59.08s7.57,18.44,18.24,32.43c9.77,13.71-32.08,39.63-31.34,40.14A451.43,451.43,0,0,0,1745,361.37,602.64,602.64,0,0,0,1642,234Z"/><path class="cls-1" d="M1699,115.89c.92-6.92-7.24,2.94-11,13.11-1.94,5.24,1.39,3-5,17-14.57,31.81-20.51,51.78-21.42,59s-4.88,22.6-13.46,45.55-10,35.61-9.47,39.64.14,17.13-6.86,35.05-15.52,44.68-15.52,44.68l33.59-39,9.21-39.75s6.78-23.7,6.09-35.38-1.53-21.11,3.83-37.82,4.7-19.61,9-43c2.59-14.09,13.77-23.71,18-39C1698,128.81,1698.39,120.55,1699,115.89Z"/><path class="cls-5" d="M1520.05,399.95c-6.72,5.21-5.3,16.74,2.42,19.76,14.87,5.83,58.83-15.53,80.52-6.71,32,13,59.33,21.1,96,5,41-18,45,25,172,7,.46-.06,8.54,1,9,1,6.26.13,43-2,94-5,7.9-.46,14.47-8.51,11.36-16.56-4.51-11.69-11.44-26.26-18.84-29.38-12.76-5.37-53.86-55.51-56.7-62.67-2.53-6.4-4.5-13.5-9.93-9.86a11.91,11.91,0,0,1-4.44,1.73c-1.91.37-5.18,1.65-10.43,5.44-9.92,7.16-12.76-1.79-14.17-5.37s-11.34-23.28-25.51,9c-10.25,23.31-21.24,32.57-26.54,35.91a11.16,11.16,0,0,1-7,1.71c-4-.36-11.14-2-20.38-8a12.27,12.27,0,0,0-2.87-1.41c-3.05-1-9.69-3.3-9.15-4,.71-.9-9.21-20.59-14.88-22.38s-22.68-19.7-32.6-46.56-25.51-69.84-36.85-66.25-11.34,9-25.51,3.58-18.43,0-21.26,5.37-15.59,21.49-25.51,51.93c-8.43,25.86-32.6,43-46.77,59.09-11.82,13.44-17.64,36.39-19.32,44a14.38,14.38,0,0,1-2.95,6.15c-3,3.59-9.69,10.23-24.51,21.46C1525.95,396.36,1523,397.7,1520.05,399.95Z"/><path class="cls-6" d="M1808.65,194.56c-9.09,1.91-33.3,3.08-30.68,20.25,2.59,16.95,33,23.71,37.63,20.68S1830.86,189.89,1808.65,194.56Z"/><path class="cls-6" d="M1808.47,142.51c-1.31-.14-3.22-2.18-9.94,5.47s-7.53,13.65-6,12.83S1811.66,142.84,1808.47,142.51Z"/><path class="cls-6" d="M1770.33,154.34c-5.79-1.44-19.6-5.73-25.22-3.18s8.39,8.91,12.19,9.4S1784.47,157.84,1770.33,154.34Z"/><path class="cls-1" d="M1783.65,214.24c.8-8.12,27.71-17,33.77-10.27,2,2.22,2.43,10.87,1.89,19.2a34.51,34.51,0,0,0,2.66,14.75c7,17.27,13.9,24.94,20,31.07s10.89,17.14,24.78,32.15,11.78,30.34,8,37.46-9.17,25.29,2.56,36.37,23.49,31.79,23.49,31.79l-80.41,15.47-7.18-38.17s-8.13-20-.1-38.5,9.29-27.39,4.86-41.57c-5-16-11-14-22-36-6.7-13.4-3.88-22-8.69-35.16C1785,226.63,1783.11,219.71,1783.65,214.24Z"/><path class="cls-7" d="M1792.51,212.16c4.56,4.56.46,14.42,9.6,24.44s23.2,19.59,21.41,47,37.92,55.35,37.92,55.35l-5.09,4.42S1813,300,1819.72,277.54c2.62-8.75-6.72-22.54-19.58-37.55C1787.4,225.14,1790.54,210.19,1792.51,212.16Z"/><path class="cls-3" d="M1809.18,117.3s11,1,8.42,6.9a1.91,1.91,0,0,1-3.06.86C1813,123.38,1813,120.75,1809.18,117.3Z"/><path class="cls-3" d="M1788,82s4.46-9.39,7.66-5.09a2.09,2.09,0,0,1-.44,3C1793.53,80.77,1791.72,79.83,1788,82Z"/><path class="cls-3" d="M1696.92,84.56s-7.35-9.2-9.17-3.88a2.6,2.6,0,0,0,1.37,3.14C1691.08,84.36,1692.57,83,1696.92,84.56Z"/><path class="cls-3" d="M1670.78,125.64s-8.47,0-5.87,2.91a2.25,2.25,0,0,0,2.47.53C1668.45,128.34,1668.14,127.1,1670.78,125.64Z"/><path class="cls-1" d="M1806.19,155.19l3.74,5.32,1.66,18.26-9.51-13.67h0a19,19,0,0,1-9.59,15.39,1.71,1.71,0,0,0,.06,3c7.71,3.35,27.17,7.57,26.13-36.06a2,2,0,0,0-3.17-1.79A44.35,44.35,0,0,0,1806.19,155.19Z"/><path class="cls-1" d="M1751.47,163.26l-1.17,7.41,6.71,18.95,2.92-19h0c4.88,8.42,12.11,9.68,16.32,9.6a1.77,1.77,0,0,1,1.24,2.85c-5.82,7.77-22.8,23.68-41.83-21-.64-1.49.38-3.17,1.84-3A41.79,41.79,0,0,1,1751.47,163.26Z"/><path class="cls-8" d="M1901,431c21.1,0,29-9,70.51-4.36,11.26,1.26,18.54-10.53,14.29-22.29-4.31-11.94-12.27-31.87-18.57-34.92-12.35-6-52.16-62-54.9-70-2.57-7.5-4.55-15.88-10.44-10.3a3.62,3.62,0,0,1-2.38,1.08c-1.56,0-4.91,1-11.2,6.22-9.61,8-12.35-2-13.73-6s-11-26-24.71,10C1839,329,1825.12,338,1819.82,340.56A3.5,3.5,0,0,1,1816,340c-5.26-4.44-21.87-17.5-29.94-12.58-7.75,4.73-13.05,22.54-8.29,38.66,7.35,24.86-7.94,51.93,6.35,59.09,11,5.52,28.87,7.81,73.87.81C1859,425.85,1887,431,1901,431Z"/><rect class="cls-9" x="1501" width="500" height="500"/></g><g id="t05-2" data-name="t05"><path class="cls-1" d="M2186.26,137.62s6.32-18.84-15.88-8.08-9.53-7.85,6.35-5.39,4.76-10,6.35-16.16,11.12,12.6,19.06,8.9-3.18-9.85,3.18-14.77-6.35,12.48,6.35,11.25-3.18-21.54,14.29-14.81c10.9,4.2-1.59,6,12.7,10.94s1.59-15.75,11.12-9.6-7.94,8.43,6.35,12.12,6.35-14.83,23.82-6.21-17.62,7.12,0,12.95c6.35,2.1,9.53-6.73,19.06,0,16.77,11.85-19.06,1.35-25.41,14.13-4.18,8.41-3.18,0-17.47,1.23s-15.88,8.18-19.06.79-3.4,2.71-19.06-1.35-14.29-5.6-17.47-3.14S2185.33,141.61,2186.26,137.62Z"/><path class="cls-2" d="M2203.31,134s-15.32-12.27-10.73-13.81,12.26,7.67,12.26-3.07,13.79,12.27,15.32,4.6,0-16.88,3.06-12.27S2234,117.1,2237,114s12.26,0,7.66,7.67,6.13-1.53,12.26-1.53,0,6.14,4.6,6.14,12.26-12.27,9.19-1.53-7.66,4.6-9.19,13.81S2203.31,134,2203.31,134Z"/><path class="cls-4" d="M2142.16,243.61c-.15,0,10.36-24.64,16.29-33.13,5.27-8.54,16.78-52.33,18-59.68.65-7.31,12.42-25.69,33.52-24.52,20.89,1.32,25.15,4.78,33.2,2.38s6-2.15,8.07-2.27,14.46,2.91,14.45,2.94,16.33-9.45,30.52,3.24,23,32.74,29.66,47.4,24.67,32.76,49,55.25c14,13,11,47,17.05,57.23s7.63,17.88,18.34,31.51c9.84,13.34-31.67,38.14-31,38.65a451.35,451.35,0,0,0-135.25,3.7A590.05,590.05,0,0,0,2142.16,243.61Z"/><path class="cls-1" d="M2198,129.43c.92-6.69-9.74,2.65-13.51,12.48-1.94,5.07,1.3,4.54-5.09,18-14.57,30.74-17.92,48.66-18.83,55.63s-4.88,21.85-13.46,44-10,34.42-9.47,38.32.14,16.56-6.86,33.88S2115.28,375,2115.28,375l33.59-37.67,9.21-38.42s6.78-22.91,6.09-34.19.58-19.94,5.93-36.09,4.4-16,8.7-38.63c2.59-13.61,10.42-26.93,14.65-41.71C2195.44,141.3,2197.39,133.93,2198,129.43Z"/><path class="cls-5" d="M2019.05,404c-6.72,5-5.3,16.18,2.42,19.1,14.87,5.64,57.11-6.49,80.52-6.49,35.44,0,52.31,11.24,92,16.43s56.21-22,176-4.83c.46.07,8.54,1,9,1,6.26.12,50.09,8.52,96.55-2.31,7.69-1.79,11.92-10.74,8.81-18.53-4.51-11.3-11.44-25.39-18.84-28.4-12.76-5.19-53.86-53.66-56.7-60.58-2.53-6.18-4.5-13.05-9.93-9.53a12.16,12.16,0,0,1-4.44,1.67c-1.91.36-5.18,1.6-10.43,5.26-9.92,6.92-12.76-1.73-14.17-5.19s-11.34-22.5-25.51,8.65c-10.25,22.53-21.24,31.48-26.54,34.71a11.46,11.46,0,0,1-7,1.65c-4-.35-11.14-1.92-20.38-7.77a12.45,12.45,0,0,0-2.87-1.37c-3.05-1-9.69-3.19-9.15-3.86.71-.87-9.21-19.9-14.88-21.64s-22.68-19-32.6-45-25.51-67.5-36.85-64-11.34,8.65-25.51,3.46-18.43,0-21.26,5.19-15.59,20.77-25.51,50.19c-8.43,25-32.6,41.54-46.77,57.12-11.82,13-17.64,35.18-19.32,42.54a13.71,13.71,0,0,1-2.95,5.95c-3,3.47-9.69,9.89-24.51,20.74C2024.95,400.53,2022,401.83,2019.05,404Z"/><path class="cls-6" d="M2307.65,205.47c-9.09,1.84-33.3,3-30.68,19.58,2.59,16.38,33,22.92,37.63,20S2329.86,201,2307.65,205.47Z"/><path class="cls-6" d="M2308.15,155.92c-1.29-.24-3-2.36-10.36,4.46s-8.65,12.53-7.09,11.87S2311.3,156.5,2308.15,155.92Z"/><path class="cls-6" d="M2269.32,166.34c-5.82-1.25-19.73-5.09-25.29-2.49s8.6,8.42,12.41,8.8S2283.54,169.4,2269.32,166.34Z"/><path class="cls-1" d="M2311.89,208.93c-6.31-5-31.6,7.33-31.14,16.06.24,4.51,11.28,2.3,7.5,15-8.62,28.9,5,42.82,11.77,48s13.75,17.42,14.55,37.18,13.12,28.79,20.82,31.07,24.36,11,23.91,26.61,5.87,37.79,5.87,37.79L2433,376.24l-21.91-31s-8.39-19.22-27.16-26.38-26.65-13.69-30.47-27.57-7.11-13.24-24.08-30.84c-10.21-10.6-1-24-6.9-36.3C2319.66,218.36,2316.14,212.3,2311.89,208.93Z"/><path class="cls-7" d="M2287.89,222.45c0,6.23,9.87,10.17,10.5,23.26s-2.56,29.25,18.09,46.75,12.33,63.74,12.33,63.74l6.73-.46s0-59.25-20.64-70c-8-4.19-11.12-20.2-12.7-39S2287.89,219.76,2287.89,222.45Z"/><path class="cls-3" d="M2313.18,138.39s8.53.77,6.51,5.16a1.5,1.5,0,0,1-2.37.65C2316.1,142.94,2316.14,141,2313.18,138.39Z"/><path class="cls-3" d="M2302,127.4s4.26.38,3.25,2.58a.75.75,0,0,1-1.18.32C2303.46,129.67,2303.48,128.68,2302,127.4Z"/><path class="cls-3" d="M2290.33,94.88s2.79-5.68,4.79-3.08a1.24,1.24,0,0,1-.28,1.81C2293.77,94.11,2292.64,93.54,2290.33,94.88Z"/><path class="cls-3" d="M2278.11,103.59s1.07-3.35,2.38-2.07a.69.69,0,0,1,0,1C2279.95,102.91,2279.28,102.68,2278.11,103.59Z"/><path class="cls-3" d="M2183.92,93.35s-7.35-8.89-9.17-3.75a2.49,2.49,0,0,0,1.37,3C2178.08,93.15,2179.57,91.8,2183.92,93.35Z"/><path class="cls-3" d="M2197.92,100.12s-3.8-4.59-4.74-1.94a1.28,1.28,0,0,0,.71,1.57C2194.91,100,2195.68,99.32,2197.92,100.12Z"/><path class="cls-3" d="M2163.77,145.26s-7.11,0-4.92,2.36a1.93,1.93,0,0,0,2.07.43C2161.82,147.46,2161.56,146.45,2163.77,145.26Z"/><path class="cls-3" d="M2179.08,133.73s-4.81,0-3.33,1.6a1.31,1.31,0,0,0,1.4.29C2177.75,135.22,2177.58,134.54,2179.08,133.73Z"/><path class="cls-1" d="M2306,167.45l3.38,5.37.45,17.72-8.6-13.79h0A18.5,18.5,0,0,1,2290.59,191c-1.17.55.29,6.61,1.41,7.17,7.47,3.72,25.08,4.72,26.9-37.43a2,2,0,0,0-3-1.93A43.89,43.89,0,0,0,2306,167.45Z"/><path class="cls-1" d="M2249.64,175.64l-.63,7.22,8.06,17.8,1.54-18.5h0a18.12,18.12,0,0,0,17,8.12c1.32-.12-.84,5.78-1.6,6.93-5.25,7.9-18,20.14-40.18-21.56a2,2,0,0,1,1.62-3A43,43,0,0,1,2249.64,175.64Z"/><path class="cls-8" d="M2390,427.25c8.39.14,39.32,12.63,80.51,2.56,11-2.69,18.54-10.18,14.29-21.54-4.31-11.54-12.27-30.8-18.57-33.76-12.35-5.8-52.16-59.91-54.9-67.64-2.57-7.25-4.55-15.35-10.44-10a3.68,3.68,0,0,1-2.38,1c-1.56,0-4.91,1-11.2,6-9.61,7.73-12.35-1.93-13.73-5.8s-11-25.12-24.71,9.66c-10.87,27.56-24.76,36.32-30.06,38.77a3.59,3.59,0,0,1-3.82-.52c-5.26-4.29-21.87-16.92-29.94-12.16-7.75,4.58-13.05,21.79-8.29,37.37,7.35,24-7.94,50.19,6.35,57.12,11,5.34,56.68,7.41,73.87.78C2357.89,428.84,2389.05,427.24,2390,427.25Z"/><rect class="cls-9" x="2000" width="500" height="500"/></g></g></g></svg>
