<svg xmlns="http://www.w3.org/2000/svg" width="3500" height="500" viewBox="0 0 3500 500"><defs><style>.cls-1{fill:#c4c4c4;}.cls-2{fill:#f7250f;}.cls-3{fill:#ef6520;}.cls-4{fill:#f49205;}.cls-5{fill:#ffd527;}.cls-6{fill:#f8f932;}.cls-7{fill:#c5e12a;}.cls-8{fill:#60a72d;}.cls-9{fill:none;}</style></defs><title>Asset 1</title><g id="Layer_2" data-name="Layer 2"><g id="Layer_1-2" data-name="Layer 1"><rect class="cls-1" x="87.5" y="12.5" width="325" height="462.5" rx="10.81" ry="10.81"/><rect class="cls-2" x="103.5" y="406.69" width="292.99" height="52.56" rx="10.81" ry="10.81"/><rect class="cls-1" x="587.5" y="12.5" width="325" height="462.5" rx="10.81" ry="10.81"/><rect class="cls-3" x="603.5" y="343.62" width="292.99" height="52.56" rx="10.81" ry="10.81"/><rect class="cls-2" x="603.5" y="406.69" width="292.99" height="52.56" rx="10.81" ry="10.81"/><rect class="cls-1" x="1087.5" y="12.5" width="325" height="462.5" rx="10.81" ry="10.81"/><rect class="cls-4" x="1103.5" y="280.54" width="292.99" height="52.56" rx="10.81" ry="10.81"/><rect class="cls-3" x="1103.5" y="343.62" width="292.99" height="52.56" rx="10.81" ry="10.81"/><rect class="cls-2" x="1103.5" y="406.69" width="292.99" height="52.56" rx="10.81" ry="10.81"/><rect class="cls-1" x="1587.5" y="12.5" width="325" height="462.5" rx="10.81" ry="10.81"/><rect class="cls-5" x="1603.5" y="217.47" width="292.99" height="52.56" rx="10.81" ry="10.81"/><rect class="cls-4" x="1603.5" y="280.54" width="292.99" height="52.56" rx="10.81" ry="10.81"/><rect class="cls-3" x="1603.5" y="343.62" width="292.99" height="52.56" rx="10.81" ry="10.81"/><rect class="cls-2" x="1603.5" y="406.69" width="292.99" height="52.56" rx="10.81" ry="10.81"/><rect class="cls-1" x="2087.5" y="12.5" width="325" height="462.5" rx="10.81" ry="10.81"/><rect class="cls-5" x="2103.5" y="217.47" width="292.99" height="52.56" rx="10.81" ry="10.81"/><rect class="cls-6" x="2103.5" y="154.4" width="292.99" height="52.56" rx="10.81" ry="10.81"/><rect class="cls-4" x="2103.5" y="280.54" width="292.99" height="52.56" rx="10.81" ry="10.81"/><rect class="cls-3" x="2103.5" y="343.62" width="292.99" height="52.56" rx="10.81" ry="10.81"/><rect class="cls-2" x="2103.5" y="406.69" width="292.99" height="52.56" rx="10.81" ry="10.81"/><rect class="cls-1" x="2587.5" y="12.5" width="325" height="462.5" rx="10.81" ry="10.81"/><rect class="cls-5" x="2603.5" y="217.47" width="292.99" height="52.56" rx="10.81" ry="10.81"/><rect class="cls-6" x="2603.5" y="154.4" width="292.99" height="52.56" rx="10.81" ry="10.81"/><rect class="cls-7" x="2603.5" y="91.32" width="292.99" height="52.56" rx="10.81" ry="10.81"/><rect class="cls-4" x="2603.5" y="280.54" width="292.99" height="52.56" rx="10.81" ry="10.81"/><rect class="cls-3" x="2603.5" y="343.62" width="292.99" height="52.56" rx="10.81" ry="10.81"/><rect class="cls-2" x="2603.5" y="406.69" width="292.99" height="52.56" rx="10.81" ry="10.81"/><rect class="cls-1" x="3075" y="12.5" width="325" height="462.5" rx="10.81" ry="10.81"/><rect class="cls-5" x="3091" y="217.47" width="292.99" height="52.56" rx="10.81" ry="10.81"/><rect class="cls-6" x="3091" y="154.4" width="292.99" height="52.56" rx="10.81" ry="10.81"/><rect class="cls-7" x="3091" y="91.32" width="292.99" height="52.56" rx="10.81" ry="10.81"/><rect class="cls-8" x="3091" y="28.25" width="292.99" height="52.56" rx="10.81" ry="10.81"/><rect class="cls-4" x="3091" y="280.54" width="292.99" height="52.56" rx="10.81" ry="10.81"/><rect class="cls-3" x="3091" y="343.62" width="292.99" height="52.56" rx="10.81" ry="10.81"/><rect class="cls-2" x="3091" y="406.69" width="292.99" height="52.56" rx="10.81" ry="10.81"/><rect class="cls-9" width="3500" height="500"/></g></g></svg>
