<svg xmlns="http://www.w3.org/2000/svg" width="4000" height="500" viewBox="0 0 4000 500"><defs><style>.cls-1{fill:none;}.cls-2{fill:#d1d1d1;}.cls-3{fill:#f7250f;}.cls-4{fill:#ef6520;}.cls-5{fill:#f49205;}.cls-6{fill:#ffd527;}.cls-7{fill:#f8f932;}.cls-8{fill:#c5e12a;}.cls-9{fill:#60a72d;}</style></defs><title>Asset 1</title><g id="Layer_2" data-name="Layer 2"><g id="Layer_1-2" data-name="Layer 1"><rect class="cls-1" width="500" height="500"/><rect class="cls-2" x="100" y="35" width="300" height="430" rx="5" ry="5"/></g><g id="Layer_1_copy" data-name="Layer 1 copy"><rect class="cls-1" x="500" width="500" height="500"/><rect class="cls-2" x="600" y="35" width="300" height="430" rx="5" ry="5"/><rect class="cls-3" x="610" y="405" width="280" height="50" rx="5" ry="5"/></g><g id="Layer_1_copy_2" data-name="Layer 1 copy 2"><rect class="cls-1" x="1000" width="500" height="500"/><rect class="cls-2" x="1100" y="35" width="300" height="430" rx="5" ry="5"/><rect class="cls-3" x="1110" y="405" width="280" height="50" rx="5" ry="5"/><rect class="cls-4" x="1110" y="345" width="280" height="50" rx="5" ry="5"/></g><g id="Layer_1_copy_3" data-name="Layer 1 copy 3"><rect class="cls-1" x="1500" width="500" height="500"/><rect class="cls-2" x="1600" y="35" width="300" height="430" rx="5" ry="5"/><rect class="cls-3" x="1610" y="405" width="280" height="50" rx="5" ry="5"/><rect class="cls-4" x="1610" y="345" width="280" height="50" rx="5" ry="5"/><rect class="cls-5" x="1610" y="285" width="280" height="50" rx="5" ry="5"/></g><g id="Layer_1_copy_4" data-name="Layer 1 copy 4"><rect class="cls-1" x="2000" width="500" height="500"/><rect class="cls-2" x="2100" y="35" width="300" height="430" rx="5" ry="5"/><rect class="cls-3" x="2110" y="405" width="280" height="50" rx="5" ry="5"/><rect class="cls-4" x="2110" y="345" width="280" height="50" rx="5" ry="5"/><rect class="cls-5" x="2110" y="285" width="280" height="50" rx="5" ry="5"/><rect class="cls-6" x="2110" y="225" width="280" height="50" rx="5" ry="5"/></g><g id="Layer_1_copy_5" data-name="Layer 1 copy 5"><rect class="cls-1" x="2500" width="500" height="500"/><rect class="cls-2" x="2600" y="35" width="300" height="430" rx="5" ry="5"/><rect class="cls-3" x="2610" y="405" width="280" height="50" rx="5" ry="5"/><rect class="cls-4" x="2610" y="345" width="280" height="50" rx="5" ry="5"/><rect class="cls-5" x="2610" y="285" width="280" height="50" rx="5" ry="5"/><rect class="cls-6" x="2610" y="225" width="280" height="50" rx="5" ry="5"/><rect class="cls-7" x="2610" y="165" width="280" height="50" rx="5" ry="5"/></g><g id="Layer_1_copy_6" data-name="Layer 1 copy 6"><rect class="cls-1" x="3000" width="500" height="500"/><rect class="cls-2" x="3100" y="35" width="300" height="430" rx="5" ry="5"/><rect class="cls-3" x="3110" y="405" width="280" height="50" rx="5" ry="5"/><rect class="cls-4" x="3110" y="345" width="280" height="50" rx="5" ry="5"/><rect class="cls-5" x="3110" y="285" width="280" height="50" rx="5" ry="5"/><rect class="cls-6" x="3110" y="225" width="280" height="50" rx="5" ry="5"/><rect class="cls-7" x="3110" y="165" width="280" height="50" rx="5" ry="5"/><rect class="cls-8" x="3110" y="105" width="280" height="50" rx="5" ry="5"/></g><g id="Layer_1_copy_7" data-name="Layer 1 copy 7"><rect class="cls-1" x="3500" width="500" height="500"/><rect class="cls-2" x="3600" y="35" width="300" height="430" rx="5" ry="5"/><rect class="cls-3" x="3610" y="405" width="280" height="50" rx="5" ry="5"/><rect class="cls-4" x="3610" y="345" width="280" height="50" rx="5" ry="5"/><rect class="cls-5" x="3610" y="285" width="280" height="50" rx="5" ry="5"/><rect class="cls-6" x="3610" y="225" width="280" height="50" rx="5" ry="5"/><rect class="cls-7" x="3610" y="165" width="280" height="50" rx="5" ry="5"/><rect class="cls-8" x="3610" y="105" width="280" height="50" rx="5" ry="5"/><rect class="cls-9" x="3610" y="45" width="280" height="50" rx="5" ry="5"/></g></g></svg>
