<svg xmlns="http://www.w3.org/2000/svg" width="4000" height="500" viewBox="0 0 4000 500"><defs><style>.cls-1{fill:none;}.cls-2{fill:#cecece;}.cls-3{fill:#f7250f;}.cls-4{fill:#ef6520;}.cls-5{fill:#f49205;}.cls-6{fill:#ffd527;}.cls-7{fill:#f8f932;}.cls-8{fill:#c5e12a;}.cls-9{fill:#60a72d;}</style></defs><title>Asset 2</title><g id="Layer_2" data-name="Layer 2"><g id="Layer_1-2" data-name="Layer 1"><rect class="cls-1" width="500" height="500"/><rect class="cls-2" x="75" y="25" width="350" height="450" rx="6.66" ry="6.66"/></g><g id="Layer_1_copy" data-name="Layer 1 copy"><rect class="cls-1" x="500" width="500" height="500"/><rect class="cls-2" x="575" y="25" width="350" height="450" rx="6.66" ry="6.66"/><rect class="cls-3" x="587.5" y="412.5" width="325" height="50" rx="6.66" ry="6.66"/></g><g id="Layer_1_copy_2" data-name="Layer 1 copy 2"><rect class="cls-1" x="1000" width="500" height="500"/><rect class="cls-2" x="1075" y="25" width="350" height="450" rx="6.66" ry="6.66"/><rect class="cls-3" x="1087.5" y="412.5" width="325" height="50" rx="6.66" ry="6.66"/><rect class="cls-4" x="1087.5" y="350" width="325" height="50" rx="6.66" ry="6.66"/></g><g id="Layer_1_copy_3" data-name="Layer 1 copy 3"><rect class="cls-1" x="1500" width="500" height="500"/><rect class="cls-2" x="1575" y="25" width="350" height="450" rx="6.66" ry="6.66"/><rect class="cls-3" x="1587.5" y="412.5" width="325" height="50" rx="6.66" ry="6.66"/><rect class="cls-4" x="1587.5" y="350" width="325" height="50" rx="6.66" ry="6.66"/><rect class="cls-5" x="1587.5" y="287.5" width="325" height="50" rx="6.66" ry="6.66"/></g><g id="Layer_1_copy_4" data-name="Layer 1 copy 4"><rect class="cls-1" x="2000" width="500" height="500"/><rect class="cls-2" x="2075" y="25" width="350" height="450" rx="6.66" ry="6.66"/><rect class="cls-3" x="2087.5" y="412.5" width="325" height="50" rx="6.66" ry="6.66"/><rect class="cls-4" x="2087.5" y="350" width="325" height="50" rx="6.66" ry="6.66"/><rect class="cls-5" x="2087.5" y="287.5" width="325" height="50" rx="6.66" ry="6.66"/><rect class="cls-6" x="2087.5" y="225" width="325" height="50" rx="6.66" ry="6.66"/></g><g id="Layer_1_copy_5" data-name="Layer 1 copy 5"><rect class="cls-1" x="2500" width="500" height="500"/><rect class="cls-2" x="2575" y="25" width="350" height="450" rx="6.66" ry="6.66"/><rect class="cls-3" x="2587.5" y="412.5" width="325" height="50" rx="6.66" ry="6.66"/><rect class="cls-4" x="2587.5" y="350" width="325" height="50" rx="6.66" ry="6.66"/><rect class="cls-5" x="2587.5" y="287.5" width="325" height="50" rx="6.66" ry="6.66"/><rect class="cls-6" x="2587.5" y="225" width="325" height="50" rx="6.66" ry="6.66"/><rect class="cls-7" x="2587.5" y="162.5" width="325" height="50" rx="6.66" ry="6.66"/></g><g id="Layer_1_copy_7" data-name="Layer 1 copy 7"><rect class="cls-1" x="3000" width="500" height="500"/><rect class="cls-2" x="3075" y="25" width="350" height="450" rx="6.66" ry="6.66"/><rect class="cls-3" x="3087.5" y="412.5" width="325" height="50" rx="6.66" ry="6.66"/><rect class="cls-4" x="3087.5" y="350" width="325" height="50" rx="6.66" ry="6.66"/><rect class="cls-5" x="3087.5" y="287.5" width="325" height="50" rx="6.66" ry="6.66"/><rect class="cls-6" x="3087.5" y="225" width="325" height="50" rx="6.66" ry="6.66"/><rect class="cls-7" x="3087.5" y="162.5" width="325" height="50" rx="6.66" ry="6.66"/><rect class="cls-8" x="3087.5" y="100" width="325" height="50" rx="6.66" ry="6.66"/></g><g id="Layer_1_copy_8" data-name="Layer 1 copy 8"><rect class="cls-1" x="3500" width="500" height="500"/><rect class="cls-2" x="3575" y="25" width="350" height="450" rx="6.66" ry="6.66"/><rect class="cls-3" x="3587.5" y="412.5" width="325" height="50" rx="6.66" ry="6.66"/><rect class="cls-4" x="3587.5" y="350" width="325" height="50" rx="6.66" ry="6.66"/><rect class="cls-5" x="3587.5" y="287.5" width="325" height="50" rx="6.66" ry="6.66"/><rect class="cls-6" x="3587.5" y="225" width="325" height="50" rx="6.66" ry="6.66"/><rect class="cls-7" x="3587.5" y="162.5" width="325" height="50" rx="6.66" ry="6.66"/><rect class="cls-8" x="3587.5" y="100" width="325" height="50" rx="6.66" ry="6.66"/><rect class="cls-9" x="3587.5" y="37.5" width="325" height="50" rx="6.66" ry="6.66"/></g></g></svg>
