<svg xmlns="http://www.w3.org/2000/svg" width="178.66" height="162.1" viewBox="0 0 178.66 162.1"><defs><style>.cls-1{fill:#fff;}.cls-2{fill:none;stroke:#47b759;stroke-miterlimit:10;stroke-width:13px;}.cls-3{fill:#47b759;}</style></defs><title>Asset 2</title><g id="Layer_2" data-name="Layer 2"><g id="Layer_9" data-name="Layer 9"><path class="cls-1" d="M176.42,148.07c-11.23-22.87-8-20.61-8-28,0-7,18.7-120.45-54.89-120.08S33,43.25,33,43.25s-8.4,45.82,20.35,65.24c16.28,11-25.68,32.25-25.68,32.25s-5.95,2.93,0,7.33-7.83,0-7.83,0-4.67,2-3.47,5.5a15.14,15.14,0,0,0-1.55,0C7.2,154.06-.43,151.27,0,156.39s9,1.86,9,1.86a6.44,6.44,0,0,1,5.84.47c1.24.85,3.37-.28,4.38-1.69a22.89,22.89,0,0,0,2.51,1.68c11.27,6.6,101.71,2.81,126.76-4.64C159,150.93,186.66,168.92,176.42,148.07Z"/><path class="cls-2" d="M105.44,63.49A22.56,22.56,0,1,0,128,86"/><polygon class="cls-3" points="101.64 50.53 124.09 63.49 101.64 76.45 101.64 50.53"/></g></g></svg>
