<svg xmlns="http://www.w3.org/2000/svg" width="200" height="200" viewBox="0 0 200 200"><defs><style>.cls-1,.cls-2{fill:none;}.cls-1{stroke:#930909;stroke-miterlimit:10;stroke-width:8.5px;}</style></defs><title>Asset 6</title><g id="Layer_2" data-name="Layer 2"><g id="Layer_1-2" data-name="Layer 1"><path class="cls-1" d="M172.2,170.91s-5.06-42.58-67.12-25.26S49.51,182.46,81.26,183.9s85.16-13,88.05-44.74S120,109.58,102.19,112.45c-14.43,2.33-71.45,18-51.24,28.15s115.24-15.09,108.26-46.19c-6-26.58-71-21.26-102.49-8.66-36.08,14.43-39,40.42,67.84,10.1,47.88-13.58,31.76-64.95-21.65-57.73S.43,71.32,45.18,68.43s121.24-23.1,105.37-41.86S69.71,15,38,28"/><rect class="cls-2" width="200" height="200"/></g></g></svg>
