<svg xmlns="http://www.w3.org/2000/svg" width="2000" height="500" viewBox="0 0 2000 500"><defs><style>.cls-1{fill:none;}.cls-2{fill:#fff;}.cls-3{font-size:50.43px;fill:#47b859;font-family:Chewy-Regular, Chewy;}.cls-4{letter-spacing:-0.01em;}.cls-5{letter-spacing:-0.03em;}</style></defs><title>Asset 2</title><g id="Layer_2" data-name="Layer 2"><g id="f1"><rect class="cls-1" width="500" height="500"/><path class="cls-2" d="M299.46,126.56s5-47.13,53.83-32.47c0,0,19.19-51.24,64.64-17.83,0,0,30.68-13.59,48.31,21.35,0,0,51.59,30.69,5.84,71.67,0,0-11.17,49.85-59.76,26.9,0,0-9.07,4.88-28.1-.08,0,0-40.17,35.06-62.68-8.94C321.54,187.16,263.61,167.48,299.46,126.56Z"/><circle class="cls-2" cx="292.8" cy="249.97" r="6.51"/><circle class="cls-2" cx="220.43" cy="260.35" r="7.36"/></g><g id="f2"><rect class="cls-1" x="500" width="500" height="500"/><circle class="cls-2" cx="808.64" cy="217.49" r="13.02"/><circle class="cls-2" cx="792.8" cy="249.97" r="6.51"/><circle class="cls-2" cx="705.53" cy="228.63" r="14.73"/><circle class="cls-2" cx="720.43" cy="260.35" r="7.36"/></g><g id="f3"><rect class="cls-1" x="1000" width="500" height="500"/><path class="cls-2" d="M1299.46,126.56s5-47.13,53.83-32.47c0,0,19.19-51.24,64.64-17.83,0,0,30.68-13.59,48.31,21.35,0,0,51.59,30.69,5.84,71.67,0,0-11.17,49.85-59.76,26.9,0,0-9.07,4.88-28.1-.08,0,0-40.17,35.06-62.68-8.94C1321.54,187.16,1263.61,167.48,1299.46,126.56Z"/><circle class="cls-2" cx="1308.64" cy="217.49" r="13.02"/><circle class="cls-2" cx="1292.8" cy="249.97" r="6.51"/><path class="cls-2" d="M1196.42,136.9s-13.07-45.74-58.81-22.87c0,0-27.77-47.37-67-6.53,0,0-32.67-8.17-44.11,29.4,0,0-45.74,39.21,6.54,71.88,0,0,19.6,47.37,63.71,16.33,0,0,9.8,3.27,27.77-4.9,0,0,45.74,27.77,60.44-19.6C1185,200.61,1238.89,171.21,1196.42,136.9Z"/><circle class="cls-2" cx="1205.53" cy="228.63" r="14.73"/><circle class="cls-2" cx="1220.43" cy="260.35" r="7.36"/></g><g id="f4"><rect class="cls-1" x="1500" width="500" height="500"/><path class="cls-2" d="M1799.46,126.56s5-47.13,53.83-32.47c0,0,19.19-51.24,64.64-17.83,0,0,30.68-13.59,48.31,21.35,0,0,51.59,30.69,5.84,71.67,0,0-11.17,49.85-59.76,26.9,0,0-9.07,4.88-28.1-.08,0,0-40.17,35.06-62.68-8.94C1821.54,187.16,1763.61,167.48,1799.46,126.56Z"/><circle class="cls-2" cx="1808.64" cy="217.49" r="13.02"/><circle class="cls-2" cx="1792.8" cy="249.97" r="6.51"/><text class="cls-3" transform="translate(1822.57 159.62)">JUMP?</text><path class="cls-2" d="M1696.42,136.9s-13.07-45.74-58.81-22.87c0,0-27.77-47.37-67-6.53,0,0-32.67-8.17-44.11,29.4,0,0-45.74,39.21,6.54,71.88,0,0,19.6,47.37,63.71,16.33,0,0,9.8,3.27,27.77-4.9,0,0,45.74,27.77,60.44-19.6C1685,200.61,1738.89,171.21,1696.42,136.9Z"/><circle class="cls-2" cx="1705.53" cy="228.63" r="14.73"/><circle class="cls-2" cx="1720.43" cy="260.35" r="7.36"/><text class="cls-3" transform="translate(1555.31 186.85)">S<tspan class="cls-4" x="17.83" y="0">T</tspan><tspan class="cls-5" x="36.1" y="0">A</tspan><tspan x="62.64" y="0">Y?</tspan></text></g></g></svg>
