<svg xmlns="http://www.w3.org/2000/svg" width="268.73" height="288.71" viewBox="0 0 268.73 288.71"><defs><style>.cls-1{fill:blue;}</style></defs><title>Asset 1</title><g id="Layer_2" data-name="Layer 2"><g id="Layer_1-2" data-name="Layer 1"><g id="Layer_2-2" data-name="Layer 2"><g id="Layer_1-2-2" data-name="Layer 1-2"><path class="cls-1" d="M133.1.5.57,125.66a1.85,1.85,0,0,0-.06,2.61,1.81,1.81,0,0,0,1.32.56H18.36v158a1.88,1.88,0,0,0,1.88,1.88H248.49a1.88,1.88,0,0,0,1.88-1.88h0v-158H266.9a1.84,1.84,0,0,0,1.83-1.85,1.88,1.88,0,0,0-.57-1.32L135.63.5A1.84,1.84,0,0,0,133.1.5Z"/></g></g></g></g></svg>
