<svg xmlns="http://www.w3.org/2000/svg" width="321.44" height="289.36" viewBox="0 0 321.44 289.36"><defs><style>.cls-1{fill:blue;}</style></defs><title>Asset 1</title><g id="Layer_2" data-name="Layer 2"><g id="Layer_1-2" data-name="Layer 1"><g id="Layer_2-2" data-name="Layer 2"><g id="Layer_2-2-2" data-name="Layer 2-2"><path class="cls-1" d="M310.57,240.58c-5.85-8-21.26-25.31-120.09-50.9,0,0,26.8-24.7,26.42-58.81,0,0,12.47-1.27,14.41-25.22,1.22-15.1-1.79-15.23-4.21-16.8s6.22-49.6-14.93-69.71S176.18,1,160.72,0c-15.46,1-30.3-1-51.45,19.14S96.75,87.28,94.33,88.85s-5.42,1.7-4.2,16.8c1.94,23.95,14.41,25.22,14.41,25.22C104.16,165,131,189.68,131,189.68c-98.82,25.59-114.23,42.88-120.08,50.9C1.09,254,0,289.36,0,289.36H321.44S320.35,254,310.57,240.58Z"/></g></g></g></g></svg>
