<?xml version="1.0" standalone="no"?>
<!DOCTYPE svg PUBLIC "-//W3C//DTD SVG 20010904//EN"
 "http://www.w3.org/TR/2001/REC-SVG-20010904/DTD/svg10.dtd">
<svg version="1.0" xmlns="http://www.w3.org/2000/svg"
 width="260.000000pt" height="260.000000pt" viewBox="0 0 260.000000 260.000000"
 preserveAspectRatio="xMidYMid meet">
<metadata>
Created by potrace 1.11, written by Peter Selinger 2001-2013
</metadata>
<g transform="translate(0.000000,260.000000) scale(0.100000,-0.100000)"
fill="#000000" stroke="none">
<path d="M0 1300 l0 -1300 1300 0 1300 0 0 1300 0 1300 -1300 0 -1300 0 0
-1300z m1963 -65 l605 -1190 -633 -3 c-348 -1 -921 -1 -1273 0 l-640 3 636
1253 637 1252 32 -62 c17 -35 304 -598 636 -1253z"/>
<path d="M1282 1395 c-16 -35 -16 -35 13 -35 28 0 30 5 12 38 l-13 23 -12 -26z"/>
<path d="M1236 1305 c-9 -13 -16 -27 -16 -30 0 -3 34 -5 75 -5 l76 0 -16 30
c-14 26 -21 30 -59 30 -35 0 -47 -5 -60 -25z"/>
<path d="M1190 1221 c-5 -11 -10 -22 -10 -25 0 -3 52 -6 115 -6 63 0 115 3
115 6 0 3 -5 14 -10 25 -9 17 -22 19 -105 19 -83 0 -96 -2 -105 -19z"/>
<path d="M1150 1141 c-21 -39 -15 -41 145 -41 160 0 166 2 145 41 -10 17 -22
19 -145 19 -123 0 -135 -2 -145 -19z"/>
<path d="M1102 1045 l-12 -25 205 0 205 0 -12 25 -11 25 -182 0 -182 0 -11
-25z"/>
<path d="M1060 961 c-5 -11 -10 -22 -10 -25 0 -3 110 -6 245 -6 135 0 245 3
245 6 0 3 -5 14 -10 25 -10 18 -23 19 -235 19 -212 0 -225 -1 -235 -19z"/>
<path d="M1020 881 c-5 -11 -10 -22 -10 -25 0 -3 128 -6 285 -6 157 0 285 3
285 6 0 3 -5 14 -10 25 -10 18 -24 19 -275 19 -251 0 -265 -1 -275 -19z"/>
<path d="M975 790 l-16 -30 336 0 336 0 -16 30 -16 30 -304 0 -304 0 -16 -30z"/>
<path d="M932 705 c-7 -14 -12 -28 -12 -30 0 -3 169 -5 375 -5 206 0 375 2
375 5 0 2 -5 16 -12 30 l-11 25 -352 0 -352 0 -11 -25z"/>
<path d="M886 615 l-16 -25 425 0 425 0 -16 25 -16 25 -393 0 -393 0 -16 -25z"/>
<path d="M853 548 c-30 -39 -41 -38 443 -38 l466 0 -14 23 -15 22 -435 3
c-341 2 -437 -1 -445 -10z"/>
<path d="M800 451 c-5 -11 -10 -22 -10 -25 0 -3 227 -6 505 -6 278 0 505 3
505 6 0 3 -5 14 -10 25 -10 18 -26 19 -495 19 -469 0 -485 -1 -495 -19z"/>
<path d="M752 355 l-12 -25 555 0 555 0 -12 25 -11 25 -532 0 -532 0 -11 -25z"/>
<path d="M710 271 c-5 -11 -10 -22 -10 -25 0 -3 268 -6 595 -6 327 0 595 3
595 6 0 3 -5 14 -10 25 -10 18 -27 19 -585 19 -558 0 -575 -1 -585 -19z"/>
<path d="M670 191 c-5 -11 -10 -22 -10 -25 0 -3 286 -6 635 -6 349 0 635 3
635 6 0 3 -5 14 -10 25 -10 18 -28 19 -625 19 -597 0 -615 -1 -625 -19z"/>
<path d="M625 100 l-16 -30 686 0 686 0 -16 30 -16 30 -654 0 -654 0 -16 -30z"/>
</g>
</svg>
