<svg xmlns="http://www.w3.org/2000/svg" viewBox="0 0 146 220"><defs><style>.cls-1{fill:#202532;}.cls-2{fill:#f2dbc9;}.cls-3{fill:#e5c8b5;}.cls-4{fill:#ff7bac;}.cls-5{fill:#42210b;}.cls-6{fill:#603813;}.cls-7{fill:#fff;}.cls-8{fill:#c1272d;opacity:0.17;}</style></defs><title>Ida_FD2</title><g id="Layer_3" data-name="Layer 3"><rect class="cls-1" x="-4" y="130" width="153.01" height="131" rx="36.4" ry="36.4"/><path class="cls-2" d="M121,93.45c-.09.5-.19,1-.29,1.5C120.81,94.45,120.91,94,121,93.45Z"/><path class="cls-2" d="M120.45,96.32c-.11.53-.25,1.06-.37,1.59C120.21,97.38,120.34,96.85,120.45,96.32Z"/><path class="cls-2" d="M120.71,68c.1.5.2,1,.29,1.5C120.91,69,120.81,68.55,120.71,68Z"/><path class="cls-2" d="M119.79,99.13c-.14.56-.31,1.11-.46,1.66C119.48,100.24,119.65,99.69,119.79,99.13Z"/><path class="cls-2" d="M121.43,90.53c-.06.47-.14.93-.21,1.4C121.3,91.46,121.37,91,121.43,90.53Z"/><path class="cls-2" d="M121.75,87.56c0,.44-.09.87-.14,1.31C121.65,88.43,121.71,88,121.75,87.56Z"/><path class="cls-2" d="M121.23,71.07c.07.47.15.93.21,1.4C121.37,72,121.3,71.54,121.23,71.07Z"/><path class="cls-2" d="M118.14,104.57c-.21.6-.44,1.19-.67,1.78C117.7,105.76,117.93,105.17,118.14,104.57Z"/><path class="cls-2" d="M121.61,74.12c0,.44.1.87.14,1.31C121.71,75,121.65,74.56,121.61,74.12Z"/><path class="cls-2" d="M121.86,77.29c0,.39.06.77.07,1.16C121.92,78.06,121.89,77.68,121.86,77.29Z"/><path class="cls-2" d="M121.94,84.55c0,.39,0,.77-.07,1.15C121.89,85.32,121.92,84.94,121.94,84.55Z"/><path class="cls-2" d="M119,101.88c-.17.58-.37,1.14-.56,1.71C118.65,103,118.84,102.46,119,101.88Z"/><path class="cls-2" d="M117.16,107.19c-.25.62-.51,1.23-.78,1.83C116.65,108.42,116.91,107.81,117.16,107.19Z"/><path class="cls-2" d="M109.27,121.32q-.74,1-1.51,1.93Q108.53,122.3,109.27,121.32Z"/><path class="cls-2" d="M107.65,123.38q-.8,1-1.64,1.89Q106.85,124.35,107.65,123.38Z"/><path class="cls-2" d="M106,125.34q-.86,1-1.76,1.85Q105.09,126.29,106,125.34Z"/><path class="cls-2" d="M73,22c11.86.14,22.72,5.29,31.19,13.78C95.6,27.19,84.56,22,72.5,22,45.16,22,23,48.64,23,81.5S45.16,141,72.5,141c12.06,0,23.1-5.19,31.69-13.79C95.72,135.69,84.86,140.84,73,141Z"/><path class="cls-2" d="M110.81,119.18c-.45.66-.92,1.31-1.39,1.94C109.89,120.48,110.36,119.84,110.81,119.18Z"/><path class="cls-2" d="M116.08,109.74c-.28.63-.59,1.25-.89,1.87C115.49,111,115.79,110.38,116.08,109.74Z"/><path class="cls-2" d="M112.26,116.94c-.41.66-.83,1.3-1.26,1.94C111.43,118.24,111.85,117.6,112.26,116.94Z"/><path class="cls-2" d="M114.9,112.22c-.32.64-.66,1.27-1,1.89C114.24,113.49,114.58,112.86,114.9,112.22Z"/><path class="cls-2" d="M113.62,114.62c-.36.65-.74,1.29-1.13,1.92C112.88,115.91,113.26,115.27,113.62,114.62Z"/><path class="cls-2" d="M104.2,35.8q.9.9,1.76,1.85Q105.1,36.71,104.2,35.8Z"/><path class="cls-2" d="M118.46,59.41c.19.57.38,1.13.56,1.71C118.84,60.54,118.65,60,118.46,59.41Z"/><path class="cls-2" d="M112.5,46.46c.38.63.76,1.27,1.13,1.92C113.26,47.73,112.88,47.09,112.5,46.46Z"/><path class="cls-2" d="M111,44.12c.43.64.85,1.28,1.26,1.94C111.85,45.4,111.43,44.76,111,44.12Z"/><path class="cls-2" d="M113.9,48.89c.34.62.68,1.25,1,1.89C114.58,50.14,114.24,49.51,113.9,48.89Z"/><path class="cls-2" d="M109.42,41.88c.47.64.94,1.28,1.39,1.94C110.36,43.16,109.89,42.52,109.42,41.88Z"/><path class="cls-2" d="M116.38,54c.26.61.53,1.21.77,1.83C116.91,55.19,116.65,54.59,116.38,54Z"/><path class="cls-2" d="M117.48,56.65c.23.59.45,1.18.66,1.78C117.93,57.83,117.7,57.24,117.48,56.65Z"/><path class="cls-2" d="M119.33,62.22c.16.55.32,1.1.46,1.65C119.65,63.31,119.48,62.77,119.33,62.22Z"/><path class="cls-2" d="M120.08,65.1c.13.53.26,1.05.37,1.58C120.34,66.15,120.21,65.63,120.08,65.1Z"/><path class="cls-2" d="M107.76,39.75q.77.94,1.51,1.92Q108.54,40.69,107.76,39.75Z"/><path class="cls-2" d="M106,37.73q.84.93,1.64,1.89Q106.85,38.65,106,37.73Z"/><path class="cls-2" d="M115.19,51.39c.3.62.6,1.24.89,1.87C115.79,52.62,115.49,52,115.19,51.39Z"/><path class="cls-3" d="M104.2,127.2q.9-.9,1.76-1.85l.06-.07q.84-.92,1.64-1.89l.1-.13q.77-.94,1.51-1.93l.15-.2c.47-.64.94-1.28,1.39-1.94l.19-.3c.43-.64.85-1.28,1.26-1.94l.24-.4c.38-.63.76-1.27,1.13-1.92l.27-.51c.34-.62.68-1.25,1-1.89.1-.2.19-.41.29-.61.3-.62.6-1.24.89-1.87.11-.24.2-.48.31-.72.26-.61.53-1.21.78-1.83.11-.28.21-.56.31-.84.23-.59.46-1.18.67-1.78.11-.32.21-.65.32-1,.19-.57.38-1.13.56-1.71.11-.36.2-.73.31-1.09.16-.55.32-1.1.46-1.66.1-.4.19-.82.29-1.23s.26-1.05.37-1.59.18-.91.26-1.37.2-1,.29-1.5.15-1,.23-1.52.15-.93.21-1.4.12-1.11.18-1.66.1-.87.14-1.31c.05-.62.08-1.24.12-1.86,0-.38.06-.76.07-1.15Q122,83,122,81.5t-.06-3.05c0-.39-.05-.77-.07-1.16,0-.62-.07-1.24-.12-1.85,0-.44-.09-.87-.14-1.31s-.11-1.11-.18-1.66-.14-.93-.21-1.4-.14-1-.23-1.52-.19-1-.29-1.5-.17-.91-.26-1.37-.25-1.06-.37-1.58-.19-.82-.29-1.23c-.14-.56-.31-1.1-.46-1.65-.1-.37-.2-.74-.31-1.1-.17-.58-.37-1.14-.56-1.71-.11-.33-.21-.66-.32-1-.21-.6-.44-1.19-.66-1.78-.11-.28-.21-.57-.32-.84-.25-.62-.51-1.22-.77-1.83-.1-.24-.2-.49-.31-.72-.28-.63-.59-1.25-.89-1.87-.1-.2-.19-.41-.29-.61-.32-.64-.66-1.26-1-1.89l-.27-.51c-.36-.65-.74-1.29-1.13-1.92l-.24-.4c-.41-.66-.83-1.3-1.26-1.94l-.19-.3c-.45-.66-.92-1.31-1.39-1.94l-.15-.2q-.74-1-1.51-1.92l-.1-.13q-.8-1-1.64-1.89l-.06-.07q-.86-1-1.76-1.85h0C95.72,27.31,84.86,22.16,73,22V141c11.86-.14,22.72-5.29,31.19-13.78Z"/><path class="cls-4" d="M58.06,111.9H88.26S85.63,127,73.82,127,58.06,111.9,58.06,111.9Z"/><path class="cls-5" d="M97.37,34.06S85.45,64.21,74.8,58.29,64.14,40.53,64.14,40.53,70,59.28,58.33,60.26a11.13,11.13,0,0,1-2.15,0,13.29,13.29,0,0,0-13.95,9c-1.16,3.4-3.1,6-6.18,6.8-5.58,1.5-6.27,22-5.32,27.32.51,2.85,4.42,5.27,5.32,11.17,1.14,7.57,6.3,14.64,10.33,19.17A14.18,14.18,0,0,1,49,148.08c-2.18,5.82-6.13,12.3-13,12.83-12.59,1-21.91-6.9-24.52-18.25-1.77-7.73,1.26-18,3.37-23.73a14.15,14.15,0,0,0,.32-8.77c-1.6-5.59-3.46-15.25.49-21.28,5.81-8.88-4.84-19.74,0-26.64s-6.78-14.8,2.91-28.62c8-11.42,22-18.79,26.57-21a14.36,14.36,0,0,0,2.46-1.49C50.62,8.87,61,2.73,82.55,6c20.36,3.07,30.74,20.5,34.34,28.07a14.25,14.25,0,0,0,4.78,5.61c5,3.42,13.61,10.53,12.22,17.64-1.94,9.87-2.91,11.84-7.75,17.76S130.69,92.25,132,94c3.15,4.2,3.72,5.83,3.78,9.28a14.73,14.73,0,0,1-.71,4.87c-1.43,4.39-3,16.92-8.07,19.85-4.15,2.42-1.47,7.19,1,13,2.3,5.4-.13,12.58-5.25,15.35C116,160,107,161.5,105,158c0,0-5.47-4.95-6-15-.46-8.6,2.39-15.62,6.91-19.77a8.11,8.11,0,0,0,2.49-6,4.67,4.67,0,0,1,1.8-3.91s-5.65-5.75,1.41-27.37c2.33-7.14,2.13-19.23.62-26.34A14,14,0,0,0,107.83,52c-4.6-4.07-12.33-12-10.46-17.95"/><circle class="cls-6" cx="89.42" cy="77.06" r="6.97"/><circle class="cls-6" cx="58.06" cy="77.06" r="6.97"/><path class="cls-5" d="M47.61,68.94s3.48-7,9.29-4.65"/><path class="cls-5" d="M100.18,67.29s-4.26-6.52-9.76-3.54"/><circle class="cls-7" cx="55.74" cy="75.9" r="1.16"/><circle class="cls-7" cx="85.94" cy="75.9" r="1.16"/><circle class="cls-8" cx="50.13" cy="97.97" r="8.13"/><circle class="cls-8" cx="96.87" cy="96.81" r="8.13"/></g></svg>
