<svg xmlns="http://www.w3.org/2000/svg" viewBox="0 0 146 220"><defs><style>.cls-1{fill:#202532;}.cls-2{fill:#f2dbc9;}.cls-3{fill:#cea086;}.cls-4{fill:#d3a276;}.cls-5{fill:#ff7bac;}.cls-6{fill:#381806;}.cls-7{fill:#42210b;}.cls-8{fill:#020202;}.cls-9{fill:#fff;}.cls-10{fill:#c1272d;opacity:0.17;}</style></defs><title>Mei_FD2</title><g id="Layer_4" data-name="Layer 4"><rect class="cls-1" x="-5.18" y="123" width="154.18" height="132" rx="36.4" ry="36.4"/><path class="cls-2" d="M73,131a43.89,43.89,0,0,0,27.9-10.76A43.91,43.91,0,0,1,73,131Z"/><path class="cls-2" d="M100.9,22.77A43.89,43.89,0,0,0,73,12h0A43.91,43.91,0,0,1,100.9,22.77Z"/><path class="cls-2" d="M100.93,22.79q.83.71,1.64,1.45Q101.76,23.5,100.93,22.79Z"/><path class="cls-2" d="M102.57,118.76q-.81.74-1.64,1.45Q101.76,119.5,102.57,118.76Z"/><path class="cls-3" d="M121.94,68.45c0-.39-.05-.77-.07-1.16,0-.62-.07-1.24-.12-1.85,0-.44-.09-.87-.14-1.31s-.11-1.11-.18-1.66-.14-.93-.21-1.4-.14-1-.23-1.52-.19-1-.29-1.5-.17-.91-.26-1.37-.25-1.06-.37-1.58-.19-.82-.29-1.23c-.14-.56-.31-1.1-.46-1.65-.1-.37-.2-.74-.31-1.1-.17-.58-.37-1.14-.56-1.71-.11-.33-.21-.66-.32-1-.21-.6-.44-1.19-.66-1.78-.11-.28-.21-.57-.32-.84-.25-.62-.51-1.22-.77-1.83-.1-.24-.2-.49-.31-.72-.28-.63-.59-1.25-.89-1.87-.1-.2-.19-.41-.29-.61-.32-.64-.66-1.26-1-1.89l-.27-.51c-.36-.65-.74-1.29-1.13-1.92l-.24-.4c-.41-.66-.83-1.3-1.26-1.94l-.19-.3c-.45-.66-.92-1.31-1.39-1.94l-.15-.2q-.74-1-1.51-1.92l-.1-.13q-.8-1-1.64-1.89l-.06-.07q-.86-1-1.76-1.85h0q-.79-.8-1.62-1.55t-1.64-1.45l0,0A43.91,43.91,0,0,0,73,12V131a43.91,43.91,0,0,0,27.9-10.76l0,0q.83-.71,1.64-1.45t1.62-1.55h0q.9-.9,1.76-1.85l.06-.07q.84-.92,1.64-1.89l.1-.13q.77-.94,1.51-1.93l.15-.2c.47-.64.94-1.28,1.39-1.94l.19-.3c.43-.64.85-1.28,1.26-1.94l.24-.4c.38-.63.76-1.27,1.13-1.92l.27-.51c.34-.62.68-1.25,1-1.89.1-.2.19-.41.29-.61.3-.62.6-1.24.89-1.87.11-.24.2-.48.31-.72.26-.61.53-1.21.78-1.83.11-.28.21-.56.31-.84.23-.59.46-1.18.67-1.78.11-.32.21-.65.32-1,.19-.57.38-1.13.56-1.71.11-.36.2-.73.31-1.09.16-.55.32-1.1.46-1.66.1-.4.19-.82.29-1.23s.26-1.05.37-1.59.18-.91.26-1.37.2-1,.29-1.5.15-1,.23-1.52.15-.93.21-1.4.12-1.11.18-1.66.1-.87.14-1.31c.05-.62.08-1.24.12-1.86,0-.38.06-.76.07-1.15Q122,73,122,71.5T121.94,68.45Z"/><path class="cls-4" d="M73,12h-.5C45.16,12,23,38.64,23,71.5S45.16,131,72.5,131H73Z"/><path class="cls-5" d="M57.07,101.66H87.75S85.09,117,73.08,117,57.07,101.66,57.07,101.66Z"/><circle class="cls-6" cx="88.93" cy="66.25" r="7.08"/><circle class="cls-6" cx="57.07" cy="66.25" r="7.08"/><path class="cls-7" d="M46.44,58S50,50.9,55.89,53.26"/><path class="cls-7" d="M99.87,56.31s-4.33-6.63-9.92-3.6"/><path class="cls-8" d="M76.1,27.11a5.26,5.26,0,0,0-8.69,0C59.36,39,42.4,62.8,32,68c-8.78,4.39-2.23,29.94,8.92,45.36C45,119,49,123,49,127c0,3.16,7.44,45.56,5,47s-13,12-19,13c-5.4.9-14-6-18-8-5.2-2.6-6-38-6-46C11,109.81,2,6,70,5s75,149,62,164c-3.94,4.55-9.53,15-18,15s-18.44-12.88-20-16c-2-4-.22-37.07,1-40,5-12,26.72-45.38,17-64C101.07,43.05,90,47.54,76.1,27.11Z"/><circle class="cls-9" cx="54.76" cy="66.19" r="1.24"/><circle class="cls-9" cx="85.61" cy="66.03" r="1.39"/><circle class="cls-10" cx="47.67" cy="89.26" r="7.67"/><circle class="cls-10" cx="96.33" cy="88.08" r="7.67"/></g></svg>
