<svg xmlns="http://www.w3.org/2000/svg" viewBox="0 0 146 220"><defs><style>.cls-1{fill:#202532;}.cls-2{fill:#f2dbc9;}.cls-3{fill:#e5c8b5;}.cls-4{fill:#ff7bac;}.cls-5{fill:#2a4939;}.cls-6{fill:#935b2c;}.cls-7{fill:none;stroke:#f7bfd8;stroke-miterlimit:10;}.cls-8{fill:#fff;}.cls-9{fill:#c1272d;opacity:0.17;}</style></defs><title>Mia_FD2</title><g id="Layer_5" data-name="Layer 5"><rect class="cls-1" x="-6" y="122" width="157" height="134.42" rx="36.4" ry="36.4"/><path class="cls-2" d="M121,82.45c-.09.5-.19,1-.29,1.5C120.81,83.45,120.91,83,121,82.45Z"/><path class="cls-2" d="M120.45,85.32c-.11.53-.25,1.06-.37,1.59C120.21,86.38,120.34,85.85,120.45,85.32Z"/><path class="cls-2" d="M120.71,57c.1.5.2,1,.29,1.5C120.91,58,120.81,57.55,120.71,57Z"/><path class="cls-2" d="M119.79,88.13c-.14.56-.31,1.11-.46,1.66C119.48,89.24,119.65,88.69,119.79,88.13Z"/><path class="cls-2" d="M121.43,79.53c-.06.47-.14.93-.21,1.4C121.3,80.46,121.37,80,121.43,79.53Z"/><path class="cls-2" d="M121.75,76.56c0,.44-.09.87-.14,1.31C121.65,77.43,121.71,77,121.75,76.56Z"/><path class="cls-2" d="M121.23,60.07c.07.47.15.93.21,1.4C121.37,61,121.3,60.54,121.23,60.07Z"/><path class="cls-2" d="M118.14,93.57c-.21.6-.44,1.19-.67,1.78C117.7,94.76,117.93,94.17,118.14,93.57Z"/><path class="cls-2" d="M121.61,63.12c0,.44.1.87.14,1.31C121.71,64,121.65,63.56,121.61,63.12Z"/><path class="cls-2" d="M121.86,66.29c0,.39.06.77.07,1.16C121.92,67.06,121.89,66.68,121.86,66.29Z"/><path class="cls-2" d="M121.94,73.55c0,.39,0,.77-.07,1.15C121.89,74.32,121.92,73.94,121.94,73.55Z"/><path class="cls-2" d="M119,90.88c-.17.58-.37,1.14-.56,1.71C118.65,92,118.84,91.46,119,90.88Z"/><path class="cls-2" d="M117.16,96.19c-.25.62-.51,1.23-.78,1.83C116.65,97.42,116.91,96.81,117.16,96.19Z"/><path class="cls-2" d="M109.27,110.32q-.74,1-1.51,1.93Q108.53,111.3,109.27,110.32Z"/><path class="cls-2" d="M107.65,112.38q-.8,1-1.64,1.89Q106.85,113.35,107.65,112.38Z"/><path class="cls-2" d="M106,114.34q-.86,1-1.76,1.85Q105.09,115.29,106,114.34Z"/><path class="cls-2" d="M73,11c11.86.14,22.72,5.29,31.19,13.78C95.6,16.19,84.56,11,72.5,11,45.16,11,23,37.64,23,70.5S45.16,130,72.5,130c12.06,0,23.1-5.19,31.69-13.79C95.72,124.69,84.86,129.84,73,130Z"/><path class="cls-2" d="M110.81,108.18c-.45.66-.92,1.31-1.39,1.94C109.89,109.48,110.36,108.84,110.81,108.18Z"/><path class="cls-2" d="M116.08,98.74c-.28.63-.59,1.25-.89,1.87C115.49,100,115.79,99.38,116.08,98.74Z"/><path class="cls-2" d="M112.26,105.94c-.41.66-.83,1.3-1.26,1.94C111.43,107.24,111.85,106.6,112.26,105.94Z"/><path class="cls-2" d="M114.9,101.22c-.32.64-.66,1.27-1,1.89C114.24,102.49,114.58,101.86,114.9,101.22Z"/><path class="cls-2" d="M113.62,103.62c-.36.65-.74,1.29-1.13,1.92C112.88,104.91,113.26,104.27,113.62,103.62Z"/><path class="cls-2" d="M104.2,24.8q.9.9,1.76,1.85Q105.1,25.71,104.2,24.8Z"/><path class="cls-2" d="M118.46,48.41c.19.57.38,1.13.56,1.71C118.84,49.54,118.65,49,118.46,48.41Z"/><path class="cls-2" d="M112.5,35.46c.38.63.76,1.27,1.13,1.92C113.26,36.73,112.88,36.09,112.5,35.46Z"/><path class="cls-2" d="M111,33.12c.43.64.85,1.28,1.26,1.94C111.85,34.4,111.43,33.76,111,33.12Z"/><path class="cls-2" d="M113.9,37.89c.34.62.68,1.25,1,1.89C114.58,39.14,114.24,38.51,113.9,37.89Z"/><path class="cls-2" d="M109.42,30.88c.47.64.94,1.28,1.39,1.94C110.36,32.16,109.89,31.52,109.42,30.88Z"/><path class="cls-2" d="M116.38,43c.26.61.53,1.21.77,1.83C116.91,44.19,116.65,43.59,116.38,43Z"/><path class="cls-2" d="M117.48,45.65c.23.59.45,1.18.66,1.78C117.93,46.83,117.7,46.24,117.48,45.65Z"/><path class="cls-2" d="M119.33,51.22c.16.55.32,1.1.46,1.65C119.65,52.31,119.48,51.77,119.33,51.22Z"/><path class="cls-2" d="M120.08,54.1c.13.53.26,1.05.37,1.58C120.34,55.15,120.21,54.63,120.08,54.1Z"/><path class="cls-2" d="M107.76,28.75q.77.94,1.51,1.92Q108.54,29.69,107.76,28.75Z"/><path class="cls-2" d="M106,26.73q.84.93,1.64,1.89Q106.85,27.65,106,26.73Z"/><path class="cls-2" d="M115.19,40.39c.3.62.6,1.24.89,1.87C115.79,41.62,115.49,41,115.19,40.39Z"/><path class="cls-3" d="M104.2,116.2q.9-.9,1.76-1.85l.06-.07q.84-.92,1.64-1.89l.1-.13q.77-.94,1.51-1.93l.15-.2c.47-.64.94-1.28,1.39-1.94l.19-.3c.43-.64.85-1.28,1.26-1.94l.24-.4c.38-.63.76-1.27,1.13-1.92l.27-.51c.34-.62.68-1.25,1-1.89.1-.2.19-.41.29-.61.3-.62.6-1.24.89-1.87.11-.24.2-.48.31-.72.26-.61.53-1.21.78-1.83.11-.28.21-.56.31-.84.23-.59.46-1.18.67-1.78.11-.32.21-.65.32-1,.19-.57.38-1.13.56-1.71.11-.36.2-.73.31-1.09.16-.55.32-1.1.46-1.66.1-.4.19-.82.29-1.23s.26-1.05.37-1.59.18-.91.26-1.37.2-1,.29-1.5.15-1,.23-1.52.15-.93.21-1.4.12-1.11.18-1.66.1-.87.14-1.31c.05-.62.08-1.24.12-1.86,0-.38.06-.76.07-1.15Q122,72,122,70.5t-.06-3.05c0-.39-.05-.77-.07-1.16,0-.62-.07-1.24-.12-1.85,0-.44-.09-.87-.14-1.31s-.11-1.11-.18-1.66-.14-.93-.21-1.4-.14-1-.23-1.52-.19-1-.29-1.5-.17-.91-.26-1.37-.25-1.06-.37-1.58-.19-.82-.29-1.23c-.14-.56-.31-1.1-.46-1.65-.1-.37-.2-.74-.31-1.1-.17-.58-.37-1.14-.56-1.71-.11-.33-.21-.66-.32-1-.21-.6-.44-1.19-.66-1.78-.11-.28-.21-.57-.32-.84-.25-.62-.51-1.22-.77-1.83-.1-.24-.2-.49-.31-.72-.28-.63-.59-1.25-.89-1.87-.1-.2-.19-.41-.29-.61-.32-.64-.66-1.26-1-1.89l-.27-.51c-.36-.65-.74-1.29-1.13-1.92l-.24-.4c-.41-.66-.83-1.3-1.26-1.94l-.19-.3c-.45-.66-.92-1.31-1.39-1.94l-.15-.2q-.74-1-1.51-1.92l-.1-.13q-.8-1-1.64-1.89l-.06-.07q-.86-1-1.76-1.85h0C95.72,16.31,84.86,11.16,73,11V130c11.86-.14,22.72-5.29,31.19-13.78Z"/><path class="cls-4" d="M57.91,104.34H87.23S84.68,119,73.21,119,57.91,104.34,57.91,104.34Z"/><circle class="cls-5" cx="56.78" cy="63.73" r="6.77"/><circle class="cls-5" cx="88.36" cy="63.73" r="6.77"/><path class="cls-6" d="M98,37c-1.34-1.79-8.34-9.78-10.39-8.89C75.24,33.49,47,45.27,38.5,44.5,33.24,44,25.72,72.79,35,96c3.34,8.34,8.81,17.24,12,25,6.37,15.49,1.13,35.61-2,38-4.82,3.68-6.25,1.81-14,3-9.19,1.42-16.58-2.69-19-6-15.18-20.81-9.09-54.09-1-96C19.75,14.66,47.5,6.5,72.5,3.5S111.51,19,116,28c4,8,3.5,6.5,5,11,1.35,4,31.29,86.41,8,111-4,4.23-7.36,8.71-15,9-9.4.36-16.25-5.49-20-11-7.32-10.76,15-39,16-69C110.46,65.32,104,45,98,37Z"/><path class="cls-6" d="M56.78,49.06S46.63,47.93,44.37,54.7"/><path class="cls-6" d="M89.85,47.24s10.21,0,11.68,7"/><circle class="cls-7" cx="56.21" cy="64.29" r="12.41"/><circle class="cls-7" cx="88.93" cy="63.16" r="12.41"/><line class="cls-7" x1="68.62" y1="63.16" x2="76.52" y2="63.16"/><line class="cls-7" x1="43.8" y1="63.16" x2="23.5" y2="62.03"/><line class="cls-7" x1="116" y1="60.91" x2="101.47" y2="63.1"/><circle class="cls-8" cx="54.52" cy="62.6" r="1.13"/><circle class="cls-8" cx="84.98" cy="62.6" r="1.13"/><ellipse class="cls-9" cx="49.19" cy="88.67" rx="7.33" ry="7.9"/><ellipse class="cls-9" cx="96.08" cy="87.54" rx="7.33" ry="7.9"/></g></svg>
