<svg id="Layer_2" data-name="Layer 2" xmlns="http://www.w3.org/2000/svg" viewBox="0 0 146 220"><defs><style>.cls-1{fill:#202532;}.cls-2{fill:#e5d1bd;}.cls-3{fill:#f9dcc0;}.cls-4{fill:#fafbfc;}.cls-5{fill:#22b573;}.cls-6{fill:#c16c27;}.cls-7{fill:#f7931e;}.cls-8{fill:#c6c5c4;opacity:0.39;}.cls-9{fill:#fff;}.cls-10{fill:#c1272d;opacity:0.17;}</style></defs><title>Mikkel_FD2</title><rect class="cls-1" x="-2.84" y="126" width="151.84" height="130" rx="36.4" ry="36.4"/><path class="cls-2" d="M71,14V143c23.2,0,42-28.88,42-64.5S94.2,14,71,14Z"/><path class="cls-3" d="M29,78.5C29,114.12,47.8,143,71,143V14C47.8,14,29,42.88,29,78.5Z"/><path class="cls-4" d="M56.66,115.36H87.94S85.22,131,73,131,56.66,115.36,56.66,115.36Z"/><circle class="cls-5" cx="55.82" cy="69.6" r="7.18"/><circle class="cls-5" cx="88.52" cy="69.61" r="7.39"/><path class="cls-6" d="M105,51c-6.65.72-1.15-5.5-1.15-5.5L28.16,51.74s-15-.64-19.12-14,1-15.38,1-15.38,5.13,11.79,11.79,11.79,0-10.76,0-10.76,11.79,5.13,9.74,8.2S38.77,10.1,64.4,7s31,1.65,39.6,16C108.2,30,111.65,50.28,105,51Z"/><circle class="cls-3" cx="29" cy="71" r="5"/><circle class="cls-2" cx="114" cy="70" r="5"/><path class="cls-7" d="M48.23,60s4.81-7.22,12-4.81"/><path class="cls-7" d="M98.75,61.22S94,54,86.74,56.37"/><path class="cls-8" d="M71.09,73.25S88,99.85,79.55,101.63s-8.46-1.77-8.46-1.77"/><path class="cls-6" d="M113.59,68.23s-6.38-30.57-8-31.4-9.73,3.26-8.17,7.71S113.59,68.23,113.59,68.23Z"/><path class="cls-6" d="M29.36,67.49S46,41.06,45.41,39.34s-9.26-4.41-11.23-.12S29.36,67.49,29.36,67.49Z"/><circle class="cls-9" cx="53.45" cy="68.44" r="1.2"/><circle class="cls-9" cx="84.73" cy="68.23" r="1.2"/><circle class="cls-10" cx="44.02" cy="90.7" r="9.02"/><circle class="cls-10" cx="100.98" cy="90.7" r="9.02"/></svg>
