<svg xmlns="http://www.w3.org/2000/svg" viewBox="0 0 146 220"><defs><style>.cls-1{fill:#202532;}.cls-2{fill:#f2dbc9;}.cls-3{fill:#e5c8b5;}.cls-4{fill:#42210b;}.cls-5{fill:#f7f2f4;}.cls-6{fill:#fff;}.cls-7{fill:#c1272d;opacity:0.17;}.cls-8{opacity:0.12;}.cls-9{fill:#603813;}</style></defs><title>Mini_FD2</title><g id="Layer_6" data-name="Layer 6"><rect class="cls-1" x="-3.74" y="120" width="152.74" height="129" rx="36.4" ry="36.4"/><path class="cls-2" d="M121,84.45c-.09.5-.19,1-.29,1.5C120.81,85.45,120.91,85,121,84.45Z"/><path class="cls-2" d="M120.45,87.32c-.11.53-.25,1.06-.37,1.59C120.21,88.38,120.34,87.85,120.45,87.32Z"/><path class="cls-2" d="M120.71,59c.1.5.2,1,.29,1.5C120.91,60,120.81,59.55,120.71,59Z"/><path class="cls-2" d="M119.79,90.13c-.14.56-.31,1.11-.46,1.66C119.48,91.24,119.65,90.69,119.79,90.13Z"/><path class="cls-2" d="M121.43,81.53c-.06.47-.14.93-.21,1.4C121.3,82.46,121.37,82,121.43,81.53Z"/><path class="cls-2" d="M121.75,78.56c0,.44-.09.87-.14,1.31C121.65,79.43,121.71,79,121.75,78.56Z"/><path class="cls-2" d="M121.23,62.07c.07.47.15.93.21,1.4C121.37,63,121.3,62.54,121.23,62.07Z"/><path class="cls-2" d="M118.14,95.57c-.21.6-.44,1.19-.67,1.78C117.7,96.76,117.93,96.17,118.14,95.57Z"/><path class="cls-2" d="M121.61,65.12c0,.44.1.87.14,1.31C121.71,66,121.65,65.56,121.61,65.12Z"/><path class="cls-2" d="M121.86,68.29c0,.39.06.77.07,1.16C121.92,69.06,121.89,68.68,121.86,68.29Z"/><path class="cls-2" d="M121.94,75.55c0,.39,0,.77-.07,1.15C121.89,76.32,121.92,75.94,121.94,75.55Z"/><path class="cls-2" d="M119,92.88c-.17.58-.37,1.14-.56,1.71C118.65,94,118.84,93.46,119,92.88Z"/><path class="cls-2" d="M117.16,98.19c-.25.62-.51,1.23-.78,1.83C116.65,99.42,116.91,98.81,117.16,98.19Z"/><path class="cls-2" d="M109.27,112.32q-.74,1-1.51,1.93Q108.53,113.3,109.27,112.32Z"/><path class="cls-2" d="M107.65,114.38q-.8,1-1.64,1.89Q106.85,115.35,107.65,114.38Z"/><path class="cls-2" d="M106,116.34q-.86,1-1.76,1.85Q105.09,117.29,106,116.34Z"/><path class="cls-2" d="M73,13c11.86.14,22.72,5.29,31.19,13.78C95.6,18.19,84.56,13,72.5,13,45.16,13,23,39.64,23,72.5S45.16,132,72.5,132c12.06,0,23.1-5.19,31.69-13.79C95.72,126.69,84.86,131.84,73,132Z"/><path class="cls-2" d="M110.81,110.18c-.45.66-.92,1.31-1.39,1.94C109.89,111.48,110.36,110.84,110.81,110.18Z"/><path class="cls-2" d="M116.08,100.74c-.28.63-.59,1.25-.89,1.87C115.49,102,115.79,101.38,116.08,100.74Z"/><path class="cls-2" d="M112.26,107.94c-.41.66-.83,1.3-1.26,1.94C111.43,109.24,111.85,108.6,112.26,107.94Z"/><path class="cls-2" d="M114.9,103.22c-.32.64-.66,1.27-1,1.89C114.24,104.49,114.58,103.86,114.9,103.22Z"/><path class="cls-2" d="M113.62,105.62c-.36.65-.74,1.29-1.13,1.92C112.88,106.91,113.26,106.27,113.62,105.62Z"/><path class="cls-2" d="M104.2,26.8q.9.9,1.76,1.85Q105.1,27.71,104.2,26.8Z"/><path class="cls-2" d="M118.46,50.41c.19.57.38,1.13.56,1.71C118.84,51.54,118.65,51,118.46,50.41Z"/><path class="cls-2" d="M112.5,37.46c.38.63.76,1.27,1.13,1.92C113.26,38.73,112.88,38.09,112.5,37.46Z"/><path class="cls-2" d="M111,35.12c.43.64.85,1.28,1.26,1.94C111.85,36.4,111.43,35.76,111,35.12Z"/><path class="cls-2" d="M113.9,39.89c.34.62.68,1.25,1,1.89C114.58,41.14,114.24,40.51,113.9,39.89Z"/><path class="cls-2" d="M109.42,32.88c.47.64.94,1.28,1.39,1.94C110.36,34.16,109.89,33.52,109.42,32.88Z"/><path class="cls-2" d="M116.38,45c.26.61.53,1.21.77,1.83C116.91,46.19,116.65,45.59,116.38,45Z"/><path class="cls-2" d="M117.48,47.65c.23.59.45,1.18.66,1.78C117.93,48.83,117.7,48.24,117.48,47.65Z"/><path class="cls-2" d="M119.33,53.22c.16.55.32,1.1.46,1.65C119.65,54.31,119.48,53.77,119.33,53.22Z"/><path class="cls-2" d="M120.08,56.1c.13.53.26,1.05.37,1.58C120.34,57.15,120.21,56.63,120.08,56.1Z"/><path class="cls-2" d="M107.76,30.75q.77.94,1.51,1.92Q108.54,31.69,107.76,30.75Z"/><path class="cls-2" d="M106,28.73q.84.93,1.64,1.89Q106.85,29.65,106,28.73Z"/><path class="cls-2" d="M115.19,42.39c.3.62.6,1.24.89,1.87C115.79,43.62,115.49,43,115.19,42.39Z"/><path class="cls-3" d="M104.2,118.2q.9-.9,1.76-1.85l.06-.07q.84-.92,1.64-1.89l.1-.13q.77-.94,1.51-1.93l.15-.2c.47-.64.94-1.28,1.39-1.94l.19-.3c.43-.64.85-1.28,1.26-1.94l.24-.4c.38-.63.76-1.27,1.13-1.92l.27-.51c.34-.62.68-1.25,1-1.89.1-.2.19-.41.29-.61.3-.62.6-1.24.89-1.87.11-.24.2-.48.31-.72.26-.61.53-1.21.78-1.83.11-.28.21-.56.31-.84.23-.59.46-1.18.67-1.78.11-.32.21-.65.32-1,.19-.57.38-1.13.56-1.71.11-.36.2-.73.31-1.09.16-.55.32-1.1.46-1.66.1-.4.19-.82.29-1.23s.26-1.05.37-1.59.18-.91.26-1.37.2-1,.29-1.5.15-1,.23-1.52.15-.93.21-1.4.12-1.11.18-1.66.1-.87.14-1.31c.05-.62.08-1.24.12-1.86,0-.38.06-.76.07-1.15Q122,74,122,72.5t-.06-3.05c0-.39-.05-.77-.07-1.16,0-.62-.07-1.24-.12-1.85,0-.44-.09-.87-.14-1.31s-.11-1.11-.18-1.66-.14-.93-.21-1.4-.14-1-.23-1.52-.19-1-.29-1.5-.17-.91-.26-1.37-.25-1.06-.37-1.58-.19-.82-.29-1.23c-.14-.56-.31-1.1-.46-1.65-.1-.37-.2-.74-.31-1.1-.17-.58-.37-1.14-.56-1.71-.11-.33-.21-.66-.32-1-.21-.6-.44-1.19-.66-1.78-.11-.28-.21-.57-.32-.84-.25-.62-.51-1.22-.77-1.83-.1-.24-.2-.49-.31-.72-.28-.63-.59-1.25-.89-1.87-.1-.2-.19-.41-.29-.61-.32-.64-.66-1.26-1-1.89l-.27-.51c-.36-.65-.74-1.29-1.13-1.92l-.24-.4c-.41-.66-.83-1.3-1.26-1.94l-.19-.3c-.45-.66-.92-1.31-1.39-1.94l-.15-.2q-.74-1-1.51-1.92l-.1-.13q-.8-1-1.64-1.89l-.06-.07q-.86-1-1.76-1.85h0C95.72,18.31,84.86,13.16,73,13V132c11.86-.14,22.72-5.29,31.19-13.78Z"/><path class="cls-4" d="M26.46,94.62,119,93s-12,40-46,40S26.46,94.62,26.46,94.62Z"/><path class="cls-5" d="M57.76,101.19H87.38S84.8,116,73.21,116,57.76,101.19,57.76,101.19Z"/><path class="cls-4" d="M21.89,77S38.18,50.27,37.51,48.47s-9.79-4.92-11.68-.55S21.89,77,21.89,77Z"/><path class="cls-4" d="M122.59,68.23s-6.38-30.57-8-31.4-9.73,3.26-8.17,7.71S122.59,68.23,122.59,68.23Z"/><path class="cls-4" d="M112,48c-6.65.72-1.15-5.5-1.15-5.5L35.16,48.74s-15-.64-19.12-14,1-15.38,1-15.38,5.13,11.79,11.79,11.79,0-10.76,0-10.76,11.79,5.13,9.74,8.2S45.77,7.1,71.4,4s31,1.65,39.6,16C115.2,27,118.65,47.28,112,48Z"/><circle class="cls-4" cx="54.91" cy="66.44" r="7.41"/><circle class="cls-4" cx="89.09" cy="66.44" r="7.41"/><ellipse class="cls-2" cx="24.5" cy="77" rx="4.5" ry="4"/><circle class="cls-3" cx="121.5" cy="70.5" r="4.5"/><circle class="cls-6" cx="50.89" cy="65.91" r="1.11"/><circle class="cls-6" cx="83.83" cy="66.01" r="1.01"/><circle class="cls-7" cx="37.97" cy="82.96" r="7.97"/><circle class="cls-7" cx="108.03" cy="82.96" r="7.97"/><ellipse class="cls-8" cx="68.01" cy="88.09" rx="3.42" ry="0.57"/><ellipse class="cls-8" cx="77.13" cy="88.09" rx="3.42" ry="0.57"/><path class="cls-9" d="M54.34,51.06s-6.84,0-8,4.56"/><path class="cls-9" d="M88.71,50.75s6.81.54,7.59,5.17"/></g></svg>
